<?xml version="1.0" standalone="no"?>
<!DOCTYPE svg PUBLIC "-//W3C//DTD SVG 20010904//EN"
 "http://www.w3.org/TR/2001/REC-SVG-20010904/DTD/svg10.dtd">
<svg version="1.0" xmlns="http://www.w3.org/2000/svg"
 width="720.000000pt" height="720.000000pt" viewBox="0 0 720.000000 720.000000"
 preserveAspectRatio="xMidYMid meet">
<metadata>
Created by potrace 1.15, written by Peter Selinger 2001-2017
</metadata>
<g transform="translate(0.000000,720.000000) scale(0.100000,-0.100000)"
fill="#000000" stroke="none">
<path d="M3225 5774 c-182 -37 -352 -88 -485 -146 -92 -41 -222 -108 -266
-137 -25 -17 -48 -31 -51 -31 -6 0 -131 -90 -179 -130 -17 -14 -40 -32 -50
-40 -93 -77 -180 -164 -297 -301 -100 -117 -235 -346 -332 -562 -20 -46 -88
-262 -105 -334 -15 -67 -6 -84 62 -107 29 -11 58 -21 64 -23 6 -2 49 27 95 65
46 38 103 81 126 95 50 31 68 59 54 85 -15 29 -25 256 -12 281 14 26 54 47
106 56 22 4 45 11 50 15 12 9 95 30 148 37 31 4 43 1 63 -18 13 -12 24 -26 24
-30 0 -4 24 -59 54 -122 l54 -114 111 -6 c61 -4 119 -11 129 -16 9 -4 38 -11
63 -15 l46 -7 44 58 c24 32 46 60 49 63 3 3 27 31 53 63 41 48 54 57 81 57 17
0 36 -4 42 -9 5 -5 41 -26 79 -47 120 -64 174 -102 180 -127 6 -23 -35 -164
-71 -244 -23 -51 -17 -71 44 -143 69 -83 122 -156 122 -168 0 -17 51 -23 104
-13 28 5 90 12 139 16 87 6 88 6 117 -24 17 -16 30 -37 30 -47 0 -19 24 -106
46 -167 21 -57 18 -113 -8 -137 -12 -11 -25 -20 -29 -20 -15 0 -224 -103 -231
-113 -3 -6 -9 -49 -13 -96 -3 -47 -13 -113 -21 -147 -8 -33 -14 -67 -14 -76 0
-9 54 -59 120 -113 135 -109 142 -122 95 -200 -14 -22 -33 -56 -43 -75 -44
-85 -76 -131 -103 -151 -28 -20 -32 -20 -63 -5 -19 9 -41 16 -49 16 -9 0 -19
5 -22 10 -3 6 -12 10 -20 10 -8 0 -26 5 -42 12 -15 6 -50 19 -77 28 l-48 18
-65 -59 c-36 -33 -94 -78 -130 -102 l-65 -42 7 -110 c4 -60 11 -118 16 -127
18 -33 10 -73 -19 -101 -15 -15 -35 -27 -43 -27 -8 0 -19 -4 -25 -9 -5 -5 -29
-14 -54 -19 -25 -6 -70 -18 -100 -27 -95 -29 -99 -29 -124 -6 -23 22 -45 62
-109 203 l-35 76 -84 6 c-46 2 -121 10 -167 17 l-84 13 -38 -45 c-21 -24 -39
-55 -39 -67 0 -43 237 -250 401 -350 112 -69 124 -75 219 -122 186 -92 400
-160 640 -202 103 -18 558 -18 660 0 158 28 349 77 435 111 158 63 380 174
414 206 18 18 7 45 -18 45 -39 0 -59 49 -67 156 -10 149 -18 161 -139 202 -11
4 -46 22 -78 40 -69 41 -82 39 -173 -23 -36 -25 -68 -45 -72 -45 -4 0 -18 -9
-32 -20 -47 -37 -70 -27 -155 63 -43 45 -89 99 -102 119 -30 44 -30 43 73 176
41 52 74 101 74 107 0 6 -11 33 -23 61 -13 27 -32 74 -42 104 -44 137 -34 124
-100 135 -33 6 -64 13 -70 16 -5 4 -32 10 -60 14 -54 8 -75 16 -99 41 -19 19
-22 183 -5 263 16 75 36 87 166 95 140 10 154 17 174 91 6 22 30 77 54 121 50
94 54 74 -44 226 -40 62 -61 105 -59 120 4 27 211 218 237 218 19 0 80 -42
151 -103 82 -71 84 -72 196 -28 55 22 119 46 144 53 49 16 45 8 72 150 7 36
16 70 21 74 4 4 7 16 7 26 0 10 12 31 26 45 l26 26 141 -6 c119 -5 143 -9 159
-25 18 -18 29 -69 46 -231 l7 -63 65 -24 c60 -23 154 -67 200 -96 22 -14 30
-11 166 78 45 30 93 58 108 64 25 9 26 13 20 47 -20 122 -87 338 -138 448
-135 291 -270 487 -478 692 -116 115 -288 253 -315 253 -9 0 -44 -20 -79 -45
l-64 -46 6 -122 c4 -67 11 -128 16 -134 6 -7 44 -30 85 -50 103 -52 116 -66
108 -112 -4 -20 -10 -40 -15 -46 -5 -5 -11 -27 -15 -48 -4 -20 -11 -40 -16
-43 -5 -3 -9 -14 -9 -24 0 -32 -33 -41 -122 -34 -46 4 -89 11 -96 17 -17 14
-54 -7 -75 -42 -9 -15 -40 -55 -70 -88 l-55 -61 15 -49 c8 -26 19 -56 24 -66
6 -10 13 -40 16 -66 6 -56 2 -60 -130 -126 -61 -30 -83 -36 -95 -28 -10 5 -44
46 -77 89 l-61 79 -44 -3 c-25 -1 -82 -5 -128 -8 l-82 -5 -47 -96 c-50 -104
-72 -123 -120 -105 -15 6 -46 14 -68 17 -22 4 -56 14 -75 23 -34 17 -35 18
-34 77 1 33 5 86 9 117 l8 57 -39 33 c-21 18 -59 52 -84 76 -57 51 -89 54
-198 17 -51 -17 -79 -22 -95 -16 -29 11 -120 186 -115 221 2 16 27 42 76 80
41 30 78 63 84 73 6 12 6 42 -1 90 -6 40 -12 92 -14 117 l-2 45 -85 43 c-99
49 -123 72 -114 111 4 14 10 31 15 36 4 6 11 30 15 53 4 23 11 45 15 48 5 3 9
13 9 23 0 40 24 45 143 34 l112 -11 20 26 c11 14 46 57 77 95 48 58 57 74 52
96 -4 14 -11 32 -17 39 -13 16 -112 14 -202 -4z"/>
<path d="M3830 5646 c-147 -41 -273 -146 -342 -284 l-43 -87 0 -150 c0 -142 2
-153 27 -207 29 -63 91 -150 134 -189 42 -37 124 -89 154 -96 14 -3 31 -11 39
-17 9 -7 68 -11 160 -11 120 0 155 3 196 19 111 43 212 128 274 231 47 77 64
142 69 260 3 80 -1 112 -17 165 -40 124 -110 220 -211 289 -33 23 -63 41 -66
41 -3 0 -20 6 -37 14 -83 37 -245 47 -337 22z"/>
<path d="M2260 3950 c-14 -4 -52 -16 -85 -26 -177 -54 -353 -208 -424 -370
-12 -27 -26 -58 -31 -69 -41 -92 -54 -322 -24 -438 45 -170 129 -298 265 -403
62 -48 165 -104 189 -104 9 0 20 -4 26 -10 41 -41 417 -41 458 0 6 6 16 10 24
10 7 0 34 10 60 21 136 62 276 198 340 330 66 136 77 185 77 339 0 154 -11
203 -77 340 -34 70 -58 101 -132 175 -76 75 -107 98 -187 138 -54 26 -121 53
-150 59 -67 14 -295 19 -329 8z m450 -288 c0 -5 -13 -21 -30 -37 -16 -16 -30
-32 -30 -36 0 -4 34 4 75 17 80 25 225 34 225 14 0 -6 -28 -23 -62 -37 -35
-15 -109 -51 -165 -80 -68 -35 -104 -49 -109 -42 -8 14 21 37 106 84 55 31 60
35 30 29 -41 -8 -83 -27 -125 -59 -40 -29 -110 -65 -130 -65 -21 0 -19 17 5
30 11 6 20 17 20 24 0 8 21 38 48 67 26 29 39 50 29 46 -10 -4 -23 -7 -28 -7
-15 0 -91 -73 -100 -97 -5 -13 -15 -23 -24 -23 -45 0 25 104 95 141 61 31 170
51 170 31z m-313 -169 c24 -9 13 -22 -29 -34 -149 -41 -284 -117 -387 -219
-48 -47 -79 -90 -111 -152 -25 -48 -50 -88 -56 -88 -6 0 -17 7 -25 16 -11 13
-9 23 12 62 69 132 164 227 322 321 48 29 87 57 87 62 0 5 9 18 21 30 19 19
28 20 87 14 36 -4 71 -9 79 -12z m-14 -208 c-11 -96 41 -120 181 -85 88 23
115 21 80 -5 -17 -13 -16 -14 17 -8 31 4 39 1 60 -25 35 -44 68 -46 112 -7 27
24 27 26 13 54 -9 16 -37 47 -63 69 -37 32 -44 42 -31 47 9 4 39 -5 68 -20 41
-21 56 -35 70 -68 30 -69 29 -88 -5 -109 -70 -42 -96 -50 -157 -43 -51 6 -58
10 -58 29 0 15 -11 27 -36 38 -35 16 -37 16 -102 -15 -86 -40 -159 -43 -197
-7 l-25 24 -28 -25 c-44 -40 -92 -70 -92 -59 0 6 27 38 60 72 36 38 60 71 60
85 0 32 16 69 40 93 29 29 38 18 33 -35z m-54 -199 c10 -12 10 -20 0 -38 -8
-13 -16 -47 -19 -77 -4 -44 -10 -58 -33 -75 -28 -21 -29 -21 -43 -2 -28 38 -9
135 38 194 14 16 43 15 57 -2z"/>
<path d="M4870 3678 c-235 -48 -397 -165 -489 -353 -36 -74 -51 -113 -51 -133
0 -12 -4 -24 -10 -27 -14 -9 -13 -270 1 -314 50 -159 104 -248 207 -341 57
-52 108 -83 217 -131 98 -44 365 -44 460 0 11 5 45 20 75 34 104 45 231 169
293 284 9 19 29 68 42 110 33 99 36 291 6 393 -19 69 -67 173 -82 178 -5 2 -9
8 -9 14 0 18 -78 104 -132 145 -106 81 -185 116 -313 138 -89 16 -148 17 -215
3z"/>
<path d="M2946 1163 c-37 -9 -95 -53 -110 -80 -36 -71 -26 -154 24 -204 32
-33 29 -39 -17 -39 l-34 0 3 -112 3 -113 69 -3 c49 -2 73 1 85 12 14 12 19 13
41 1 31 -18 159 -19 197 -3 15 6 43 25 61 42 l32 30 0 -31 c0 -49 15 -54 146
-51 110 3 120 5 128 24 l9 21 35 -23 c57 -39 187 -27 205 18 3 7 6 3 6 -9 1
-31 24 -35 172 -30 207 7 268 33 330 142 34 60 34 193 -1 259 -30 59 -78 100
-149 126 -46 18 -73 20 -200 18 l-146 -3 -3 -63 c-3 -57 -1 -64 18 -69 19 -5
20 -13 20 -134 0 -70 -4 -130 -9 -134 -5 -3 -11 5 -13 17 -2 19 -10 24 -45 26
-32 2 -43 7 -43 20 0 9 -9 28 -19 42 -19 24 -19 24 4 52 35 41 40 84 18 143
-15 41 -27 55 -63 75 -44 25 -49 25 -294 28 -151 1 -253 -1 -260 -7 -8 -7 -25
-5 -51 4 -39 14 -111 18 -149 8z m1152 -159 c27 -19 52 -75 52 -118 0 -35 -34
-116 -49 -116 -5 0 -16 -3 -25 -6 -14 -5 -16 10 -16 125 0 72 3 131 8 131 4 0
18 -7 30 -16z"/>
</g>
</svg>
