<?xml version="1.0" standalone="no"?>
<!DOCTYPE svg PUBLIC "-//W3C//DTD SVG 20010904//EN"
 "http://www.w3.org/TR/2001/REC-SVG-20010904/DTD/svg10.dtd">
<svg version="1.0" xmlns="http://www.w3.org/2000/svg"
 width="650.000000pt" height="650.000000pt" viewBox="0 0 650.000000 650.000000"
 preserveAspectRatio="xMidYMid meet">
<metadata>
Created by potrace 1.15, written by Peter Selinger 2001-2017
</metadata>
<g transform="translate(0.000000,650.000000) scale(0.100000,-0.100000)"
fill="#000000" stroke="none">
<path d="M4390 5990 c0 -5 -15 -10 -34 -10 -19 0 -37 -4 -40 -9 -3 -4 -19 -11
-36 -15 -66 -13 -213 -136 -243 -204 -6 -15 -14 -29 -17 -32 -17 -17 -31 -58
-37 -110 -3 -34 -10 -63 -14 -66 -12 -7 -12 -101 0 -108 4 -3 11 -31 14 -63 8
-85 58 -175 145 -260 24 -24 50 -43 58 -43 8 0 14 -4 14 -9 0 -12 106 -61 133
-61 13 0 28 -5 34 -11 13 -13 222 -7 280 9 40 11 82 32 141 69 43 28 142 133
148 159 3 13 10 24 15 24 5 0 9 9 9 19 0 11 5 21 10 23 6 2 14 29 17 61 3 32
10 60 14 63 12 7 12 141 0 148 -4 3 -11 27 -14 53 -6 50 -27 103 -39 103 -5 0
-8 7 -8 16 0 27 -117 164 -141 164 -4 0 -14 6 -21 13 -26 24 -130 67 -164 67
-12 0 -26 5 -29 10 -3 6 -48 10 -101 10 -56 0 -94 -4 -94 -10z"/>
<path d="M2291 4909 c-46 -20 -116 -87 -126 -120 -4 -11 -11 -19 -16 -19 -5 0
-9 -6 -9 -14 0 -8 -3 -16 -8 -18 -4 -1 -27 -34 -52 -73 -25 -38 -48 -71 -52
-73 -5 -2 -8 -10 -8 -17 0 -7 -3 -15 -8 -17 -4 -1 -27 -34 -52 -73 -24 -38
-47 -72 -50 -75 -3 -3 -46 -66 -95 -140 -49 -74 -92 -137 -95 -140 -4 -3 -9
-9 -11 -15 -8 -20 -103 -160 -111 -163 -4 -2 -8 -8 -8 -13 0 -5 -15 -30 -34
-56 -58 -83 -66 -108 -66 -205 0 -52 4 -88 10 -88 6 0 10 -7 10 -16 0 -9 19
-36 42 -60 55 -58 132 -88 206 -81 58 6 157 57 176 91 6 11 19 29 28 40 10 11
20 28 24 38 3 10 10 18 15 18 5 0 9 4 9 8 0 9 98 161 124 193 8 9 15 20 17 25
6 13 83 128 90 134 3 3 8 10 10 15 4 9 40 64 179 269 33 49 60 93 60 98 0 4 4
8 10 8 5 0 12 11 16 25 4 16 10 22 18 17 6 -4 63 -10 126 -14 63 -4 174 -12
245 -18 72 -6 172 -14 222 -18 l93 -7 -100 -155 c-55 -85 -113 -177 -130 -205
-17 -27 -73 -115 -125 -195 -88 -136 -160 -249 -188 -294 -7 -11 -30 -47 -52
-81 -56 -85 -64 -98 -72 -115 -4 -8 -9 -17 -13 -20 -15 -13 -110 -171 -110
-184 0 -8 -4 -18 -10 -21 -5 -3 -10 -16 -10 -28 0 -26 -29 -163 -40 -192 -5
-11 -11 -33 -14 -50 -21 -114 -32 -164 -39 -171 -4 -4 -7 -22 -7 -40 0 -18 -4
-35 -9 -39 -5 -3 -13 -34 -16 -70 -4 -36 -11 -68 -16 -71 -5 -3 -9 -21 -9 -40
0 -19 -4 -34 -9 -34 -5 0 -11 -17 -15 -38 -19 -125 -31 -182 -38 -182 -4 0 -8
-15 -8 -32 -1 -49 -25 -71 -135 -123 -55 -26 -149 -71 -210 -100 -187 -89
-296 -141 -390 -185 -49 -23 -135 -64 -190 -90 -55 -27 -136 -65 -180 -85
-225 -105 -351 -170 -381 -197 -70 -64 -94 -210 -49 -297 27 -54 93 -110 149
-126 92 -28 137 -19 296 57 58 28 134 64 170 81 36 16 134 63 218 103 85 41
155 74 158 74 2 0 83 38 179 85 97 47 178 85 180 85 3 0 78 35 167 79 90 43
210 101 269 129 130 61 185 116 195 193 4 27 10 49 15 49 5 0 9 14 9 30 0 17
4 38 9 48 12 23 41 153 41 185 0 14 5 29 10 32 6 3 10 19 10 35 0 16 4 31 9
34 5 3 12 37 16 76 4 38 11 70 16 70 5 0 9 15 9 34 0 19 4 37 9 40 5 3 11 23
14 43 8 52 32 165 39 183 8 19 16 57 31 142 7 36 15 70 20 74 4 4 7 18 7 30 0
32 17 39 31 12 6 -13 33 -45 59 -73 26 -27 78 -83 116 -123 38 -41 105 -112
149 -158 44 -46 95 -101 113 -122 19 -20 74 -78 124 -129 l90 -92 -11 -618
c-7 -340 -14 -690 -17 -778 -3 -89 -1 -168 4 -180 5 -11 18 -39 27 -62 10 -24
21 -43 24 -43 3 0 18 -10 32 -22 35 -32 65 -48 88 -48 11 0 23 -5 26 -10 8
-13 92 -13 100 0 3 6 15 10 26 10 20 0 54 16 76 37 7 6 16 13 21 15 17 7 59
75 70 113 6 22 13 108 16 190 13 398 28 1077 29 1316 l2 265 -43 57 c-23 31
-79 94 -123 140 -45 45 -126 131 -182 191 -56 60 -139 147 -184 195 -82 85
-94 106 -72 128 6 6 16 21 23 32 6 12 39 66 74 122 34 55 62 102 62 105 0 3 5
10 11 17 6 7 20 29 32 49 79 134 301 488 306 488 3 0 20 -29 36 -65 17 -36 33
-65 38 -65 4 0 7 -9 7 -20 0 -11 5 -20 10 -20 6 0 10 -5 10 -11 0 -12 31 -81
40 -89 3 -3 14 -25 25 -50 11 -25 22 -47 25 -50 3 -3 30 -54 60 -115 94 -191
127 -229 206 -242 19 -3 37 -10 40 -14 7 -12 84 -11 84 1 0 6 15 10 33 10 20
0 56 14 92 35 33 20 75 43 95 53 19 9 41 22 48 29 7 7 20 13 28 13 8 0 14 3
14 8 0 4 15 13 33 21 17 8 34 17 37 20 3 3 21 14 40 25 56 30 110 60 187 104
39 23 87 50 105 60 431 243 423 238 461 312 38 73 38 167 1 239 -30 58 -42 69
-107 105 -65 36 -167 37 -236 3 -56 -29 -94 -50 -101 -57 -3 -3 -16 -11 -30
-18 -14 -6 -38 -20 -55 -30 -16 -9 -66 -37 -110 -62 -44 -25 -89 -50 -100 -57
-11 -6 -36 -20 -55 -29 -19 -10 -37 -20 -40 -23 -7 -9 -41 -28 -80 -48 -19 -9
-37 -19 -40 -22 -3 -4 -23 -15 -45 -26 -22 -11 -42 -22 -45 -25 -9 -9 -50 -30
-59 -30 -5 0 -14 15 -22 33 -7 17 -16 34 -19 37 -9 7 -40 76 -40 88 0 6 -3 12
-7 14 -5 2 -26 39 -48 83 -22 44 -43 82 -47 83 -5 2 -8 8 -8 13 0 16 -35 89
-42 89 -5 0 -8 4 -8 10 0 17 -34 90 -42 90 -5 0 -8 9 -8 20 0 11 -4 20 -9 20
-5 0 -12 14 -16 30 -4 17 -11 30 -16 30 -5 0 -9 9 -9 20 0 11 -4 20 -10 20 -5
0 -10 5 -10 11 0 13 -31 82 -40 89 -3 3 -16 25 -28 50 -95 194 -120 204 -577
231 -227 13 -387 25 -445 33 -25 3 -160 12 -300 21 -140 8 -291 20 -336 25
-126 16 -222 12 -273 -11z"/>
</g>
</svg>
