<?xml version="1.0" standalone="no"?>
<!DOCTYPE svg PUBLIC "-//W3C//DTD SVG 20010904//EN"
 "http://www.w3.org/TR/2001/REC-SVG-20010904/DTD/svg10.dtd">
<svg version="1.0" xmlns="http://www.w3.org/2000/svg"
 width="650.000000pt" height="650.000000pt" viewBox="0 0 650.000000 650.000000"
 preserveAspectRatio="xMidYMid meet">
<metadata>
Created by potrace 1.15, written by Peter Selinger 2001-2017
</metadata>
<g transform="translate(0.000000,650.000000) scale(0.100000,-0.100000)"
fill="#000000" stroke="none">
<path d="M1245 6458 l-27 -21 6 -321 7 -321 27 -22 c15 -13 37 -23 49 -23 20
0 110 37 278 115 66 30 128 58 193 85 52 23 102 69 102 95 0 32 -25 66 -54 73
-34 9 -126 -5 -126 -19 0 -5 -11 -9 -25 -9 -14 0 -25 -4 -25 -9 0 -5 -18 -12
-40 -16 -22 -4 -42 -11 -46 -16 -11 -18 -67 -9 -100 16 -18 14 -36 25 -39 25
-4 0 -14 7 -23 17 -13 13 -17 42 -20 152 -1 75 -5 146 -8 159 -12 59 -79 80
-129 40z"/>
<path d="M5110 6050 c-8 -5 -26 -10 -39 -10 -52 0 -114 -49 -227 -179 -22 -24
-74 -80 -116 -123 -43 -43 -93 -98 -112 -122 -20 -23 -87 -96 -151 -161 -63
-66 -118 -127 -121 -137 -3 -10 -9 -18 -14 -18 -10 0 -16 -6 -135 -135 -44
-48 -128 -137 -187 -199 -58 -61 -117 -124 -130 -141 -13 -16 -54 -62 -93
-101 -75 -76 -253 -267 -326 -349 -41 -47 -130 -141 -279 -298 l-65 -67 -60
56 c-33 30 -116 108 -185 173 -69 64 -145 135 -170 156 -24 22 -83 76 -130
121 -48 44 -107 90 -132 102 -90 44 -219 22 -291 -51 -30 -29 -57 -84 -57
-113 0 -13 -4 -26 -10 -29 -13 -8 -13 -72 0 -80 5 -3 10 -17 10 -31 0 -13 6
-34 13 -45 9 -17 10 -23 0 -26 -7 -3 -13 -11 -13 -18 0 -7 -3 -15 -7 -17 -5
-1 -21 -28 -37 -58 -16 -30 -40 -77 -55 -105 -14 -27 -29 -52 -32 -55 -4 -3
-19 -30 -35 -60 -16 -30 -31 -57 -34 -60 -5 -5 -27 -44 -69 -125 -14 -27 -29
-51 -33 -53 -5 -2 -8 -10 -8 -18 0 -8 -4 -14 -9 -14 -5 0 -12 -13 -16 -30 -4
-16 -10 -30 -13 -30 -4 0 -12 -10 -18 -23 -6 -12 -23 -46 -39 -74 l-29 -53
-52 0 c-29 0 -56 -4 -59 -10 -3 -5 -28 -10 -55 -10 -54 0 -117 -18 -196 -56
-28 -13 -56 -24 -62 -24 -7 0 -12 -4 -12 -10 0 -5 -7 -10 -15 -10 -8 0 -15 -4
-15 -9 0 -5 -9 -12 -19 -16 -32 -10 -135 -115 -190 -194 -28 -41 -51 -78 -51
-83 0 -5 -8 -21 -17 -35 -21 -31 -53 -120 -53 -145 0 -10 -4 -18 -9 -18 -5 0
-11 -15 -14 -32 -4 -18 -11 -58 -16 -88 -12 -69 -12 -279 -1 -345 18 -98 22
-115 31 -115 5 0 9 -10 9 -21 0 -24 49 -119 62 -119 4 0 8 -6 8 -14 0 -18 86
-96 126 -115 16 -7 37 -17 46 -22 24 -12 215 -11 223 1 3 6 15 10 26 10 10 0
27 4 37 9 9 4 35 16 57 27 48 22 119 66 123 77 2 4 8 7 14 7 10 0 176 164 208
206 54 69 138 234 146 286 4 21 10 38 15 38 5 0 9 15 9 34 0 19 5 38 10 41 6
4 10 70 10 166 0 99 -4 159 -10 159 -5 0 -10 16 -10 35 0 19 -4 35 -9 35 -5 0
-11 17 -15 38 -5 36 -67 169 -83 181 -14 11 -32 49 -25 53 10 4 112 207 112
223 0 7 4 15 8 17 5 2 26 39 48 83 21 44 42 82 46 85 3 3 10 18 13 33 4 15 11
27 16 27 5 0 9 9 9 20 0 11 3 20 8 20 4 0 16 21 26 48 11 26 22 49 26 52 9 7
40 76 40 89 0 6 3 11 8 11 4 0 13 14 20 30 l14 30 51 -42 c28 -24 74 -65 102
-93 28 -27 72 -69 98 -91 50 -45 198 -182 386 -357 64 -60 134 -118 156 -130
50 -25 171 -28 225 -4 32 14 151 130 279 272 95 107 222 235 231 235 5 0 12
-11 16 -25 3 -14 10 -25 15 -25 5 0 9 -6 9 -14 0 -8 3 -16 8 -18 4 -1 16 -21
27 -43 11 -22 22 -42 25 -45 3 -3 18 -30 34 -60 61 -119 81 -155 86 -160 3 -3
14 -23 25 -45 11 -22 22 -42 25 -45 9 -9 51 -85 57 -102 3 -10 9 -18 14 -18 5
0 9 -5 9 -11 0 -13 31 -82 41 -89 3 -3 19 -30 35 -60 16 -30 31 -57 34 -60 3
-3 14 -23 25 -45 11 -22 22 -42 26 -45 23 -20 14 -39 -32 -66 -27 -15 -49 -32
-49 -36 0 -4 -5 -8 -11 -8 -10 0 -69 -41 -97 -67 -7 -7 -16 -13 -20 -13 -4 0
-20 -11 -36 -25 -16 -14 -32 -25 -36 -25 -4 0 -21 -14 -38 -30 -18 -17 -36
-30 -41 -30 -5 0 -18 -10 -28 -23 -10 -12 -31 -31 -47 -41 -16 -10 -41 -30
-56 -45 -14 -14 -38 -35 -52 -46 -169 -130 -727 -679 -752 -739 -23 -55 -21
-157 4 -206 25 -48 77 -102 122 -125 52 -26 136 -31 199 -10 47 16 76 41 254
214 211 207 308 300 389 372 27 24 70 63 94 86 25 24 48 43 51 43 3 0 20 12
36 26 17 14 50 43 75 63 25 20 54 44 64 53 11 10 23 18 27 18 4 0 14 6 21 13
7 7 38 30 68 52 30 22 57 42 60 45 3 3 37 26 75 50 39 25 72 48 73 52 2 5 12
8 23 8 10 0 19 4 19 10 0 5 11 12 25 16 14 3 25 10 25 15 0 22 30 6 35 -18 4
-16 10 -36 16 -45 5 -10 9 -25 9 -33 0 -8 4 -23 10 -33 5 -9 14 -37 19 -62 5
-25 14 -61 20 -80 15 -53 41 -151 51 -190 4 -19 27 -111 49 -205 23 -93 52
-224 66 -290 61 -296 61 -296 132 -362 46 -43 93 -56 190 -52 73 4 83 7 126
39 25 19 57 56 71 81 23 41 26 59 26 143 0 53 -4 96 -9 96 -5 0 -12 34 -16 75
-4 41 -11 77 -16 81 -5 3 -9 23 -9 45 0 21 -4 39 -8 39 -7 0 -19 57 -38 183
-4 20 -10 37 -14 37 -4 0 -10 17 -13 38 -10 66 -32 160 -39 168 -5 4 -8 19 -8
34 0 15 -3 30 -7 34 -8 7 -29 90 -40 154 -3 18 -9 35 -14 38 -5 3 -9 16 -9 29
0 13 -4 26 -9 29 -5 4 -12 29 -16 56 -4 27 -11 52 -16 56 -5 3 -9 16 -9 29 0
13 -4 26 -9 29 -5 3 -12 26 -15 51 -4 24 -11 47 -17 50 -5 4 -9 15 -9 26 0 10
-4 28 -10 39 -24 49 -28 58 -35 90 -4 19 -12 43 -18 55 -24 47 -27 56 -27 72
0 10 -7 31 -15 47 -8 15 -15 35 -15 42 0 8 -4 14 -10 14 -5 0 -10 9 -10 20 0
19 -16 60 -51 133 -11 22 -19 43 -19 48 0 16 -35 89 -42 89 -5 0 -8 7 -8 15 0
8 -17 52 -39 97 -21 46 -45 98 -52 116 -8 17 -17 32 -21 32 -5 0 -8 6 -8 13 0
7 -9 28 -20 47 -10 19 -34 64 -51 100 -18 36 -35 67 -38 70 -3 3 -15 23 -26
45 -11 22 -22 42 -25 45 -9 9 -51 85 -57 103 -3 9 -9 17 -14 17 -5 0 -9 6 -9
13 0 6 -25 48 -55 92 -30 44 -60 92 -66 108 -6 15 -15 27 -20 27 -5 0 -9 7 -9
15 0 8 -4 15 -8 15 -4 0 -15 12 -24 28 l-16 27 64 70 c36 39 114 122 174 185
60 63 118 127 129 141 11 14 57 63 103 110 46 47 98 103 117 124 18 22 75 83
125 136 203 213 292 313 310 347 10 21 23 45 27 54 12 23 12 123 0 146 -32 65
-46 90 -63 108 -23 26 -92 60 -133 67 -16 3 -37 8 -45 11 -8 3 -22 1 -30 -4z"/>
<path d="M3065 5690 c-3 -5 -17 -10 -31 -10 -13 0 -24 -4 -24 -10 0 -5 -11
-10 -23 -10 -28 0 -127 -66 -179 -120 -45 -46 -93 -130 -109 -190 -18 -69 -22
-189 -8 -250 23 -100 100 -225 168 -271 19 -13 39 -29 45 -34 16 -15 81 -45
99 -45 9 0 19 -4 22 -10 3 -5 21 -10 40 -10 19 0 37 -4 40 -10 3 -5 39 -10 80
-10 41 0 77 5 80 10 3 6 19 10 36 10 16 0 37 4 47 9 9 4 43 21 75 36 31 16 57
32 57 37 0 4 6 8 13 8 24 0 105 100 140 172 78 162 78 273 -3 443 -32 65 -151
184 -210 209 -25 10 -53 22 -62 27 -10 5 -27 9 -37 9 -11 0 -23 5 -26 10 -4 6
-53 10 -115 10 -62 0 -111 -4 -115 -10z"/>
</g>
</svg>
