<?xml version="1.0" standalone="no"?>
<!DOCTYPE svg PUBLIC "-//W3C//DTD SVG 20010904//EN"
 "http://www.w3.org/TR/2001/REC-SVG-20010904/DTD/svg10.dtd">
<svg version="1.0" xmlns="http://www.w3.org/2000/svg"
 width="650.000000pt" height="650.000000pt" viewBox="0 0 650.000000 650.000000"
 preserveAspectRatio="xMidYMid meet">
<metadata>
Created by potrace 1.15, written by Peter Selinger 2001-2017
</metadata>
<g transform="translate(0.000000,650.000000) scale(0.100000,-0.100000)"
fill="#000000" stroke="none">
<path d="M372 5711 c-61 -21 -115 -69 -143 -125 -18 -38 -19 -71 -19 -777 0
-420 4 -740 9 -743 5 -3 12 -18 16 -33 7 -30 66 -88 110 -108 52 -23 114 -29
305 -29 192 0 253 6 306 30 45 20 104 82 111 116 3 15 9 28 14 28 5 0 9 144 9
320 l0 320 154 0 153 0 5 -68 c7 -101 0 -91 261 -367 84 -88 184 -193 222
-234 39 -41 102 -108 142 -149 39 -40 93 -97 119 -125 26 -29 93 -99 148 -157
56 -58 130 -137 165 -175 35 -39 127 -135 203 -213 l139 -144 -6 -126 c-3 -70
-8 -268 -11 -439 -2 -172 -7 -313 -10 -313 -3 0 -22 11 -42 25 -20 14 -41 25
-46 25 -5 0 -16 8 -25 18 -19 20 -49 40 -73 48 -10 4 -18 9 -18 13 0 4 -25 20
-55 36 -30 15 -55 32 -55 35 0 4 -8 10 -17 14 -19 6 -55 27 -63 37 -3 3 -61
41 -130 85 -69 43 -126 82 -128 86 -2 5 -10 8 -18 8 -8 0 -14 5 -14 10 0 6 -6
10 -14 10 -8 0 -21 6 -28 13 -29 26 -137 87 -154 87 -8 0 -14 5 -14 10 0 13
-137 13 -145 0 -3 -5 -14 -10 -25 -10 -28 0 -116 -85 -136 -132 -22 -50 -25
-119 -44 -1150 -14 -737 -15 -720 46 -788 103 -113 290 -113 387 1 57 66 66
119 72 439 2 157 8 430 11 608 l6 322 37 -22 c20 -12 38 -26 39 -30 2 -4 10
-8 18 -8 8 0 14 -3 14 -7 0 -5 18 -17 40 -27 22 -11 40 -23 40 -28 0 -4 7 -8
15 -8 8 0 15 -4 15 -9 0 -5 10 -13 23 -17 12 -4 24 -10 27 -14 8 -12 118 -80
130 -80 5 0 10 -4 10 -10 0 -5 11 -12 25 -16 14 -3 25 -9 25 -13 0 -4 18 -17
40 -30 22 -12 46 -27 53 -34 17 -16 47 -35 74 -46 11 -6 24 -14 27 -20 3 -5
27 -19 54 -31 26 -12 55 -26 64 -31 24 -12 195 -12 203 1 4 6 158 10 430 10
272 0 426 4 430 10 3 5 14 10 24 10 19 0 57 31 190 156 47 44 101 94 119 110
18 16 56 51 83 78 48 46 52 48 63 30 6 -10 14 -35 18 -54 4 -19 14 -69 22
-110 8 -41 20 -95 26 -120 11 -43 35 -163 46 -225 3 -16 9 -39 13 -50 10 -24
30 -122 38 -183 3 -23 10 -45 14 -48 5 -3 9 -20 9 -39 0 -19 4 -36 9 -39 5 -3
12 -37 16 -76 4 -39 11 -73 16 -76 5 -3 9 -20 9 -39 0 -19 5 -37 10 -40 6 -3
10 -17 10 -31 0 -42 37 -100 88 -138 132 -97 314 -55 390 89 24 46 19 179 -11
305 -14 58 -33 141 -42 185 -9 44 -23 109 -32 145 -9 36 -22 94 -29 130 -7 36
-18 85 -24 110 -6 25 -18 77 -25 115 -8 39 -19 88 -24 110 -5 22 -21 96 -36
165 -14 69 -31 143 -36 165 -6 22 -17 72 -24 110 -8 39 -19 88 -24 110 -6 22
-15 61 -20 87 -6 26 -18 62 -27 80 -24 46 -92 108 -126 115 -15 3 -31 10 -34
14 -6 11 -128 12 -138 1 -4 -4 -20 -11 -36 -17 -32 -11 -101 -68 -230 -191
-47 -45 -103 -97 -124 -115 -22 -19 -56 -50 -76 -69 -20 -19 -68 -64 -106
-100 l-69 -64 -9 44 c-5 25 -10 160 -13 300 -2 142 -8 259 -13 264 -6 6 -10
75 -10 155 l0 146 55 60 c30 33 55 63 55 66 0 3 12 19 28 36 15 16 54 63 87
103 33 40 76 92 95 115 19 23 51 62 70 85 19 23 51 62 70 85 19 23 58 70 85
105 28 34 57 70 65 79 8 9 33 39 55 66 21 28 47 59 57 70 9 11 52 63 95 115
172 209 309 376 323 394 8 10 31 38 52 62 31 37 78 135 78 164 0 6 64 10 160
10 l160 0 0 -314 c0 -199 4 -317 10 -321 6 -3 10 -15 10 -26 0 -10 5 -19 10
-19 6 0 10 -6 10 -14 0 -18 60 -71 102 -89 66 -29 168 -39 338 -34 91 3 185 9
210 13 46 7 110 45 144 85 47 57 46 31 46 821 0 411 -4 757 -9 770 -5 13 -30
44 -56 70 -73 72 -118 80 -395 76 -204 -3 -229 -5 -270 -24 -51 -24 -110 -77
-110 -99 0 -8 -4 -15 -10 -15 -5 0 -10 -9 -10 -19 0 -11 -4 -23 -10 -26 -6 -4
-10 -127 -10 -336 l0 -329 -190 0 c-188 0 -189 0 -214 25 -14 14 -29 25 -35
25 -5 0 -11 5 -13 11 -2 6 -28 14 -58 17 -30 2 -60 9 -67 14 -7 5 -14 5 -18
-2 -3 -5 -22 -10 -42 -10 -42 0 -92 -22 -124 -56 l-22 -24 -1389 0 c-1212 0
-1393 2 -1425 15 -19 8 -64 15 -98 15 -34 0 -79 -7 -98 -15 -29 -12 -83 -15
-252 -15 l-215 0 0 334 c0 213 -4 337 -10 341 -5 3 -10 15 -10 26 0 25 -80
106 -127 127 -32 14 -79 17 -278 19 -214 3 -246 1 -293 -16z m4048 -1005 c0
-3 -23 -33 -52 -68 -29 -35 -56 -67 -60 -73 -4 -5 -24 -30 -45 -55 -22 -25
-63 -74 -92 -110 -29 -36 -65 -81 -81 -100 -16 -19 -49 -58 -72 -86 -24 -29
-50 -61 -58 -71 -26 -34 -84 -105 -100 -122 -8 -9 -46 -56 -84 -104 -38 -48
-71 -87 -73 -87 -6 0 9 55 18 65 5 5 9 19 9 31 0 13 5 26 10 29 6 3 10 52 10
110 0 58 -4 107 -10 110 -5 3 -10 17 -10 30 0 13 -4 27 -10 30 -5 3 -10 14
-10 24 0 24 -68 119 -121 168 -38 36 -81 62 -178 107 -14 6 -82 11 -166 11
l-142 0 -78 -40 c-104 -53 -194 -142 -233 -227 -6 -16 -18 -40 -24 -54 -9 -18
-13 -74 -13 -159 0 -127 2 -141 36 -207 5 -10 9 -21 9 -24 0 -8 -110 105 -279
285 -138 147 -174 186 -294 311 -188 198 -233 246 -246 263 -13 16 47 17 1213
17 674 0 1226 -2 1226 -4z m-900 -1100 c-64 -81 -65 -82 -130 -91 -93 -13
-192 -9 -286 10 -19 4 -127 105 -120 112 1 2 25 -8 52 -22 27 -14 63 -25 79
-25 17 0 36 -5 42 -11 13 -13 155 -7 228 10 46 10 92 28 105 41 9 9 65 39 73
40 4 0 -15 -29 -43 -64z"/>
</g>
</svg>
