<?xml version="1.0" standalone="no"?>
<!DOCTYPE svg PUBLIC "-//W3C//DTD SVG 20010904//EN"
 "http://www.w3.org/TR/2001/REC-SVG-20010904/DTD/svg10.dtd">
<svg version="1.0" xmlns="http://www.w3.org/2000/svg"
 width="650.000000pt" height="650.000000pt" viewBox="0 0 650.000000 650.000000"
 preserveAspectRatio="xMidYMid meet">
<metadata>
Created by potrace 1.15, written by Peter Selinger 2001-2017
</metadata>
<g transform="translate(0.000000,650.000000) scale(0.100000,-0.100000)"
fill="#000000" stroke="none">
<path d="M3630 5340 c-14 -4 -45 -13 -70 -21 -58 -17 -134 -57 -172 -91 -17
-15 -42 -35 -54 -45 -13 -10 -24 -21 -24 -26 0 -4 -11 -19 -25 -33 -14 -14
-25 -31 -25 -39 0 -7 -3 -15 -7 -17 -17 -7 -55 -96 -60 -141 -3 -26 -10 -50
-14 -53 -12 -7 -12 -171 0 -178 4 -3 11 -27 14 -53 5 -45 43 -134 60 -141 4
-2 7 -10 7 -18 0 -24 132 -150 195 -186 124 -70 279 -96 402 -67 99 24 205 76
268 131 57 50 128 148 150 208 9 25 22 56 28 69 8 15 12 73 11 150 -1 117 -3
131 -32 199 -79 185 -206 293 -410 348 -57 15 -201 18 -242 4z"/>
<path d="M565 5011 c-60 -11 -113 -40 -137 -75 -12 -17 -25 -33 -29 -36 -4 -3
-11 -18 -14 -33 -4 -15 -11 -27 -16 -27 -5 0 -9 -7 -9 -15 0 -8 -4 -23 -9 -33
-34 -67 -36 -79 -36 -233 0 -113 4 -162 13 -171 6 -6 12 -20 12 -29 0 -14 31
-79 81 -169 13 -23 79 -110 104 -135 6 -6 28 -24 50 -40 22 -17 42 -32 45 -36
13 -15 128 -79 153 -85 15 -3 30 -10 33 -15 3 -5 15 -9 28 -9 12 0 28 -6 34
-12 18 -18 363 -18 384 -1 15 13 17 11 144 -105 22 -20 80 -73 128 -117 49
-44 120 -110 160 -146 39 -37 91 -85 116 -108 34 -32 41 -44 32 -53 -14 -14
-16 -91 -3 -116 6 -9 13 -30 16 -46 7 -32 74 -103 119 -126 19 -10 59 -15 116
-15 77 0 94 4 146 30 32 17 61 33 62 38 2 4 10 7 18 7 8 0 14 5 14 10 0 6 9
10 20 10 11 0 20 5 20 10 0 6 6 10 13 10 7 0 28 11 47 24 19 13 46 27 60 31
14 4 27 10 30 14 3 3 31 19 63 36 31 16 57 33 57 37 0 4 9 8 20 8 11 0 20 4
20 9 0 5 12 12 27 16 15 3 30 10 33 13 7 10 81 52 103 59 9 3 17 9 17 14 0 5
9 9 19 9 11 0 21 3 23 8 1 4 26 19 53 33 101 52 160 84 165 89 3 3 24 14 47
25 24 11 43 23 43 28 0 4 9 7 20 7 20 0 20 -7 20 -399 0 -256 4 -402 10 -406
6 -4 10 -72 10 -171 0 -103 -4 -164 -10 -164 -5 0 -10 -7 -10 -15 0 -8 -4 -15
-8 -15 -5 0 -17 -16 -28 -35 -10 -19 -21 -35 -25 -35 -4 0 -9 -8 -13 -17 -6
-20 -27 -55 -37 -63 -4 -3 -24 -32 -45 -65 -21 -33 -43 -65 -48 -71 -6 -7 -29
-40 -51 -75 -22 -34 -48 -74 -58 -88 -9 -14 -20 -34 -23 -43 -4 -10 -10 -18
-14 -18 -4 0 -15 -16 -26 -35 -10 -19 -22 -35 -26 -35 -5 0 -8 -6 -8 -14 0 -8
-4 -16 -8 -18 -10 -4 -92 -128 -92 -139 0 -5 -4 -9 -9 -9 -5 0 -16 -15 -25
-32 -25 -49 -40 -72 -52 -80 -6 -4 -17 -21 -24 -38 -7 -16 -16 -30 -21 -30 -5
0 -9 -6 -9 -14 0 -8 -3 -16 -7 -18 -8 -3 -84 -113 -92 -132 -2 -5 -9 -16 -17
-25 -26 -32 -124 -184 -124 -193 0 -4 -4 -8 -9 -8 -5 0 -13 -10 -17 -22 -4
-13 -9 -25 -13 -28 -10 -8 -61 -78 -61 -84 0 -3 -6 -14 -14 -23 -27 -33 -126
-186 -126 -195 0 -4 -4 -8 -9 -8 -5 0 -13 -10 -17 -22 -4 -13 -10 -25 -14 -28
-16 -12 -60 -86 -60 -102 0 -10 -4 -18 -10 -18 -12 0 -13 -134 -1 -158 5 -9
17 -35 27 -56 20 -41 85 -96 115 -96 10 0 21 -4 24 -10 8 -13 155 -13 155 0 0
6 11 10 25 10 35 0 100 67 173 179 34 51 62 97 62 102 0 5 3 9 8 9 4 0 15 15
25 33 10 18 29 46 43 62 13 15 24 34 24 42 0 7 4 13 8 13 5 0 17 16 28 35 10
19 22 35 26 35 5 0 8 6 8 14 0 8 3 16 8 18 10 4 62 86 62 98 0 5 4 10 9 10 5
0 13 10 17 23 4 12 15 29 25 38 11 9 19 21 19 28 0 6 4 11 10 11 5 0 12 11 16
25 3 14 9 25 14 25 4 0 15 16 26 35 10 19 22 35 26 35 5 0 8 6 8 14 0 8 3 16
8 18 11 5 92 133 92 145 0 6 3 13 8 15 12 5 62 76 62 87 0 6 4 11 8 11 5 0 17
16 28 35 10 19 22 35 26 35 5 0 8 5 8 10 0 6 5 16 10 23 6 7 57 82 113 167 56
85 105 157 109 158 5 2 8 10 8 18 0 8 4 14 10 14 5 0 12 11 16 25 3 14 9 25
13 25 3 0 19 21 36 48 16 26 34 52 40 58 5 7 33 48 60 92 28 45 54 81 58 82
16 0 776 -575 777 -588 0 -13 21 -68 41 -104 5 -10 9 -25 9 -33 0 -8 4 -15 9
-15 5 0 12 -17 16 -37 4 -21 10 -42 14 -48 4 -5 14 -26 21 -45 18 -48 34 -86
59 -142 11 -26 21 -51 21 -54 0 -3 7 -22 16 -42 39 -88 44 -101 44 -110 0 -6
8 -27 19 -49 10 -21 27 -58 36 -83 9 -25 26 -62 36 -83 11 -22 19 -43 19 -49
0 -5 7 -26 16 -46 9 -21 19 -46 24 -57 4 -11 15 -37 24 -58 9 -21 16 -44 16
-52 0 -8 5 -15 10 -15 6 0 10 -9 10 -19 0 -11 4 -22 9 -25 4 -3 11 -19 14 -35
7 -32 97 -131 121 -131 8 0 16 -5 18 -11 2 -6 39 -10 96 -10 78 0 97 3 124 22
45 30 108 99 115 127 10 39 -2 231 -15 244 -6 6 -12 20 -12 30 0 10 -4 18 -10
18 -5 0 -10 9 -10 21 0 12 -7 37 -16 57 -9 21 -20 46 -24 57 -4 11 -15 36 -24
57 -9 20 -16 45 -16 57 0 12 -4 21 -10 21 -5 0 -10 7 -10 15 0 8 -4 23 -9 33
-5 9 -28 69 -51 132 -23 63 -46 124 -50 135 -5 11 -32 83 -60 160 -29 77 -62
167 -75 200 -13 33 -45 115 -70 183 -26 67 -51 122 -56 122 -5 0 -9 7 -9 14 0
8 -17 28 -37 43 -21 15 -44 34 -51 41 -8 6 -23 17 -34 23 -11 6 -27 17 -36 25
-18 15 -201 152 -445 333 l-154 114 -6 315 c-11 522 -9 736 6 720 8 -7 31 -26
52 -43 21 -16 55 -43 74 -60 44 -37 57 -47 73 -60 20 -16 139 -112 178 -144
82 -68 118 -97 144 -116 16 -11 38 -29 50 -40 11 -11 46 -39 76 -63 51 -39 84
-66 164 -133 17 -14 42 -34 55 -45 13 -10 38 -30 55 -44 59 -48 105 -80 115
-80 6 0 11 -4 11 -8 0 -4 26 -14 58 -21 60 -13 107 -7 172 23 32 14 91 73 110
110 20 39 20 192 0 232 -17 33 -79 97 -136 140 -21 16 -46 36 -54 45 -8 8 -28
24 -45 35 -16 10 -38 29 -48 41 -10 13 -23 23 -29 23 -6 0 -18 8 -27 18 -9 10
-34 31 -56 47 -22 16 -49 39 -60 50 -11 11 -38 33 -60 50 -54 40 -72 54 -115
93 -21 17 -40 32 -44 32 -4 0 -17 10 -30 23 -12 12 -42 38 -66 57 -24 19 -49
41 -56 48 -7 6 -15 12 -18 12 -5 0 -31 20 -70 55 -13 12 -166 136 -181 147 -5
4 -23 18 -40 31 -72 54 -39 52 -719 52 -621 0 -632 0 -671 -21 -68 -36 -110
-59 -115 -64 -3 -3 -36 -21 -75 -41 -108 -55 -140 -73 -143 -81 -2 -5 -12 -8
-22 -8 -10 0 -20 -3 -22 -7 -1 -5 -29 -21 -60 -37 -32 -16 -58 -33 -58 -38 0
-4 -6 -8 -12 -8 -14 0 -34 -10 -118 -59 -30 -18 -63 -35 -72 -38 -10 -3 -18
-9 -18 -14 0 -5 -6 -9 -12 -9 -7 0 -24 -6 -38 -14 -14 -7 -50 -26 -80 -42 -30
-16 -57 -31 -60 -34 -3 -3 -23 -14 -45 -25 -22 -11 -42 -22 -45 -25 -10 -10
-68 -40 -78 -40 -11 0 -31 19 -222 204 -80 78 -183 175 -228 218 -82 76 -93
97 -73 136 34 66 47 316 21 397 -43 133 -100 234 -180 317 -71 74 -261 189
-340 204 -17 4 -33 11 -36 15 -3 5 -16 9 -30 9 -14 0 -33 4 -43 9 -23 13 -197
21 -246 12z"/>
<path d="M5189 2611 c-61 -20 -113 -63 -135 -111 -25 -53 -35 -109 -24 -129 5
-11 10 -31 10 -45 0 -14 5 -26 10 -26 6 0 10 -5 10 -10 0 -19 64 -82 99 -96
50 -21 149 -18 197 6 63 32 69 39 115 132 12 25 11 128 -1 128 -5 0 -10 9 -10
20 0 11 -4 20 -10 20 -5 0 -10 7 -10 15 0 17 -44 61 -82 81 -33 17 -134 27
-169 15z"/>
</g>
</svg>
