<?xml version="1.0" standalone="no"?>
<!DOCTYPE svg PUBLIC "-//W3C//DTD SVG 20010904//EN"
 "http://www.w3.org/TR/2001/REC-SVG-20010904/DTD/svg10.dtd">
<svg version="1.0" xmlns="http://www.w3.org/2000/svg"
 width="650.000000pt" height="650.000000pt" viewBox="0 0 650.000000 650.000000"
 preserveAspectRatio="xMidYMid meet">
<metadata>
Created by potrace 1.15, written by Peter Selinger 2001-2017
</metadata>
<g transform="translate(0.000000,650.000000) scale(0.100000,-0.100000)"
fill="#000000" stroke="none">
<path d="M3126 5711 c-3 -4 -33 -11 -67 -14 -34 -3 -66 -10 -72 -16 -6 -6 -19
-11 -29 -11 -10 0 -18 -4 -18 -9 0 -5 -10 -11 -23 -15 -38 -9 -151 -129 -182
-192 -50 -106 -57 -135 -57 -229 0 -94 8 -128 58 -230 27 -55 132 -175 153
-175 5 0 16 -6 23 -12 47 -45 137 -68 267 -68 123 0 189 14 243 51 14 11 31
19 37 19 26 0 140 130 173 197 l33 68 0 157 c0 112 -4 161 -12 170 -7 6 -13
20 -13 30 0 10 -4 18 -9 18 -5 0 -12 11 -15 25 -4 14 -11 25 -16 25 -6 0 -10
5 -10 10 0 14 -96 110 -110 110 -5 0 -10 4 -10 10 0 5 -11 12 -25 16 -14 3
-25 10 -25 15 0 5 -9 9 -19 9 -11 0 -21 5 -23 10 -2 6 -33 13 -71 17 -37 3
-67 10 -67 14 0 12 -107 12 -114 0z"/>
<path d="M3505 4639 c-60 -5 -173 -13 -250 -19 -77 -6 -183 -13 -235 -16 -64
-3 -98 -9 -106 -19 -13 -17 -176 -23 -878 -31 -495 -5 -500 -5 -568 17 -136
43 -271 9 -363 -93 -25 -27 -45 -56 -45 -64 0 -8 -4 -14 -9 -14 -21 0 -41
-224 -22 -243 6 -6 11 -21 11 -34 0 -13 3 -23 8 -23 4 0 13 -13 20 -29 19 -42
81 -101 132 -124 82 -37 148 -47 210 -33 69 17 129 42 152 64 42 41 50 43 196
52 81 5 463 10 849 10 l702 0 41 -85 c22 -47 40 -90 40 -95 0 -6 -41 -10 -98
-10 -54 0 -102 -4 -108 -9 -5 -6 -122 -11 -271 -12 -250 -1 -263 -1 -291 19
-40 29 -105 45 -177 45 -63 0 -155 -21 -155 -35 0 -4 -6 -8 -14 -8 -8 0 -36
-21 -62 -47 -54 -54 -104 -154 -104 -208 l0 -35 -1043 -2 -1042 -3 0 -60 0
-60 1052 -5 1052 -5 29 -46 c33 -52 80 -99 99 -99 7 0 13 -3 13 -8 0 -4 19
-16 42 -26 35 -15 62 -17 153 -14 113 4 133 10 184 56 14 12 36 22 48 22 13 0
23 5 23 10 0 6 91 10 254 10 159 0 257 4 261 10 4 6 56 10 124 10 l117 0 12
-52 c7 -29 15 -65 19 -80 3 -16 9 -28 14 -28 5 0 9 -10 9 -23 0 -13 4 -27 9
-32 4 -6 11 -25 14 -42 l7 -33 -1770 0 -1770 0 0 -55 0 -55 1789 0 1789 0 6
-22 c14 -55 7 -66 -120 -193 l-127 -125 -1666 -2 -1666 -3 0 -55 0 -55 1603
-5 1602 -5 -660 -660 c-437 -436 -660 -667 -660 -680 0 -13 58 -79 158 -178
133 -132 162 -157 187 -157 26 0 123 94 797 767 l768 768 0 -117 c0 -67 -4
-119 -10 -123 -5 -3 -10 -42 -10 -85 0 -84 0 -85 98 -236 6 -10 15 -26 19 -34
4 -8 15 -22 25 -31 10 -9 18 -20 18 -24 0 -4 18 -36 40 -71 22 -35 40 -68 40
-73 0 -5 4 -11 8 -13 5 -1 60 -84 122 -183 62 -99 120 -189 130 -200 9 -11 26
-36 36 -55 10 -19 21 -37 24 -40 15 -15 90 -132 90 -140 0 -6 4 -10 8 -10 5 0
18 -17 30 -39 28 -50 150 -181 168 -181 8 0 14 -4 14 -10 0 -5 18 -10 39 -10
47 0 49 5 86 165 7 33 19 78 25 100 6 22 16 67 22 100 6 33 12 62 14 64 2 2
17 -7 33 -19 56 -39 93 -3 51 50 -55 69 -177 250 -216 320 -6 11 -18 28 -26
37 -8 10 -66 99 -128 198 -62 99 -116 182 -120 185 -4 3 -10 15 -14 28 -4 12
-12 22 -17 22 -5 0 -9 5 -9 10 0 14 -70 124 -81 128 -13 5 -11 252 1 252 6 0
10 37 10 90 l0 90 638 2 637 3 0 55 0 55 -629 3 -628 2 6 113 c3 61 9 138 12
169 l6 58 616 2 617 3 3 53 3 52 -649 0 -650 0 -6 35 c-4 19 -11 35 -16 35 -6
0 -10 7 -10 15 0 8 -4 23 -9 33 -41 77 -91 187 -91 198 0 8 -4 14 -10 14 -5 0
-10 9 -10 20 0 20 8 20 723 22 l722 3 0 60 0 60 -757 3 -757 2 -41 88 c-23 48
-50 105 -60 127 -10 22 -34 74 -54 116 -20 41 -39 92 -43 112 -3 20 -10 37
-14 37 -5 0 -9 11 -9 25 0 14 -4 25 -9 25 -5 0 -11 18 -15 40 -3 23 -10 49
-15 58 -5 9 -13 28 -18 42 -6 14 -15 36 -21 50 -6 14 -14 41 -18 60 -3 19 -10
42 -15 52 -5 10 -13 26 -18 37 -5 10 -13 35 -16 55 -4 20 -11 39 -16 42 -5 3
-9 16 -9 30 0 13 -4 24 -10 24 -5 0 -10 9 -10 21 0 28 -24 49 -52 47 -13 -1
-72 -5 -133 -9z"/>
</g>
</svg>
