<?xml version="1.0" standalone="no"?>
<!DOCTYPE svg PUBLIC "-//W3C//DTD SVG 20010904//EN"
 "http://www.w3.org/TR/2001/REC-SVG-20010904/DTD/svg10.dtd">
<svg version="1.0" xmlns="http://www.w3.org/2000/svg"
 width="650.000000pt" height="650.000000pt" viewBox="0 0 650.000000 650.000000"
 preserveAspectRatio="xMidYMid meet">
<metadata>
Created by potrace 1.15, written by Peter Selinger 2001-2017
</metadata>
<g transform="translate(0.000000,650.000000) scale(0.100000,-0.100000)"
fill="#000000" stroke="none">
<path d="M4306 5499 c-94 -27 -189 -85 -262 -161 -253 -263 -179 -712 143
-873 128 -64 147 -68 278 -68 98 0 160 8 180 23 6 4 23 10 38 14 47 11 165 95
215 153 183 211 188 503 13 723 -20 25 -39 46 -43 48 -4 2 -24 19 -45 37 -120
108 -343 152 -517 104z"/>
<path d="M2210 4384 c-50 -27 -88 -67 -127 -134 -15 -25 -113 -183 -220 -352
-106 -169 -193 -312 -193 -318 0 -5 -4 -10 -8 -10 -5 0 -21 -21 -36 -47 -41
-72 -64 -110 -122 -198 -76 -117 -88 -174 -58 -274 18 -61 89 -138 135 -148
16 -3 29 -9 29 -14 0 -12 147 -12 154 0 3 4 18 11 34 14 38 8 88 59 141 144
153 245 384 613 400 638 11 17 26 41 33 55 8 14 33 54 56 91 l42 65 82 -8 c46
-5 153 -13 238 -19 85 -5 211 -13 280 -18 69 -5 142 -9 163 -10 40 -1 49 -18
22 -45 -8 -8 -15 -19 -15 -24 0 -6 -3 -12 -7 -14 -8 -3 -84 -114 -92 -133 -2
-5 -12 -18 -23 -29 -10 -11 -18 -26 -18 -33 0 -7 -4 -13 -10 -13 -5 0 -12 -11
-16 -25 -3 -14 -9 -25 -14 -25 -4 0 -15 -16 -26 -35 -10 -19 -22 -35 -26 -35
-5 0 -8 -7 -8 -15 0 -8 -3 -15 -8 -15 -4 0 -16 -16 -26 -35 -11 -19 -22 -35
-26 -35 -4 0 -10 -8 -14 -17 -7 -21 -25 -50 -48 -77 -10 -11 -20 -28 -24 -38
-3 -10 -10 -18 -15 -18 -5 0 -9 -4 -9 -9 0 -11 -122 -195 -132 -199 -5 -2 -8
-7 -8 -12 0 -11 -82 -134 -92 -138 -5 -2 -8 -10 -8 -17 0 -7 -3 -15 -7 -17
-12 -5 -113 -156 -113 -168 0 -5 -3 -10 -7 -10 -5 0 -21 -23 -38 -50 -16 -28
-33 -50 -37 -50 -4 0 -8 -6 -8 -14 0 -8 -6 -21 -12 -28 -17 -17 -31 -51 -53
-123 -10 -33 -22 -64 -25 -70 -4 -5 -15 -37 -24 -70 -10 -33 -22 -69 -26 -80
-5 -11 -17 -45 -26 -75 -8 -30 -20 -64 -25 -75 -5 -11 -22 -60 -38 -108 -16
-49 -32 -91 -35 -94 -3 -4 -6 -17 -6 -29 0 -13 -4 -25 -9 -28 -5 -3 -12 -23
-16 -43 -4 -21 -10 -42 -14 -48 -4 -5 -20 -50 -35 -100 -15 -49 -29 -95 -31
-101 -2 -6 -20 -19 -42 -28 -21 -9 -69 -33 -106 -52 -37 -19 -75 -34 -82 -34
-8 0 -15 -3 -15 -8 0 -4 -15 -13 -32 -21 -18 -7 -69 -30 -113 -51 -44 -20 -95
-43 -112 -51 -18 -8 -33 -17 -33 -21 0 -5 -4 -8 -10 -8 -17 0 -90 -34 -90 -42
0 -5 -7 -8 -15 -8 -7 0 -45 -15 -82 -34 -102 -52 -242 -116 -253 -116 -6 0
-10 -3 -10 -8 0 -8 -73 -42 -90 -42 -6 0 -10 -4 -10 -10 0 -5 -9 -10 -20 -10
-11 0 -20 -4 -20 -8 0 -5 -18 -14 -40 -21 -42 -13 -116 -78 -140 -125 -21 -41
-20 -180 2 -226 40 -84 134 -140 235 -140 59 0 61 1 241 87 72 34 137 63 142
63 6 0 10 5 10 10 0 6 9 10 20 10 11 0 20 5 20 10 0 6 5 10 11 10 10 0 84 32
189 83 25 12 47 25 48 30 2 4 10 7 18 7 8 0 35 11 62 24 26 14 74 37 107 52
33 16 62 32 63 36 2 4 10 8 17 8 8 0 38 12 67 27 30 16 70 34 91 42 20 8 37
18 37 23 0 4 4 8 10 8 5 0 49 18 97 41 130 60 138 64 143 69 3 3 19 12 35 21
45 25 87 93 119 194 16 50 33 99 37 110 5 11 22 61 38 110 96 289 223 663 230
680 5 11 12 33 16 50 8 36 96 175 111 175 6 0 44 -32 85 -71 41 -39 114 -107
162 -152 48 -45 137 -130 198 -188 l109 -105 0 -257 c0 -140 4 -258 9 -261 4
-3 11 -218 15 -478 7 -474 16 -636 42 -694 17 -39 89 -114 109 -114 8 0 15 -4
15 -10 0 -15 185 -13 213 3 78 43 137 116 137 169 0 10 5 27 12 38 10 15 10
29 0 65 -8 30 -12 129 -12 287 0 133 -4 255 -10 272 -5 17 -14 258 -20 536
-10 515 -17 661 -28 670 -4 3 -15 21 -26 40 -19 36 -28 45 -231 234 -233 216
-310 291 -313 303 -3 13 245 415 260 421 5 2 8 8 8 13 0 9 48 87 60 99 3 3 14
22 25 43 11 20 23 37 27 37 5 0 8 5 8 10 0 6 16 33 35 60 19 27 35 55 35 61 0
23 23 1 49 -46 26 -48 61 -112 219 -410 71 -133 115 -190 167 -214 17 -7 38
-17 47 -22 41 -21 127 -10 202 26 41 19 79 35 85 35 6 0 11 5 11 10 0 6 9 10
20 10 11 0 20 5 20 10 0 6 5 10 11 10 6 0 49 18 95 40 47 22 89 40 94 40 6 0
10 5 10 10 0 6 9 10 20 10 11 0 20 5 20 10 0 6 6 10 13 10 6 0 57 23 111 50
55 28 106 50 113 50 7 0 13 5 13 10 0 6 6 10 13 10 6 0 48 18 92 40 44 22 86
40 93 40 6 0 12 5 12 10 0 6 7 10 15 10 8 0 15 4 15 9 0 5 16 12 35 15 19 4
35 10 35 14 0 4 19 15 43 25 23 10 54 24 70 30 15 7 27 15 27 19 0 5 4 8 10 8
18 0 61 45 76 80 9 19 20 43 25 52 12 24 12 145 -1 153 -5 3 -10 15 -10 26 0
10 -4 19 -10 19 -5 0 -10 6 -10 14 0 24 -56 76 -89 82 -17 4 -31 10 -31 15 0
5 -43 9 -95 9 -57 0 -95 -4 -95 -10 0 -5 -7 -10 -16 -10 -9 0 -44 -13 -78 -29
-33 -15 -76 -35 -93 -42 -18 -8 -33 -17 -33 -21 0 -5 -6 -8 -12 -8 -16 0 -122
-53 -126 -62 -2 -5 -9 -8 -16 -8 -7 0 -48 -17 -92 -39 -43 -21 -94 -44 -111
-52 -18 -8 -33 -17 -33 -20 0 -4 -16 -10 -35 -13 -19 -4 -35 -10 -35 -14 0 -4
-15 -13 -32 -21 -67 -28 -103 -45 -108 -50 -3 -4 -15 -12 -27 -18 -27 -15 -16
-30 -113 152 -29 55 -68 129 -87 165 -20 36 -57 106 -83 155 -26 50 -56 106
-67 125 -11 19 -40 73 -64 120 -24 47 -46 87 -49 90 -4 3 -15 25 -27 50 -11
25 -38 64 -58 88 -35 39 -51 49 -126 80 -15 6 -114 14 -220 18 -107 3 -199 10
-204 15 -6 4 -58 10 -115 13 -58 3 -157 10 -220 15 -63 5 -212 15 -330 21
-118 6 -223 16 -232 21 -10 5 -75 9 -145 8 -116 0 -132 -3 -173 -25z"/>
</g>
</svg>
