<?xml version="1.0" standalone="no"?>
<!DOCTYPE svg PUBLIC "-//W3C//DTD SVG 20010904//EN"
 "http://www.w3.org/TR/2001/REC-SVG-20010904/DTD/svg10.dtd">
<svg version="1.0" xmlns="http://www.w3.org/2000/svg"
 width="650.000000pt" height="650.000000pt" viewBox="0 0 650.000000 650.000000"
 preserveAspectRatio="xMidYMid meet">
<metadata>
Created by potrace 1.15, written by Peter Selinger 2001-2017
</metadata>
<g transform="translate(0.000000,650.000000) scale(0.100000,-0.100000)"
fill="#000000" stroke="none">
<path d="M3945 6471 c-56 -29 -85 -51 -132 -99 -66 -67 -91 -113 -132 -243
-14 -46 -14 -152 0 -198 29 -92 64 -163 102 -208 48 -57 143 -125 202 -144 22
-7 45 -17 52 -22 17 -12 263 -11 276 2 6 6 18 11 27 11 31 0 140 62 183 103
252 244 191 642 -121 800 -53 26 -57 27 -230 26 -171 -1 -179 -2 -227 -28z"/>
<path d="M3871 5403 c-44 -22 -90 -69 -318 -328 -39 -44 -88 -99 -109 -122
-22 -22 -64 -69 -94 -103 -30 -34 -68 -76 -85 -94 -16 -19 -55 -62 -85 -96
-30 -34 -82 -91 -115 -127 -33 -36 -76 -84 -95 -106 -19 -22 -56 -63 -82 -91
-25 -28 -59 -65 -75 -83 -15 -17 -58 -65 -95 -105 -103 -113 -148 -171 -148
-190 0 -10 -4 -18 -10 -18 -5 0 -10 -13 -10 -29 0 -17 -4 -32 -10 -36 -5 -3
-12 -32 -16 -65 -4 -33 -11 -60 -15 -60 -5 0 -9 -16 -9 -35 0 -19 -4 -35 -9
-35 -5 0 -13 -29 -16 -65 -4 -36 -11 -65 -16 -65 -5 0 -9 -13 -9 -29 0 -17 -4
-32 -9 -35 -5 -3 -11 -20 -14 -38 -13 -77 -33 -157 -39 -164 -5 -4 -8 -20 -8
-35 0 -15 -4 -30 -10 -34 -5 -3 -12 -32 -16 -65 -4 -33 -11 -60 -15 -60 -5 0
-9 -16 -9 -35 0 -19 -4 -35 -9 -35 -4 0 -11 -20 -13 -45 -6 -50 -32 -93 -103
-170 -25 -28 -60 -67 -78 -88 -18 -22 -51 -59 -74 -83 -23 -24 -58 -64 -78
-89 -21 -24 -58 -67 -83 -94 -26 -28 -63 -68 -82 -91 -19 -23 -48 -56 -65 -74
-57 -62 -163 -181 -191 -216 -16 -19 -47 -55 -70 -80 -23 -25 -65 -73 -95
-106 -30 -34 -85 -96 -124 -139 -38 -42 -85 -102 -104 -131 -31 -49 -34 -62
-34 -128 0 -86 25 -141 94 -200 48 -41 95 -51 201 -44 82 6 104 21 217 149
114 129 214 241 231 257 8 9 26 30 40 47 29 37 144 167 180 204 14 14 50 55
80 90 30 36 69 79 85 95 17 17 46 51 66 76 20 25 56 66 80 91 24 26 64 70 89
99 25 28 56 64 70 80 102 112 142 158 157 180 9 14 20 27 23 30 11 9 29 63 35
105 4 22 10 49 14 60 20 49 32 97 38 144 3 28 10 51 14 51 5 0 9 16 9 35 0 19
5 35 10 35 6 0 10 13 10 29 0 17 4 32 9 35 5 3 12 33 16 66 4 33 11 63 16 66
5 3 9 18 9 34 0 16 4 31 9 34 5 4 12 28 16 55 l7 49 24 -21 c13 -11 24 -26 24
-32 0 -6 11 -22 25 -35 14 -13 25 -27 25 -32 0 -5 19 -32 43 -61 23 -30 67
-88 97 -131 47 -66 85 -119 117 -161 5 -6 21 -28 37 -49 l30 -39 7 -281 c32
-1170 32 -1174 62 -1234 43 -86 134 -142 234 -142 86 0 182 54 214 122 9 18
22 45 28 59 9 19 11 73 6 205 -19 537 -25 723 -34 1058 -6 226 -14 373 -21
380 -5 5 -10 18 -10 28 0 10 -4 18 -10 18 -5 0 -10 5 -10 11 0 10 -41 69 -67
97 -7 7 -13 16 -13 20 0 4 -10 19 -23 34 -12 15 -47 61 -77 104 -30 42 -73
101 -95 130 -22 29 -50 68 -63 86 -13 18 -57 78 -98 133 -40 55 -74 104 -74
108 0 5 20 29 44 55 24 26 57 63 73 83 15 19 40 47 56 63 l27 27 0 -84 c0
-167 32 -249 129 -331 25 -21 98 -89 162 -150 129 -124 293 -275 354 -327 22
-19 42 -37 43 -42 4 -7 162 -141 221 -187 43 -33 62 -38 146 -39 70 -1 70 -1
40 -17 -50 -26 -134 -93 -152 -122 -10 -15 -24 -33 -31 -41 -7 -7 -22 -34 -33
-60 -12 -25 -25 -54 -30 -63 -5 -10 -9 -30 -9 -45 0 -16 -4 -43 -9 -60 -9 -32
2 -145 19 -188 23 -58 61 -136 77 -156 54 -67 146 -139 178 -139 8 0 15 -4 15
-10 0 -5 8 -10 18 -10 10 0 24 -6 30 -13 18 -17 306 -17 323 1 7 6 23 12 36
12 13 0 23 4 23 8 0 4 15 14 34 20 43 16 173 143 182 177 3 14 10 25 15 25 5
0 9 8 9 18 0 10 3 22 7 26 4 3 13 23 20 44 15 44 18 258 3 267 -5 3 -10 17
-10 31 0 13 -4 24 -10 24 -5 0 -10 6 -10 14 0 30 -38 84 -107 154 -40 39 -80
72 -88 72 -8 0 -15 4 -15 8 0 11 -90 42 -122 42 -16 0 -28 5 -28 10 0 6 -38
10 -95 10 -57 0 -95 -4 -95 -10 0 -5 -12 -10 -27 -9 -16 0 -22 3 -14 6 24 10
81 65 81 80 0 7 4 13 9 13 10 0 31 86 31 129 0 15 -7 51 -16 80 -15 53 -68
116 -139 166 -15 11 -44 36 -64 55 -20 19 -54 50 -76 69 -62 53 -218 196 -322
296 -52 50 -114 108 -138 130 l-43 40 -6 145 c-3 80 -8 191 -12 246 l-6 101
113 212 114 211 95 -6 c52 -4 99 -10 105 -15 5 -5 37 -9 71 -9 35 0 65 -4 68
-9 3 -5 62 -12 131 -16 69 -4 128 -11 131 -16 3 -5 34 -9 69 -9 35 0 67 -4 70
-10 3 -5 30 -10 58 -10 109 0 135 -16 285 -171 75 -78 207 -214 292 -302 329
-337 315 -327 433 -327 52 0 85 6 113 19 45 22 110 88 124 127 16 40 12 182
-5 218 -16 34 -67 89 -395 426 -476 491 -464 480 -543 480 -20 0 -39 5 -42 10
-3 6 -35 10 -70 10 -35 0 -66 4 -69 9 -3 5 -62 12 -131 16 -69 4 -128 11 -131
16 -3 5 -33 9 -68 9 -34 0 -66 4 -71 9 -6 5 -37 12 -70 15 -245 21 -325 31
-325 38 0 4 -28 8 -63 8 -35 0 -67 4 -73 10 -5 5 -84 12 -174 15 -146 5 -169
4 -199 -12z"/>
</g>
</svg>
