<?xml version="1.0" standalone="no"?>
<!DOCTYPE svg PUBLIC "-//W3C//DTD SVG 20010904//EN"
 "http://www.w3.org/TR/2001/REC-SVG-20010904/DTD/svg10.dtd">
<svg version="1.0" xmlns="http://www.w3.org/2000/svg"
 width="650.000000pt" height="650.000000pt" viewBox="0 0 650.000000 650.000000"
 preserveAspectRatio="xMidYMid meet">
<metadata>
Created by potrace 1.15, written by Peter Selinger 2001-2017
</metadata>
<g transform="translate(0.000000,650.000000) scale(0.100000,-0.100000)"
fill="#000000" stroke="none">
<path d="M3420 6180 c-8 -5 -25 -10 -38 -10 -12 0 -30 -4 -40 -9 -9 -4 -43
-20 -75 -35 -69 -31 -73 -35 -146 -106 -69 -68 -82 -85 -104 -135 -10 -22 -22
-48 -27 -57 -6 -10 -10 -29 -10 -42 0 -14 -4 -28 -10 -31 -6 -4 -10 -60 -10
-135 0 -75 4 -131 10 -135 6 -3 10 -17 10 -30 0 -13 4 -26 9 -30 5 -3 12 -19
16 -35 4 -17 11 -30 16 -30 5 0 9 -7 9 -15 0 -18 19 -42 91 -117 31 -32 61
-58 68 -58 6 0 11 -3 11 -7 0 -11 58 -43 76 -43 8 0 14 -4 14 -10 0 -5 11 -10
24 -10 13 0 26 -6 28 -12 4 -10 49 -13 181 -13 127 0 179 3 188 13 7 6 21 12
31 12 10 0 18 5 18 10 0 6 8 10 18 10 15 0 68 31 110 65 74 58 156 173 178
247 9 29 20 63 25 76 12 29 12 204 0 234 -5 13 -17 48 -26 78 -20 61 -82 157
-133 208 -61 58 -166 122 -204 122 -10 0 -18 5 -18 10 0 6 -15 10 -34 10 -19
0 -38 5 -41 10 -8 13 -195 13 -215 0z"/>
<path d="M1417 5100 c-66 -12 -156 -40 -192 -62 -16 -10 -37 -21 -45 -25 -36
-16 -155 -143 -185 -198 -90 -162 -88 -387 3 -547 61 -106 215 -233 307 -253
17 -4 39 -10 50 -15 39 -15 150 -27 185 -19 19 5 52 9 72 9 20 0 39 4 42 9 3
5 22 12 41 15 109 21 261 158 327 295 41 84 42 89 46 207 3 94 0 134 -13 180
-49 169 -172 301 -350 375 -33 14 -172 39 -207 38 -18 -1 -55 -5 -81 -9z"/>
<path d="M4090 4904 c-8 -4 -55 -24 -105 -46 -49 -22 -108 -48 -130 -58 -22
-9 -78 -34 -125 -55 -47 -20 -118 -52 -158 -71 -40 -19 -75 -34 -77 -34 -2 0
-47 -20 -99 -45 -53 -25 -98 -45 -100 -45 -6 0 -119 -51 -213 -96 -39 -19 -75
-34 -79 -34 -4 0 -30 -11 -58 -24 -28 -13 -76 -35 -106 -49 -30 -13 -75 -33
-100 -44 -42 -19 -95 -43 -180 -80 -19 -9 -72 -33 -117 -54 -46 -22 -85 -39
-88 -39 -5 0 -85 -36 -192 -86 -40 -19 -75 -34 -78 -34 -6 0 -53 -21 -183 -81
-45 -22 -86 -39 -90 -39 -15 0 -62 -25 -62 -32 0 -5 -8 -8 -18 -8 -50 0 -152
-109 -152 -162 0 -15 -4 -30 -10 -33 -21 -13 -4 -112 32 -179 20 -37 92 -95
135 -107 71 -20 158 -8 253 35 47 21 105 48 130 58 25 11 78 36 118 54 40 19
76 34 80 34 4 0 29 11 57 25 59 28 385 175 390 175 2 0 47 20 99 45 53 25 98
45 101 45 2 0 28 11 57 24 29 13 100 45 158 71 101 45 147 66 235 106 22 10
65 29 97 43 l56 24 6 -31 c3 -18 13 -79 21 -137 9 -58 20 -130 25 -160 5 -30
16 -102 25 -160 8 -58 20 -131 25 -162 21 -124 30 -177 45 -278 18 -113 30
-185 41 -237 8 -42 -2 -83 -21 -83 -8 0 -15 -4 -15 -9 0 -5 -13 -12 -30 -16
-16 -4 -30 -11 -30 -16 0 -5 -6 -9 -14 -9 -8 0 -16 -3 -18 -7 -1 -5 -21 -17
-43 -28 -22 -11 -42 -22 -45 -25 -4 -4 -38 -24 -95 -54 -11 -6 -22 -13 -25
-16 -5 -5 -46 -27 -125 -69 -27 -14 -55 -31 -62 -37 -7 -7 -34 -22 -60 -35
-26 -12 -50 -26 -53 -29 -3 -4 -23 -15 -45 -26 -22 -10 -42 -20 -45 -23 -3 -4
-14 -11 -25 -17 -105 -57 -359 -201 -395 -223 -14 -9 -43 -25 -65 -37 -22 -11
-125 -70 -230 -129 -104 -60 -219 -125 -255 -145 -36 -20 -121 -68 -190 -107
-69 -39 -142 -80 -162 -91 -20 -12 -55 -32 -77 -46 -22 -15 -42 -26 -45 -26
-2 0 -57 -31 -122 -68 -104 -60 -187 -107 -259 -146 -11 -6 -43 -34 -71 -62
-40 -40 -54 -62 -64 -103 -21 -89 3 -183 63 -250 37 -40 120 -71 190 -71 74 1
91 9 427 202 216 125 236 136 295 168 28 14 133 74 235 132 212 121 250 142
305 173 87 48 291 164 405 230 36 21 84 49 108 62 23 12 61 34 85 46 23 13 71
41 107 62 36 21 83 48 105 60 22 12 69 38 103 58 35 21 68 37 73 37 5 0 9 4 9
8 0 4 12 13 28 19 15 7 41 20 57 30 151 90 198 117 255 145 25 12 47 24 50 27
8 10 84 52 103 58 9 3 17 9 17 14 0 5 6 9 13 9 16 0 130 78 136 93 6 17 31
-66 31 -105 0 -20 4 -39 9 -42 5 -4 12 -49 16 -101 4 -52 11 -98 16 -101 5 -3
9 -24 9 -48 0 -23 3 -46 8 -50 6 -7 15 -63 38 -246 3 -25 10 -49 15 -54 5 -6
9 -31 9 -57 0 -26 4 -50 9 -53 4 -3 11 -43 15 -88 11 -123 37 -196 91 -250 52
-52 97 -68 218 -79 62 -6 148 -14 192 -19 44 -5 161 -16 260 -25 99 -9 218
-20 265 -26 120 -13 242 -25 410 -38 80 -7 165 -16 190 -22 25 -5 104 -10 175
-12 118 -2 134 0 172 20 23 13 57 42 77 66 l36 44 0 120 0 120 -40 45 c-59 68
-107 86 -242 94 -62 3 -122 10 -133 14 -11 5 -54 12 -95 14 -41 3 -118 9 -170
15 -52 5 -149 14 -215 20 -144 13 -204 19 -310 31 -44 4 -151 14 -237 21 -179
14 -162 2 -173 124 -4 39 -10 79 -15 90 -5 11 -11 38 -13 60 -4 43 -22 158
-37 240 -16 88 -40 228 -50 290 -9 57 -31 186 -51 305 -17 97 -49 290 -75 450
-14 85 -29 175 -34 200 -5 25 -16 92 -25 150 -9 58 -20 125 -25 150 -4 25 -16
92 -25 150 -10 58 -21 125 -26 150 -10 54 -15 86 -35 210 -13 87 -23 143 -39
225 -4 17 -10 58 -15 93 -16 107 -63 177 -146 217 -39 19 -154 30 -184 19z"/>
</g>
</svg>
