<?xml version="1.0" standalone="no"?>
<!DOCTYPE svg PUBLIC "-//W3C//DTD SVG 20010904//EN"
 "http://www.w3.org/TR/2001/REC-SVG-20010904/DTD/svg10.dtd">
<svg version="1.0" xmlns="http://www.w3.org/2000/svg"
 width="650.000000pt" height="650.000000pt" viewBox="0 0 650.000000 650.000000"
 preserveAspectRatio="xMidYMid meet">
<metadata>
Created by potrace 1.15, written by Peter Selinger 2001-2017
</metadata>
<g transform="translate(0.000000,650.000000) scale(0.100000,-0.100000)"
fill="#000000" stroke="none">
<path d="M725 6437 c-78 -45 -115 -109 -115 -198 0 -33 4 -59 10 -59 6 0 10
-8 10 -17 0 -17 117 -134 398 -401 68 -64 186 -178 263 -252 76 -74 187 -181
246 -237 59 -56 151 -144 204 -195 53 -51 130 -125 171 -163 l75 -70 5 -88 c3
-49 11 -94 17 -100 6 -6 11 -21 11 -33 0 -13 5 -26 10 -29 5 -3 10 -15 10 -25
0 -19 22 -94 40 -135 4 -11 16 -47 25 -80 25 -87 38 -129 46 -140 3 -5 10 -27
13 -49 4 -21 11 -46 16 -55 4 -9 14 -29 21 -46 19 -41 84 -104 125 -121 40
-17 157 -17 199 -1 26 11 182 97 270 150 17 10 42 23 58 30 15 6 27 15 27 19
0 4 5 8 10 8 6 0 29 12 51 26 23 14 43 23 46 21 8 -9 -10 -537 -18 -537 -5 0
-9 -64 -9 -142 0 -164 -13 -217 -54 -232 -14 -6 -26 -13 -26 -18 0 -4 -9 -8
-20 -8 -11 0 -20 -4 -20 -10 0 -5 -4 -10 -10 -10 -17 0 -90 -34 -90 -42 0 -5
-4 -8 -10 -8 -17 0 -90 -34 -90 -42 0 -5 -6 -8 -14 -8 -8 0 -47 -17 -88 -37
-40 -21 -90 -44 -111 -52 -20 -8 -37 -18 -37 -23 0 -4 -6 -8 -12 -8 -7 0 -103
-45 -213 -100 -201 -100 -236 -126 -273 -195 -27 -49 -22 -164 10 -265 15 -47
37 -119 49 -160 12 -41 26 -79 30 -85 3 -5 10 -28 13 -51 8 -45 29 -110 39
-120 4 -4 7 -15 7 -25 0 -16 24 -103 40 -144 4 -11 15 -49 25 -85 9 -36 21
-73 26 -82 5 -10 9 -27 9 -37 0 -11 5 -23 10 -26 6 -3 10 -16 11 -28 1 -35 32
-119 58 -157 55 -82 165 -123 266 -101 75 17 133 63 170 135 38 76 39 140 1
256 -29 91 -65 211 -91 300 -9 30 -20 64 -25 75 -4 11 -16 52 -25 90 -10 39
-22 74 -26 80 -5 5 -9 17 -9 26 0 9 -10 48 -23 88 l-23 71 28 12 c15 7 28 16
28 20 0 5 5 8 11 8 11 0 155 65 204 92 11 6 27 14 35 18 85 40 136 66 140 71
3 4 20 10 38 14 17 3 32 10 32 13 0 8 74 42 90 42 6 0 10 5 10 10 0 6 9 10 20
10 11 0 20 5 20 10 0 6 7 10 15 10 8 0 15 4 15 9 0 5 16 12 35 15 19 4 35 10
35 14 0 8 74 42 90 42 6 0 10 5 10 11 0 6 6 5 14 -3 8 -7 53 -49 101 -93 48
-44 115 -107 149 -140 34 -33 98 -91 141 -130 44 -38 100 -90 125 -115 25 -25
66 -62 91 -84 24 -21 83 -75 131 -120 47 -44 126 -117 174 -161 49 -44 113
-103 144 -131 30 -28 73 -66 95 -85 22 -19 69 -61 105 -95 36 -33 73 -67 83
-75 10 -8 30 -26 45 -40 37 -35 287 -247 342 -290 107 -83 130 -93 214 -97 96
-5 143 8 189 51 71 66 82 92 82 192 0 83 -3 93 -30 135 -38 57 -42 61 -90 90
-22 13 -44 29 -50 35 -5 6 -32 29 -60 50 -27 22 -59 49 -70 61 -11 11 -27 25
-36 30 -9 5 -44 34 -76 64 -52 48 -99 89 -212 188 -32 28 -237 215 -327 298
-17 16 -45 40 -62 54 -17 14 -71 64 -120 110 -98 94 -280 263 -327 304 -16 15
-62 57 -100 94 -39 37 -103 96 -143 132 l-72 65 4 120 c25 684 26 689 51 710
45 39 118 100 159 136 22 20 52 44 65 55 68 54 105 92 129 133 23 39 27 58 27
121 0 64 -4 82 -27 121 -45 77 -83 102 -214 143 -66 21 -144 46 -174 56 -30 9
-82 25 -115 35 -117 34 -130 38 -147 46 -9 5 -35 12 -58 15 -22 4 -43 11 -46
15 -7 13 -214 11 -214 -1 0 -5 -5 -10 -11 -10 -14 0 -82 -31 -89 -41 -5 -6
-52 -32 -245 -134 -44 -23 -120 -64 -168 -90 -49 -26 -90 -45 -91 -43 -2 1
-16 41 -31 88 -77 240 -87 265 -121 301 -19 19 -50 42 -69 49 -19 8 -35 17
-35 22 0 4 -38 8 -85 8 -50 0 -85 -4 -85 -10 0 -5 -9 -10 -20 -10 -11 0 -20
-4 -20 -10 0 -5 -9 -10 -20 -10 -11 0 -20 4 -20 8 0 8 -30 45 -133 166 -23 27
-52 63 -64 79 -13 17 -26 33 -30 36 -5 3 -28 31 -53 61 -64 78 -80 97 -125
150 -22 26 -52 62 -67 81 -49 63 -83 105 -105 130 -23 24 -95 109 -123 145
-33 42 -106 130 -125 150 -11 12 -27 31 -35 42 -8 10 -33 40 -55 67 -63 75
-108 130 -130 158 -50 63 -119 129 -163 155 -27 15 -110 14 -137 -1z"/>
<path d="M3775 5930 c-3 -5 -19 -10 -36 -10 -16 0 -29 -4 -29 -10 0 -5 -7 -10
-15 -10 -20 0 -85 -32 -85 -42 0 -4 -6 -8 -13 -8 -26 0 -123 -117 -162 -195
l-39 -80 -1 -127 c0 -89 4 -131 13 -139 6 -7 12 -20 12 -29 0 -21 23 -70 33
-70 4 0 7 -6 7 -14 0 -8 12 -27 28 -44 15 -16 34 -38 43 -48 21 -23 69 -64 75
-64 3 0 22 -11 42 -25 20 -14 47 -25 59 -25 13 0 23 -4 23 -10 0 -5 20 -10 45
-10 26 0 45 -5 45 -11 0 -17 214 3 226 22 3 5 12 9 20 9 20 0 94 33 94 42 0 5
5 8 10 8 14 0 30 13 90 73 48 48 110 153 110 187 0 10 5 22 10 25 14 9 13 217
-1 252 -7 15 -18 44 -26 63 -29 72 -39 87 -104 152 -64 65 -130 105 -230 137
-44 14 -235 15 -244 1z"/>
<path d="M5183 4285 c-48 -20 -132 -109 -139 -145 -4 -17 -11 -33 -15 -36 -5
-3 -9 -38 -9 -79 0 -41 4 -76 9 -79 4 -3 11 -19 14 -35 11 -52 71 -113 145
-147 41 -19 70 -24 132 -24 47 0 80 4 80 10 0 6 8 10 18 10 22 0 80 35 112 69
52 53 62 93 58 214 -2 76 -7 112 -16 115 -6 2 -12 8 -12 13 0 19 -74 89 -115
109 -51 25 -210 28 -262 5z"/>
</g>
</svg>
