<?xml version="1.0" standalone="no"?>
<!DOCTYPE svg PUBLIC "-//W3C//DTD SVG 20010904//EN"
 "http://www.w3.org/TR/2001/REC-SVG-20010904/DTD/svg10.dtd">
<svg version="1.0" xmlns="http://www.w3.org/2000/svg"
 width="650.000000pt" height="650.000000pt" viewBox="0 0 650.000000 650.000000"
 preserveAspectRatio="xMidYMid meet">
<metadata>
Created by potrace 1.15, written by Peter Selinger 2001-2017
</metadata>
<g transform="translate(0.000000,650.000000) scale(0.100000,-0.100000)"
fill="#000000" stroke="none">
<path d="M1101 6230 c-59 -13 -164 -63 -214 -102 -62 -49 -97 -84 -97 -97 0
-6 -4 -11 -9 -11 -11 0 -81 -138 -81 -161 0 -10 -4 -21 -10 -24 -6 -4 -10 -58
-10 -130 0 -72 4 -126 10 -130 6 -3 10 -17 10 -30 0 -13 5 -27 10 -30 6 -3 10
-15 10 -25 0 -10 3 -20 8 -22 4 -1 16 -20 26 -40 52 -102 194 -210 323 -243
71 -19 221 -19 288 -1 94 25 220 101 263 158 7 9 18 23 25 30 7 7 22 29 33 48
10 19 21 37 24 40 18 18 32 60 37 106 3 30 10 54 14 54 5 0 9 38 9 85 0 47 -4
85 -9 85 -4 0 -11 26 -14 57 -3 32 -11 59 -17 61 -5 2 -10 12 -10 23 0 10 -3
19 -8 19 -4 0 -13 15 -21 33 -8 17 -44 61 -80 98 -61 60 -115 93 -226 139 -38
16 -226 22 -284 10z"/>
<path d="M3410 5810 c-8 -5 -26 -10 -40 -10 -45 0 -154 -49 -209 -94 -67 -55
-116 -116 -143 -176 -11 -25 -25 -56 -31 -69 -15 -31 -15 -251 -1 -282 54
-115 74 -148 118 -193 66 -66 82 -78 147 -108 89 -41 121 -48 225 -48 170 0
301 64 407 198 24 31 67 122 67 143 0 10 5 21 10 24 6 4 10 58 10 131 0 76 -4
124 -10 124 -5 0 -10 8 -10 18 0 29 -47 120 -83 159 -44 49 -91 93 -99 93 -4
0 -13 6 -20 13 -55 52 -294 107 -338 77z"/>
<path d="M804 5176 c-57 -21 -122 -77 -144 -125 -7 -14 -16 -34 -21 -43 -12
-24 -11 -145 1 -153 6 -3 10 -13 10 -21 0 -15 65 -124 80 -134 4 -3 10 -15 14
-27 4 -13 12 -23 17 -23 5 0 9 -5 9 -10 0 -6 38 -71 85 -145 47 -74 85 -139
85 -145 0 -5 4 -10 8 -10 5 0 19 -21 31 -46 13 -25 29 -48 37 -51 8 -3 14 -13
14 -23 0 -10 7 -23 15 -30 8 -7 15 -19 15 -26 0 -8 4 -14 9 -14 5 0 11 -8 15
-17 6 -21 25 -51 45 -72 8 -8 20 -30 27 -47 7 -18 19 -38 26 -46 19 -20 38
-50 44 -70 4 -10 10 -18 15 -18 5 0 9 -7 9 -15 0 -8 4 -15 10 -15 5 0 12 -11
16 -25 3 -13 12 -29 19 -35 8 -7 24 -32 35 -56 12 -24 26 -44 31 -44 5 0 9 -7
9 -15 0 -8 22 -36 49 -63 82 -82 188 -102 289 -55 20 9 39 19 42 22 3 4 25 16
50 28 25 12 70 37 100 54 30 18 75 43 100 57 25 13 50 27 55 32 10 7 66 39
150 85 98 54 141 78 150 85 6 5 31 20 58 34 26 14 66 37 90 50 23 13 65 36 92
51 28 15 55 31 60 35 6 5 30 19 55 32 25 14 59 33 77 44 40 24 50 14 34 -33
-9 -27 -11 -86 -7 -208 3 -93 8 -370 11 -615 l6 -445 -38 -46 c-21 -26 -54
-68 -73 -93 -34 -46 -44 -58 -112 -142 -18 -23 -46 -60 -63 -83 -16 -23 -55
-73 -85 -110 -30 -38 -71 -89 -90 -115 -64 -86 -99 -131 -115 -148 -8 -10 -51
-66 -96 -125 -102 -135 -117 -152 -154 -167 -17 -7 -38 -19 -46 -27 -14 -13
-36 -26 -174 -98 -27 -14 -52 -29 -55 -32 -3 -4 -15 -9 -27 -13 -13 -4 -23
-12 -23 -17 0 -5 -9 -9 -20 -9 -11 0 -20 -4 -20 -10 0 -5 -7 -10 -15 -10 -8 0
-15 -3 -15 -7 0 -5 -20 -17 -45 -28 -25 -11 -45 -22 -45 -26 0 -4 -11 -10 -25
-13 -14 -4 -49 -21 -78 -39 -28 -18 -65 -39 -82 -47 -16 -8 -36 -21 -43 -28
-7 -6 -20 -12 -28 -12 -8 0 -14 -3 -14 -8 0 -4 -14 -13 -30 -20 -17 -8 -70
-36 -118 -64 -48 -28 -114 -65 -147 -83 -33 -18 -80 -44 -105 -58 -25 -13 -72
-39 -105 -57 -127 -70 -182 -137 -192 -237 -11 -100 40 -195 134 -250 57 -33
180 -35 236 -4 20 11 67 37 104 57 61 34 147 81 258 144 22 13 54 31 70 41 17
10 46 26 65 36 19 9 37 20 40 23 3 3 20 12 38 20 19 7 39 18 46 24 6 6 36 24
66 40 86 45 134 72 176 98 21 13 53 30 69 38 17 8 48 25 69 38 22 13 58 34 80
46 23 13 57 32 76 43 32 18 127 71 175 97 11 6 22 13 25 16 3 3 23 14 44 25
45 22 87 61 131 119 17 22 42 53 56 70 14 17 45 58 70 91 49 67 63 84 100 129
42 52 193 246 209 270 8 12 29 40 47 62 17 21 51 64 75 94 44 56 53 68 172
224 38 50 70 92 71 94 1 1 18 -12 37 -30 19 -18 44 -40 54 -48 11 -8 33 -26
50 -40 17 -14 48 -38 70 -55 21 -16 57 -47 80 -67 23 -21 46 -38 51 -38 5 0
19 -10 30 -22 11 -13 33 -32 48 -43 16 -11 33 -25 39 -30 6 -6 31 -26 56 -45
25 -19 52 -42 60 -51 8 -8 29 -24 45 -35 17 -10 38 -29 48 -41 10 -13 23 -23
28 -23 5 0 26 -16 46 -35 20 -19 41 -35 46 -35 5 0 18 -10 28 -22 19 -21 19
-21 -150 -187 -94 -91 -231 -224 -306 -296 -288 -274 -344 -333 -351 -370 -3
-19 -10 -38 -15 -41 -12 -7 -11 -111 1 -119 6 -3 10 -16 10 -29 0 -35 54 -101
107 -133 42 -24 58 -28 129 -28 52 0 91 5 110 15 40 20 100 76 380 345 733
706 726 699 742 752 38 131 -1 224 -143 338 -27 22 -59 48 -69 58 -11 9 -23
17 -27 17 -4 0 -20 12 -37 28 -44 40 -72 64 -117 97 -22 16 -42 32 -45 35 -11
11 -78 67 -114 95 -41 32 -121 95 -146 118 -9 7 -34 26 -55 42 -22 17 -42 32
-45 35 -3 3 -30 25 -60 50 -54 45 -63 52 -109 88 -23 18 -23 18 -22 223 1 112
6 208 12 214 5 5 9 94 9 201 0 118 4 195 10 199 6 4 10 87 10 215 l0 209 63
-22 c34 -12 64 -25 65 -29 2 -5 10 -8 17 -8 7 0 26 -7 41 -15 16 -8 37 -15 47
-15 9 0 17 -4 17 -10 0 -5 11 -10 25 -10 14 0 25 -3 25 -8 0 -7 51 -27 98 -39
12 -3 22 -9 22 -14 0 -5 11 -9 25 -9 14 0 25 -4 25 -9 0 -5 18 -12 40 -16 22
-4 40 -11 40 -16 0 -5 9 -9 19 -9 11 0 22 -4 25 -9 3 -5 18 -12 33 -15 16 -4
46 -15 68 -25 77 -36 113 -51 124 -51 6 0 26 -9 46 -20 20 -11 40 -20 46 -20
11 0 24 -5 121 -49 26 -11 51 -21 54 -21 3 0 21 -7 40 -15 19 -8 49 -22 68
-30 19 -8 41 -15 49 -15 9 0 19 -4 22 -10 3 -5 15 -10 26 -10 10 0 19 -4 19
-10 0 -5 7 -10 15 -10 13 0 65 -20 107 -41 10 -5 25 -9 33 -9 8 0 15 -4 15
-10 0 -5 18 -13 40 -16 22 -4 40 -10 40 -15 0 -5 7 -9 15 -9 8 0 23 -4 33 -10
9 -5 33 -15 52 -23 19 -8 58 -25 85 -38 59 -27 196 -38 256 -20 44 13 114 80
136 130 21 49 21 165 -1 214 -9 20 -34 55 -56 76 -40 39 -85 59 -470 213 -69
28 -139 56 -157 64 -17 8 -36 14 -41 14 -6 0 -27 9 -49 19 -61 30 -110 51
-122 51 -6 0 -26 9 -45 19 -19 11 -51 23 -70 27 -20 3 -36 10 -36 15 0 5 -6 9
-13 9 -7 0 -32 9 -55 20 -23 11 -56 23 -72 27 -17 3 -30 9 -30 14 0 5 -6 9
-14 9 -7 0 -27 7 -42 15 -16 8 -37 15 -46 15 -10 0 -18 5 -18 10 0 6 -11 10
-25 10 -14 0 -25 4 -25 9 0 5 -10 11 -22 14 -28 6 -91 30 -98 37 -3 3 -23 11
-45 19 -39 13 -69 25 -139 56 -19 8 -43 15 -55 15 -12 0 -21 3 -21 8 0 4 -15
13 -32 21 -18 7 -47 19 -65 27 -17 8 -36 14 -42 14 -6 0 -26 9 -45 19 -19 11
-51 23 -70 27 -20 3 -36 10 -36 15 0 5 -11 9 -25 9 -14 0 -25 4 -25 9 0 11
-70 17 -430 34 -151 7 -282 16 -290 20 -13 5 -84 9 -320 18 -52 1 -99 -11
-150 -39 -25 -14 -54 -30 -65 -36 -11 -6 -22 -13 -25 -16 -3 -3 -21 -13 -40
-24 -66 -35 -125 -69 -150 -85 -14 -9 -44 -26 -67 -36 -24 -11 -43 -23 -43
-26 0 -3 -20 -14 -45 -25 -25 -10 -45 -22 -45 -26 0 -4 -6 -8 -14 -8 -7 0 -19
-7 -26 -15 -7 -8 -21 -15 -31 -15 -11 0 -19 -4 -19 -10 0 -5 -6 -10 -14 -10
-8 0 -16 -3 -18 -7 -1 -5 -21 -17 -43 -28 -22 -11 -42 -22 -45 -25 -9 -9 -85
-51 -102 -57 -10 -3 -18 -9 -18 -13 0 -5 -13 -11 -30 -15 -16 -4 -30 -10 -30
-15 0 -4 -14 -14 -32 -21 -24 -10 -33 -10 -36 -1 -2 7 -10 19 -18 26 -8 8 -14
19 -14 25 0 6 -4 11 -10 11 -5 0 -10 6 -10 14 0 8 -6 21 -12 28 -15 16 -28 36
-64 101 -15 26 -30 47 -35 47 -4 0 -10 11 -13 25 -4 14 -11 25 -16 25 -6 0
-10 7 -10 15 0 8 -4 15 -9 15 -5 0 -11 8 -15 18 -7 22 -46 85 -56 92 -4 3 -10
15 -14 28 -4 12 -12 22 -17 22 -5 0 -9 7 -9 15 0 8 -4 15 -9 15 -5 0 -12 11
-15 25 -4 14 -11 25 -16 25 -6 0 -10 4 -10 10 0 13 -71 124 -82 128 -4 2 -8 8
-8 14 0 14 -100 172 -112 176 -4 2 -8 10 -8 18 0 17 -69 84 -87 84 -7 0 -13 3
-13 8 0 12 -77 32 -122 31 -24 -1 -57 -6 -74 -13z"/>
</g>
</svg>
