<?xml version="1.0" standalone="no"?>
<!DOCTYPE svg PUBLIC "-//W3C//DTD SVG 20010904//EN"
 "http://www.w3.org/TR/2001/REC-SVG-20010904/DTD/svg10.dtd">
<svg version="1.0" xmlns="http://www.w3.org/2000/svg"
 width="650.000000pt" height="650.000000pt" viewBox="0 0 650.000000 650.000000"
 preserveAspectRatio="xMidYMid meet">
<metadata>
Created by potrace 1.15, written by Peter Selinger 2001-2017
</metadata>
<g transform="translate(0.000000,650.000000) scale(0.100000,-0.100000)"
fill="#000000" stroke="none">
<path d="M1895 5884 c-47 -7 -145 -45 -145 -55 0 -4 -12 -10 -27 -13 -36 -10
-138 -110 -173 -171 -51 -88 -64 -141 -64 -250 1 -153 37 -241 143 -345 72
-71 131 -107 192 -116 21 -4 39 -10 39 -15 0 -5 56 -9 125 -9 69 0 125 4 125
9 0 5 18 11 40 15 43 7 94 32 150 74 100 76 167 192 180 316 29 255 -89 443
-344 545 -31 13 -192 22 -241 15z"/>
<path d="M6080 4731 c-8 -5 -40 -17 -70 -26 -30 -9 -66 -21 -80 -27 -56 -24
-66 -27 -100 -37 -29 -8 -187 -64 -240 -84 -8 -3 -78 -27 -154 -52 -132 -44
-195 -66 -241 -85 -11 -5 -45 -16 -75 -25 -30 -9 -62 -19 -70 -22 -41 -16
-238 -85 -255 -90 -11 -2 -30 -9 -42 -15 -19 -10 -28 -5 -67 35 -24 26 -57 49
-73 53 -15 4 -33 11 -40 16 -14 12 -120 5 -183 -11 -68 -17 -123 -32 -145 -41
-11 -5 -54 -16 -95 -26 -41 -10 -79 -21 -84 -26 -6 -4 -20 -8 -33 -8 -13 0
-31 -4 -41 -10 -9 -5 -37 -14 -62 -19 -25 -5 -61 -14 -80 -20 -98 -28 -158
-43 -187 -48 -18 -3 -33 -9 -33 -14 0 -5 -13 -9 -29 -9 -17 0 -32 -4 -35 -9
-4 -5 -30 -12 -59 -16 -28 -4 -58 -12 -64 -17 -20 -16 -52 -3 -170 72 -61 38
-116 70 -122 70 -6 0 -11 4 -11 8 0 5 -21 21 -47 36 -27 14 -57 32 -68 39 -67
41 -135 83 -165 103 -184 118 -374 231 -413 246 -44 17 -74 18 -335 14 -158
-2 -311 -7 -341 -11 -64 -8 -133 -44 -230 -117 -38 -29 -80 -61 -93 -70 -12
-9 -84 -62 -158 -117 -74 -55 -150 -110 -168 -123 -59 -42 -127 -93 -140 -105
-7 -7 -17 -13 -21 -13 -4 0 -16 -8 -27 -18 -10 -9 -44 -35 -74 -57 -30 -22
-61 -45 -68 -52 -7 -7 -16 -13 -20 -13 -4 0 -23 -14 -42 -30 -19 -16 -38 -30
-41 -30 -3 0 -16 -9 -28 -19 -12 -11 -47 -36 -77 -57 -30 -20 -54 -41 -54 -46
0 -4 -6 -8 -12 -8 -19 -1 -90 -70 -111 -108 -14 -25 -18 -54 -18 -120 0 -64 5
-99 18 -128 10 -21 21 -41 24 -44 3 -3 14 -24 24 -47 11 -24 22 -43 27 -43 4
0 8 -7 8 -15 0 -8 5 -15 10 -15 6 0 10 -7 10 -16 0 -14 27 -71 40 -84 3 -3 14
-23 25 -45 11 -22 22 -42 25 -45 3 -3 21 -36 41 -75 55 -108 73 -140 82 -143
4 -2 7 -10 7 -18 0 -22 81 -95 113 -101 15 -3 30 -10 33 -14 7 -12 141 -11
149 0 3 5 18 12 34 16 34 7 121 97 121 125 0 10 5 22 10 25 13 8 13 155 0 155
-5 0 -10 9 -10 21 0 18 -25 74 -40 89 -3 3 -18 32 -35 65 -16 33 -32 62 -35
65 -3 3 -14 23 -25 45 -11 22 -22 42 -25 45 -3 3 -17 28 -31 56 l-26 52 31 18
c17 9 33 20 36 24 3 3 30 23 60 45 30 22 61 45 68 52 7 7 17 13 21 13 4 0 16
8 27 18 21 20 251 188 293 214 l28 18 6 -188 c4 -103 7 -343 7 -534 l0 -346
-35 -44 c-20 -23 -49 -59 -65 -78 -16 -19 -60 -73 -97 -120 -37 -47 -70 -87
-73 -90 -7 -7 -133 -163 -142 -175 -4 -5 -24 -30 -45 -55 -21 -25 -51 -61 -65
-80 -15 -19 -39 -48 -53 -65 -15 -16 -41 -50 -59 -75 l-31 -45 -3 -720 c-2
-396 0 -738 3 -761 3 -23 15 -51 25 -62 11 -12 20 -25 20 -29 0 -5 12 -17 27
-28 14 -11 33 -27 41 -35 23 -23 199 -27 244 -6 36 17 88 59 88 70 0 4 7 14
15 22 8 9 15 26 15 40 0 13 5 24 10 24 7 0 10 221 10 643 l0 643 57 70 c32 39
102 125 155 190 122 151 246 304 301 372 72 91 70 91 129 50 14 -10 31 -18 36
-18 6 0 17 -6 24 -13 7 -6 31 -21 53 -32 22 -11 51 -27 65 -37 14 -9 47 -28
73 -42 48 -26 92 -51 182 -101 28 -15 62 -36 77 -46 14 -11 29 -19 33 -19 7 0
86 -46 167 -96 20 -13 48 -26 62 -30 14 -3 26 -10 26 -14 0 -4 26 -20 58 -36
31 -16 59 -31 62 -35 3 -3 41 -25 85 -49 44 -23 92 -51 107 -61 14 -11 28 -19
31 -19 11 0 153 -84 168 -100 10 -9 20 -43 24 -78 4 -34 11 -62 16 -62 5 0 9
-16 9 -35 0 -19 4 -35 8 -35 7 0 23 -70 38 -172 4 -21 10 -38 15 -38 5 0 9
-16 9 -35 0 -19 4 -35 9 -35 5 0 12 -29 16 -65 3 -36 10 -65 15 -65 4 0 10
-17 13 -37 3 -21 12 -69 21 -108 8 -38 18 -83 21 -100 4 -16 10 -39 15 -50 11
-29 40 -166 40 -192 0 -12 5 -25 10 -28 6 -3 10 -21 10 -40 0 -43 31 -115 63
-146 63 -61 67 -63 168 -67 129 -6 177 16 240 108 22 33 24 43 23 164 -1 73
-6 131 -11 135 -6 3 -13 22 -16 41 -3 19 -13 69 -22 110 -9 41 -19 90 -22 108
-3 18 -9 35 -14 38 -5 3 -9 14 -9 26 0 28 -30 159 -41 180 -5 10 -9 31 -9 48
0 16 -4 30 -9 30 -5 0 -12 29 -16 65 -3 36 -11 67 -16 70 -5 4 -9 19 -9 35 0
16 -4 31 -9 34 -5 3 -12 33 -16 66 -4 33 -11 63 -16 66 -5 3 -9 20 -9 39 0 19
-4 37 -10 40 -5 3 -10 19 -10 36 0 16 -4 29 -9 29 -5 0 -12 29 -16 65 -3 36
-11 67 -16 70 -5 4 -9 19 -9 36 0 16 -4 29 -9 29 -5 0 -12 11 -15 24 -7 29
-80 91 -161 136 -86 48 -443 250 -535 303 -19 11 -55 31 -80 44 -47 24 -82 45
-90 53 -3 3 -25 15 -50 27 -25 12 -76 41 -115 63 -38 23 -78 44 -87 47 -10 3
-18 8 -18 12 0 4 -20 15 -45 26 -25 11 -45 23 -45 28 0 4 -7 7 -15 7 -8 0 -15
3 -15 8 0 4 -10 12 -23 17 l-22 10 -3 465 c-2 256 0 534 3 618 l7 153 29 -18
c15 -10 105 -65 200 -123 94 -58 176 -109 183 -115 16 -14 48 -34 66 -42 8 -4
52 -31 97 -60 46 -29 85 -53 89 -53 3 0 20 -11 37 -24 98 -75 184 -83 359 -35
453 123 722 197 763 209 17 5 57 16 90 25 33 9 74 20 90 25 17 5 53 15 81 23
106 30 184 109 199 204 6 39 10 43 58 61 29 11 77 28 107 38 30 10 59 22 65
26 5 4 18 8 30 8 12 0 25 4 30 9 6 4 28 13 50 19 34 9 194 65 245 85 8 3 51
18 95 32 44 14 89 30 100 35 11 5 36 13 55 19 36 10 199 65 235 80 11 5 31 13
45 19 14 6 41 14 60 18 19 3 42 10 52 15 10 5 26 13 36 18 10 5 33 12 52 16
19 4 41 11 50 15 8 4 27 13 43 21 23 11 27 18 27 54 0 28 -6 47 -18 58 -20 18
-67 22 -92 8z"/>
</g>
</svg>
