<?xml version="1.0" standalone="no"?>
<!DOCTYPE svg PUBLIC "-//W3C//DTD SVG 20010904//EN"
 "http://www.w3.org/TR/2001/REC-SVG-20010904/DTD/svg10.dtd">
<svg version="1.0" xmlns="http://www.w3.org/2000/svg"
 width="650.000000pt" height="650.000000pt" viewBox="0 0 650.000000 650.000000"
 preserveAspectRatio="xMidYMid meet">
<metadata>
Created by potrace 1.15, written by Peter Selinger 2001-2017
</metadata>
<g transform="translate(0.000000,650.000000) scale(0.100000,-0.100000)"
fill="#000000" stroke="none">
<path d="M3682 6225 c-73 -40 -111 -121 -98 -211 4 -36 76 -194 96 -214 8 -8
28 -42 47 -80 10 -19 38 -71 63 -115 155 -270 290 -592 331 -790 6 -27 14 -70
20 -95 5 -25 19 -119 30 -210 31 -252 18 -702 -30 -1020 -6 -36 -17 -110 -25
-165 -8 -55 -20 -122 -25 -150 -5 -27 -17 -86 -25 -130 -9 -44 -20 -99 -26
-122 -5 -24 -15 -62 -20 -85 -54 -225 -44 -307 42 -371 71 -53 158 -52 268 3
9 4 31 11 50 15 34 8 46 12 87 33 13 7 28 12 34 12 15 0 91 33 259 114 113 54
176 89 250 139 84 56 103 70 135 99 17 16 33 28 36 28 10 0 103 94 145 147 22
26 47 57 57 68 10 11 20 30 23 42 4 13 9 23 13 23 4 0 20 26 36 58 15 31 32
65 36 74 5 10 9 25 9 33 0 8 4 15 10 15 5 0 12 27 16 60 4 33 11 60 15 60 5 0
9 27 9 60 0 33 4 60 10 60 6 0 10 40 10 100 0 60 -4 100 -10 100 -6 0 -10 26
-10 59 0 33 -4 62 -9 65 -5 3 -12 35 -16 71 -3 36 -11 65 -16 65 -5 0 -9 14
-9 30 0 17 -4 30 -9 30 -5 0 -12 20 -15 45 -4 25 -11 45 -17 45 -5 0 -9 6 -9
14 0 8 -9 31 -19 53 -11 21 -39 79 -62 128 -24 50 -46 92 -50 95 -3 3 -12 16
-19 30 -35 71 -224 351 -295 437 -5 7 -19 24 -30 39 -31 41 -119 148 -196 239
-59 69 -72 84 -89 104 -35 42 -150 170 -211 235 -36 39 -83 91 -105 115 -21
25 -100 108 -174 185 -74 77 -173 180 -220 229 -46 48 -98 94 -114 102 -36 18
-152 18 -184 0z"/>
<path d="M1715 4338 c-125 -43 -179 -75 -248 -147 -111 -115 -155 -237 -144
-400 6 -74 12 -96 52 -177 44 -88 94 -147 176 -206 l24 -17 -36 -1 c-76 0
-156 -62 -188 -144 -15 -41 -21 -85 -25 -216 -16 -460 -18 -490 -35 -490 -9 0
-54 5 -101 11 -347 43 -388 45 -397 23 -4 -10 -2 -19 5 -22 7 -2 12 -12 12
-22 0 -10 3 -20 8 -22 4 -1 15 -19 26 -38 10 -19 33 -62 51 -95 57 -107 70
-130 75 -135 3 -3 18 -32 35 -65 16 -33 39 -77 52 -97 13 -21 23 -42 23 -47 0
-6 -19 -15 -42 -21 -153 -40 -311 -93 -448 -152 -112 -48 -115 -50 -118 -91
-2 -26 2 -45 14 -58 27 -29 36 -28 184 38 19 8 49 22 67 29 17 8 38 14 47 14
9 0 25 5 36 10 49 24 58 28 90 35 37 7 92 23 125 35 32 12 178 40 208 40 16 0
37 5 48 11 25 13 567 13 583 0 6 -5 38 -11 71 -14 78 -7 195 -27 220 -37 11
-5 34 -11 50 -14 108 -18 152 -28 167 -36 10 -6 29 -10 42 -10 14 0 27 -4 30
-9 3 -5 32 -12 63 -16 32 -4 63 -10 68 -15 6 -4 24 -10 40 -13 17 -3 50 -11
75 -17 25 -7 77 -17 115 -24 39 -7 77 -15 85 -19 20 -8 72 -15 207 -29 113
-12 181 -7 318 21 28 6 91 17 140 26 50 8 117 20 150 26 33 5 83 12 110 15 28
3 59 9 70 14 92 42 967 43 1115 1 19 -6 49 -12 65 -15 17 -3 50 -10 75 -16 25
-6 71 -17 102 -23 31 -7 60 -15 64 -19 4 -5 18 -8 30 -8 13 0 25 -4 28 -9 3
-4 24 -11 46 -15 23 -3 49 -10 58 -15 20 -11 72 -32 122 -51 19 -7 68 -28 108
-47 90 -42 135 -42 160 -1 15 26 15 30 1 54 -17 28 -38 42 -109 73 -234 101
-403 155 -625 201 -102 21 -164 30 -207 30 -26 0 -49 4 -52 9 -15 23 -471 32
-681 13 -204 -19 -381 -39 -460 -53 -27 -4 -77 -13 -110 -18 -33 -5 -100 -17
-150 -26 -49 -10 -107 -20 -128 -22 -20 -3 -40 -9 -43 -14 -7 -12 -205 -11
-224 1 -15 9 81 108 355 363 89 83 110 116 85 132 -6 4 -77 13 -158 21 -149
14 -166 16 -307 35 -44 5 -129 14 -190 20 -60 5 -141 13 -180 18 -38 5 -142
16 -230 25 -88 9 -167 19 -175 21 -13 4 -15 28 -12 150 l3 145 74 0 c41 0 77
5 80 10 4 6 190 10 525 10 335 0 521 4 525 10 3 6 27 10 53 10 26 0 60 7 76
15 44 23 95 77 102 108 3 15 10 27 15 27 5 0 9 41 9 90 0 50 -4 90 -9 90 -5 0
-11 13 -14 29 -7 36 -76 102 -125 120 -20 7 -91 15 -157 18 -66 2 -129 8 -140
13 -11 5 -72 12 -135 14 -243 11 -576 32 -590 39 -8 3 -64 9 -125 11 -219 10
-364 21 -371 29 -4 4 -2 7 4 7 24 0 121 71 167 122 96 106 143 258 125 400 -9
71 -12 82 -47 156 -54 114 -170 220 -283 257 -30 9 -63 21 -72 26 -24 12 -206
9 -243 -3z"/>
<path d="M1479 1776 c-4 -4 -53 -11 -110 -16 -170 -15 -321 -40 -361 -61 -10
-5 -29 -9 -42 -9 -14 0 -28 -4 -31 -10 -3 -5 -15 -10 -25 -10 -19 0 -97 -23
-135 -40 -11 -5 -31 -12 -45 -16 -14 -3 -45 -16 -70 -26 -25 -11 -61 -27 -80
-35 -95 -39 -105 -47 -108 -87 -2 -20 2 -44 9 -52 13 -15 89 -19 104 -5 13 11
145 64 225 90 36 12 74 26 85 31 11 5 38 14 60 19 22 6 58 15 80 21 160 44
318 63 545 63 230 0 373 -15 585 -63 22 -5 67 -14 100 -20 33 -6 68 -15 77
-20 10 -6 27 -10 38 -10 11 0 28 -4 38 -9 9 -5 60 -19 112 -31 52 -12 113 -26
135 -31 22 -6 70 -16 107 -22 36 -7 70 -15 74 -19 4 -5 22 -8 40 -8 18 0 43
-5 56 -10 13 -6 68 -14 123 -20 55 -5 117 -12 137 -16 21 -3 46 -3 55 2 10 4
54 14 98 21 44 7 103 18 130 23 28 6 93 18 145 26 52 9 120 20 150 25 30 5 96
13 145 19 50 6 99 12 110 15 20 6 379 27 445 27 19 0 116 -5 215 -11 215 -13
309 -27 515 -75 36 -8 79 -18 95 -22 17 -4 35 -10 40 -14 6 -4 26 -11 45 -14
19 -4 44 -11 55 -15 11 -5 31 -13 45 -19 14 -5 41 -16 60 -22 44 -16 74 -29
174 -74 43 -20 84 -36 91 -36 15 0 65 56 65 72 0 18 -40 61 -70 75 -111 53
-316 132 -362 139 -21 4 -38 10 -38 14 0 8 -13 11 -115 30 -33 6 -68 15 -77
20 -10 6 -31 10 -47 10 -17 0 -33 5 -36 10 -3 6 -21 10 -39 10 -18 0 -46 4
-62 10 -130 44 -895 44 -1164 1 -36 -6 -81 -13 -100 -16 -19 -3 -57 -10 -85
-15 -67 -12 -231 -40 -280 -47 -22 -3 -46 -10 -54 -17 -18 -14 -305 -13 -323
1 -7 6 -33 13 -58 16 -86 11 -185 28 -205 37 -11 5 -33 11 -50 15 -16 3 -48
10 -70 16 -22 6 -65 16 -95 23 -30 7 -62 15 -70 18 -17 7 -52 15 -130 29 -30
5 -63 14 -72 19 -10 6 -27 10 -37 10 -11 0 -30 4 -43 9 -84 34 -698 99 -719
77z"/>
<path d="M1318 1435 c-3 -4 -41 -11 -85 -16 -150 -19 -163 -21 -163 -29 0 -4
-29 -11 -65 -15 -36 -3 -67 -11 -70 -16 -4 -5 -17 -9 -31 -9 -13 0 -32 -4 -42
-9 -9 -5 -44 -17 -77 -27 -33 -10 -67 -21 -75 -25 -33 -15 -68 -28 -117 -45
-29 -10 -53 -21 -53 -25 0 -3 -13 -9 -28 -12 -33 -7 -82 -53 -82 -77 0 -20 47
-70 66 -70 12 0 49 15 144 57 25 12 56 24 70 28 14 4 39 13 55 20 17 7 68 25
115 39 47 14 99 30 115 35 17 6 59 15 95 22 36 6 88 15 115 21 28 5 116 14
197 20 149 11 377 2 513 -21 33 -5 92 -15 130 -21 39 -5 87 -15 108 -20 131
-35 308 -79 417 -104 36 -8 83 -19 105 -25 73 -21 258 -55 372 -70 40 -6 87
-13 106 -16 18 -4 71 1 118 10 124 25 164 33 269 51 52 9 118 20 145 25 53 10
228 33 385 51 128 15 642 14 755 0 311 -41 549 -105 819 -221 124 -54 150 -59
179 -37 38 29 11 116 -36 116 -9 0 -17 3 -17 8 0 4 -15 13 -32 21 -30 12 -59
24 -128 53 -14 6 -32 14 -40 18 -9 4 -31 11 -50 15 -19 4 -39 10 -45 14 -5 4
-30 13 -55 20 -25 7 -53 17 -63 23 -10 5 -41 12 -68 15 -27 3 -52 10 -55 14
-3 5 -18 9 -34 9 -16 0 -31 4 -34 9 -3 5 -42 12 -86 16 -44 4 -83 11 -86 16
-3 5 -31 9 -63 9 -31 0 -61 4 -66 9 -33 31 -807 31 -839 0 -6 -5 -43 -9 -82
-9 -40 0 -75 -4 -78 -9 -3 -5 -53 -12 -111 -16 -58 -4 -108 -11 -111 -16 -3
-5 -27 -9 -53 -9 -26 0 -51 -3 -55 -7 -4 -5 -47 -14 -94 -21 -48 -7 -103 -15
-122 -18 -19 -3 -44 -10 -56 -15 -23 -12 -156 -6 -249 10 -33 6 -96 16 -140
22 -44 7 -82 16 -85 19 -3 4 -21 10 -40 13 -95 16 -157 29 -172 37 -10 6 -29
10 -42 10 -14 0 -27 4 -30 9 -3 5 -20 11 -38 14 -36 6 -149 31 -213 48 -22 6
-76 17 -120 25 -44 8 -102 20 -130 25 -27 6 -79 15 -115 20 -75 12 -562 24
-572 14z"/>
</g>
</svg>
