<?xml version="1.0" standalone="no"?>
<!DOCTYPE svg PUBLIC "-//W3C//DTD SVG 20010904//EN"
 "http://www.w3.org/TR/2001/REC-SVG-20010904/DTD/svg10.dtd">
<svg version="1.0" xmlns="http://www.w3.org/2000/svg"
 width="650.000000pt" height="650.000000pt" viewBox="0 0 650.000000 650.000000"
 preserveAspectRatio="xMidYMid meet">
<metadata>
Created by potrace 1.15, written by Peter Selinger 2001-2017
</metadata>
<g transform="translate(0.000000,650.000000) scale(0.100000,-0.100000)"
fill="#000000" stroke="none">
<path d="M1420 5286 c-68 -17 -138 -56 -197 -109 -102 -94 -152 -198 -160
-338 -11 -179 73 -342 228 -441 67 -43 106 -57 189 -70 80 -12 80 -12 160 0
126 20 215 66 299 158 52 57 101 144 101 180 0 13 5 26 10 29 12 8 13 232 1
239 -5 3 -12 23 -16 43 -10 54 -51 119 -118 186 -59 59 -130 99 -222 123 -59
16 -212 16 -275 0z"/>
<path d="M2275 4768 c-62 -32 -125 -111 -125 -158 0 -15 -5 -31 -11 -37 -7 -7
-8 -51 -4 -129 3 -66 8 -323 11 -571 l5 -453 -29 0 c-15 0 -32 4 -38 9 -17 17
-99 24 -279 23 -189 0 -285 -8 -285 -23 0 -5 -13 -9 -30 -9 -41 0 -131 -30
-202 -66 -14 -8 -33 -14 -41 -14 -9 0 -17 -3 -19 -7 -1 -5 -29 -21 -60 -37
-32 -15 -58 -32 -58 -36 0 -4 -8 -10 -17 -14 -23 -7 -53 -27 -73 -46 -8 -8
-35 -31 -60 -51 -66 -54 -81 -68 -130 -129 -25 -30 -48 -56 -52 -58 -5 -2 -8
-10 -8 -17 0 -7 -3 -15 -7 -17 -10 -4 -53 -72 -78 -123 -11 -22 -23 -41 -27
-43 -5 -2 -8 -12 -8 -23 0 -10 -4 -19 -10 -19 -5 0 -13 -18 -16 -40 -4 -22
-10 -40 -15 -40 -5 0 -9 -9 -9 -20 0 -11 -4 -28 -10 -38 -16 -30 -40 -159 -40
-221 0 -33 -4 -63 -10 -66 -13 -8 -13 -142 0 -150 5 -3 10 -33 10 -67 0 -81
28 -204 60 -269 5 -9 12 -33 15 -53 4 -20 11 -36 16 -36 5 0 9 -9 9 -20 0 -11
3 -20 8 -20 4 0 15 -20 25 -45 11 -25 23 -45 28 -45 5 0 9 -7 9 -15 0 -8 4
-15 9 -15 5 0 13 -10 17 -22 4 -13 9 -25 13 -28 3 -3 19 -22 35 -44 54 -73
196 -205 279 -260 156 -104 334 -177 507 -208 97 -17 353 -17 450 0 171 31
352 105 506 207 78 52 235 198 278 259 11 15 28 36 38 48 9 11 23 33 30 49 7
16 16 29 19 29 3 0 14 20 25 45 10 25 21 45 25 45 4 0 15 27 25 60 11 33 22
60 27 60 4 0 7 11 7 24 0 14 4 27 9 31 5 3 13 34 16 70 4 36 11 65 16 65 5 0
9 31 9 69 0 39 5 73 10 76 6 3 10 42 10 85 0 43 -4 82 -10 85 -5 3 -10 37 -10
76 0 38 -4 69 -9 69 -4 0 -11 28 -15 62 -3 34 -11 67 -16 72 -6 6 -10 20 -10
33 0 13 -4 23 -10 23 -5 0 -10 10 -10 23 0 13 -7 32 -15 43 -8 10 -15 27 -15
37 0 9 -4 17 -10 17 -5 0 -10 7 -10 15 0 8 -4 15 -9 15 -5 0 -12 12 -15 26 -7
27 -55 107 -68 112 -5 2 -8 8 -8 14 0 6 -8 18 -18 27 -10 9 -26 27 -35 41 -9
14 -42 50 -73 81 l-55 57 -2 436 -2 436 278 0 c255 0 313 -6 260 -25 -10 -3
-45 -38 -78 -76 -33 -39 -79 -91 -102 -116 -24 -25 -43 -51 -43 -59 0 -8 -3
-14 -7 -14 -5 0 -14 -12 -20 -27 -15 -32 -17 -209 -3 -218 6 -3 10 -28 10 -56
0 -27 4 -49 9 -49 5 0 12 -45 16 -100 4 -55 11 -103 16 -106 5 -3 9 -27 9 -53
0 -26 3 -51 8 -55 6 -7 21 -108 38 -261 3 -27 10 -54 15 -59 5 -6 9 -31 9 -57
0 -26 4 -50 9 -53 4 -3 11 -42 15 -86 9 -110 39 -163 125 -223 41 -28 51 -30
134 -30 49 0 92 4 95 9 4 5 20 16 35 24 39 20 76 59 83 87 4 12 10 23 15 23 5
0 9 11 9 24 0 14 5 28 10 31 6 3 10 26 10 50 0 24 -4 47 -10 50 -5 3 -10 28
-10 55 0 27 -4 51 -9 54 -5 3 -12 51 -16 106 -4 55 -11 103 -16 106 -5 3 -9
27 -9 53 0 26 -3 51 -7 55 -7 7 -22 108 -39 261 -3 28 -10 54 -15 60 -5 5 -9
30 -9 56 0 26 -4 51 -10 54 -5 3 -10 20 -10 36 0 22 11 41 43 72 23 24 58 63
78 87 20 25 59 68 85 95 27 28 64 68 83 90 18 22 58 65 87 96 l53 56 183 6
c101 3 184 4 186 2 3 -3 -54 -80 -175 -235 -23 -30 -55 -72 -70 -93 -38 -51
-115 -149 -130 -165 -7 -7 -13 -17 -13 -21 0 -4 -8 -16 -17 -27 -10 -10 -31
-37 -48 -59 -16 -22 -33 -44 -37 -50 -76 -95 -91 -123 -101 -192 -10 -59 6
-118 58 -227 25 -51 45 -95 45 -99 0 -3 -17 -43 -39 -89 -80 -172 -100 -260
-108 -473 -6 -160 6 -268 45 -395 116 -385 411 -689 798 -820 142 -49 239 -63
424 -63 177 0 267 13 400 56 290 95 562 315 702 568 14 25 30 54 36 65 10 17
20 40 52 119 20 49 40 121 40 145 0 14 4 30 9 36 21 21 40 359 22 377 -6 6
-11 35 -11 63 0 29 -4 55 -9 58 -5 3 -11 23 -14 43 -9 58 -31 133 -39 133 -5
0 -8 11 -8 25 0 14 -4 25 -10 25 -5 0 -10 8 -11 18 0 9 -16 44 -35 77 -19 33
-37 68 -40 78 -4 9 -9 17 -13 17 -4 0 -15 14 -25 32 -11 17 -26 41 -35 52 -49
62 -185 198 -204 205 -7 2 -19 11 -27 20 -19 21 -127 91 -139 91 -5 0 -16 6
-23 13 -7 7 -31 21 -53 30 -22 10 -48 22 -57 27 -10 6 -25 10 -33 10 -8 0 -15
5 -15 10 0 6 -10 10 -23 10 -13 0 -27 4 -33 9 -9 9 -94 28 -169 38 -22 3 -44
9 -49 14 -14 13 -363 12 -371 -1 -3 -5 -28 -10 -56 -10 -27 0 -49 -4 -49 -9 0
-4 -23 -11 -51 -14 -28 -4 -57 -11 -65 -18 -7 -6 -18 -9 -23 -7 -9 3 23 49 79
115 10 12 27 34 37 50 9 15 21 31 26 34 5 3 16 17 25 31 15 22 115 155 149
198 15 18 125 162 187 245 25 33 82 107 127 165 121 156 130 175 131 264 1 77
-13 126 -44 160 -10 11 -18 23 -18 27 0 12 -76 57 -116 69 -39 11 -1168 29
-2229 35 -475 3 -491 2 -530 -17z m-311 -1573 c-4 -8 -10 -15 -14 -15 -4 0
-27 -18 -51 -41 -24 -22 -64 -57 -89 -77 -25 -20 -64 -56 -88 -79 -25 -24 -47
-43 -51 -43 -4 0 -19 -12 -34 -27 -14 -16 -50 -49 -79 -75 -74 -64 -98 -116
-98 -207 0 -84 19 -128 77 -181 50 -46 76 -60 112 -60 17 0 33 -4 36 -10 3 -5
17 -10 31 -10 13 0 24 5 24 10 0 6 14 10 30 10 43 0 105 39 195 122 22 20 51
46 65 58 61 52 149 129 206 180 52 47 122 109 206 182 12 10 28 18 36 18 15 0
94 -79 140 -140 15 -19 30 -37 33 -40 4 -3 18 -25 31 -50 13 -25 29 -54 36
-65 10 -18 25 -53 52 -120 19 -46 40 -144 40 -183 0 -22 5 -44 10 -47 6 -3 10
-42 10 -85 0 -43 -4 -82 -10 -85 -5 -3 -10 -25 -10 -47 0 -47 -24 -144 -50
-203 -9 -22 -21 -51 -25 -65 -4 -14 -18 -41 -31 -60 -13 -19 -24 -40 -24 -46
0 -7 -3 -14 -7 -16 -5 -2 -26 -28 -49 -58 -23 -30 -66 -80 -97 -110 -58 -58
-179 -150 -196 -150 -6 0 -11 -4 -11 -10 0 -5 -5 -10 -11 -10 -12 0 -81 -31
-89 -40 -3 -3 -32 -14 -65 -24 -33 -11 -64 -23 -70 -28 -5 -4 -23 -8 -40 -8
-17 0 -37 -6 -43 -12 -18 -18 -376 -18 -394 0 -6 6 -22 12 -35 12 -13 0 -31 4
-41 9 -9 5 -44 17 -77 27 -33 10 -72 26 -86 35 -14 10 -37 21 -52 24 -15 4
-27 11 -27 16 0 5 -5 9 -11 9 -6 0 -17 6 -24 13 -8 6 -38 28 -66 47 -63 43
-149 127 -203 200 -23 30 -44 56 -48 58 -5 2 -8 9 -8 16 0 6 -11 27 -23 46
-13 19 -32 60 -43 90 -10 30 -22 57 -26 58 -5 2 -8 14 -8 26 0 12 -5 27 -10
32 -6 6 -13 47 -17 93 -3 45 -10 84 -15 87 -11 7 -11 141 0 148 5 3 12 42 15
87 4 46 11 87 17 93 5 5 10 18 10 28 0 18 3 26 34 85 9 17 16 38 16 47 0 9 5
16 10 16 6 0 10 4 10 10 0 22 91 153 146 212 104 110 178 169 257 205 20 10
37 21 37 25 0 5 5 8 11 8 11 0 66 22 101 41 9 5 35 12 58 15 22 4 43 11 46 15
3 5 23 9 44 9 21 0 42 5 45 10 4 6 70 10 165 10 138 0 159 -2 154 -15z m3072
6 c5 -5 27 -11 49 -14 65 -9 145 -30 145 -39 0 -4 9 -8 19 -8 11 0 22 -4 25
-9 3 -5 17 -11 30 -15 13 -3 52 -24 87 -46 35 -22 71 -43 79 -47 8 -4 29 -20
45 -35 17 -16 44 -38 60 -49 17 -12 48 -44 70 -71 22 -28 48 -60 58 -71 10
-12 28 -38 39 -59 12 -21 25 -38 30 -38 4 0 8 -8 8 -18 0 -10 7 -27 15 -38 8
-10 15 -27 15 -36 0 -10 5 -18 10 -18 6 0 10 -9 10 -19 0 -11 4 -22 9 -25 5
-4 12 -29 16 -56 4 -27 11 -52 16 -56 5 -3 9 -23 9 -44 0 -21 5 -42 10 -45 6
-4 10 -55 10 -120 0 -65 -4 -116 -10 -120 -5 -3 -10 -26 -10 -50 0 -24 -4 -46
-9 -49 -5 -4 -12 -29 -16 -56 -4 -28 -11 -50 -16 -50 -5 0 -9 -11 -9 -25 0
-14 -4 -25 -8 -25 -4 0 -16 -22 -27 -50 -11 -28 -22 -50 -26 -50 -4 0 -9 -8
-13 -17 -5 -18 -26 -54 -36 -63 -3 -3 -16 -18 -29 -35 -70 -93 -255 -255 -290
-255 -6 0 -11 -4 -11 -10 0 -5 -4 -10 -9 -10 -5 0 -38 -13 -73 -29 -35 -16
-81 -35 -103 -42 -22 -7 -44 -17 -50 -21 -5 -4 -23 -8 -40 -8 -17 0 -37 -6
-44 -13 -17 -17 -375 -17 -393 1 -7 7 -22 12 -35 12 -13 0 -31 4 -41 9 -9 5
-42 16 -72 26 -74 23 -110 38 -110 47 0 3 -13 9 -30 13 -16 4 -30 10 -30 14 0
4 -12 14 -27 22 -151 76 -373 343 -409 492 -3 15 -10 30 -15 33 -5 3 -9 16 -9
29 0 13 -4 27 -10 30 -5 3 -10 21 -10 40 0 19 -4 37 -10 40 -6 4 -10 70 -10
165 0 95 4 161 10 165 6 3 10 21 10 40 0 19 5 37 10 40 6 3 10 18 10 33 0 35
10 21 50 -68 18 -41 71 -153 117 -249 45 -95 83 -174 83 -176 0 -2 40 -86 89
-187 92 -189 126 -236 198 -272 40 -20 151 -21 197 -2 46 19 102 71 132 122
35 60 36 164 1 237 -14 29 -42 88 -62 132 -21 44 -59 125 -85 180 -105 220
-140 296 -140 305 0 6 -3 10 -7 10 -5 0 -17 21 -27 48 -11 26 -41 92 -66 147
-26 55 -54 115 -61 133 -8 17 -17 32 -21 32 -5 0 -8 8 -8 18 0 9 -7 26 -15 36
-21 27 -19 58 5 79 11 9 23 17 26 17 3 0 29 16 59 35 30 19 66 37 80 41 14 3
28 10 31 15 3 5 14 9 25 9 10 0 19 4 19 9 0 5 22 12 50 16 27 4 52 11 56 16 3
5 23 9 45 9 21 0 39 5 39 10 0 13 312 14 326 1z"/>
</g>
</svg>
