<?xml version="1.0" standalone="no"?>
<!DOCTYPE svg PUBLIC "-//W3C//DTD SVG 20010904//EN"
 "http://www.w3.org/TR/2001/REC-SVG-20010904/DTD/svg10.dtd">
<svg version="1.0" xmlns="http://www.w3.org/2000/svg"
 width="479.000000pt" height="479.000000pt" viewBox="0 0 479.000000 479.000000"
 preserveAspectRatio="xMidYMid meet">
<metadata>
Created by potrace 1.15, written by Peter Selinger 2001-2017
</metadata>
<g transform="translate(0.000000,479.000000) scale(0.100000,-0.100000)"
fill="#000000" stroke="none">
<path d="M2103 3820 c-368 -79 -699 -303 -908 -616 -94 -139 -192 -369 -210
-488 l-7 -42 42 -13 c41 -12 42 -12 97 34 31 25 69 53 85 63 21 12 28 23 24
37 -3 11 -8 58 -12 105 -8 105 -3 111 128 149 127 37 134 34 187 -79 l41 -90
42 0 c24 0 72 -7 108 -14 36 -8 68 -11 71 -8 3 4 32 40 64 80 75 94 78 94 208
19 60 -35 90 -59 93 -74 4 -14 -7 -62 -26 -117 l-33 -95 47 -52 c25 -28 54
-65 64 -81 17 -29 18 -30 77 -24 33 4 78 9 100 12 59 8 80 -14 110 -116 26
-89 30 -127 17 -147 -4 -7 -46 -30 -94 -53 l-85 -40 -12 -87 c-6 -49 -13 -97
-16 -108 -3 -15 14 -34 75 -84 62 -49 80 -69 80 -88 0 -35 -97 -202 -125 -215
-18 -8 -41 -3 -116 25 l-94 35 -35 -32 c-20 -18 -57 -47 -83 -65 -26 -17 -47
-37 -47 -44 0 -7 5 -52 11 -100 10 -85 10 -90 -11 -112 -28 -30 -213 -84 -238
-69 -9 5 -37 50 -61 100 l-44 91 -71 6 c-39 4 -87 9 -106 13 -31 5 -38 2 -59
-27 l-24 -33 74 -71 c177 -166 414 -287 680 -347 90 -20 131 -23 299 -23 151
0 214 5 280 19 165 35 315 92 448 168 49 28 53 32 34 39 -30 11 -40 36 -48
115 -7 74 -18 104 -37 104 -7 0 -42 15 -79 34 l-66 33 -74 -48 c-40 -26 -82
-48 -93 -49 -30 0 -165 143 -165 175 0 7 25 45 56 85 l55 72 -24 62 c-14 33
-28 75 -31 92 -7 30 -10 32 -93 49 -122 26 -127 32 -121 157 4 74 9 103 21
116 11 10 48 20 104 27 80 9 89 12 98 35 6 13 24 53 41 87 l30 62 -48 76 c-26
41 -48 84 -48 94 0 24 144 161 169 161 10 0 51 -25 91 -56 l72 -57 62 25 c33
14 75 29 92 32 29 6 31 11 44 74 18 98 34 130 66 138 43 11 196 -3 212 -20 9
-8 19 -52 25 -105 l10 -91 36 -11 c20 -6 60 -24 89 -40 l53 -30 88 54 88 53
-24 93 c-75 298 -258 579 -507 777 l-79 63 -44 -32 c-39 -28 -44 -35 -39 -61
3 -15 6 -50 6 -77 l0 -49 58 -29 c88 -44 90 -48 61 -138 -28 -91 -40 -99 -130
-85 -60 10 -65 9 -82 -11 -10 -12 -34 -38 -53 -58 l-34 -37 21 -58 c31 -92 27
-103 -64 -149 l-78 -40 -27 30 c-15 17 -38 45 -52 63 l-25 32 -76 -7 -76 -6
-31 -62 c-18 -37 -39 -66 -51 -70 -24 -7 -137 19 -159 37 -11 10 -13 30 -8 93
l5 80 -54 43 c-30 23 -61 42 -68 42 -8 0 -38 -8 -68 -18 -30 -10 -62 -16 -72
-14 -19 4 -87 129 -87 161 0 13 21 36 56 63 l56 42 -6 51 c-3 27 -6 62 -6 77
0 24 -9 32 -60 58 -79 40 -84 50 -58 136 29 98 32 99 123 88 70 -9 77 -8 87 9
5 10 25 36 45 57 68 76 23 95 -144 60z"/>
<path d="M2585 3749 c-100 -13 -204 -90 -256 -189 -21 -39 -24 -59 -24 -150 0
-91 3 -111 23 -148 36 -67 98 -129 161 -159 49 -25 67 -28 151 -28 84 0 102 3
152 28 200 98 252 369 103 534 -78 88 -189 128 -310 112z"/>
<path d="M1458 2601 c-201 -66 -328 -241 -328 -450 1 -143 40 -241 137 -339
182 -185 473 -187 664 -6 240 230 175 628 -127 771 -71 34 -85 37 -183 40 -84
2 -118 -1 -163 -16z m325 -183 c-36 -41 -33 -45 20 -27 29 10 77 18 107 19
l55 0 -110 -55 c-60 -30 -114 -55 -120 -54 -17 0 27 30 90 61 58 29 59 30 20
23 -22 -3 -56 -17 -75 -29 -41 -27 -116 -66 -126 -66 -4 0 3 10 15 23 12 12
37 41 57 64 l36 43 -31 -11 c-17 -6 -47 -29 -66 -52 -35 -41 -49 -32 -19 12
19 27 108 71 143 71 l24 0 -20 -22z m-201 -237 c-3 -33 0 -42 22 -56 26 -17
42 -16 146 11 24 6 25 6 5 -10 -19 -16 -19 -16 8 -10 22 5 33 1 52 -20 26 -28
44 -26 79 6 19 17 18 19 -26 63 -25 25 -41 45 -36 45 26 0 79 -32 87 -52 21
-58 22 -65 4 -72 -10 -4 -30 -13 -45 -21 -32 -18 -109 -11 -102 10 3 7 -7 17
-23 22 -21 8 -38 6 -68 -8 -48 -22 -104 -24 -131 -5 -17 13 -23 11 -61 -20
-56 -46 -56 -27 0 23 29 25 46 49 50 72 13 65 45 83 39 22z"/>
<path d="M3205 2426 c-124 -31 -230 -117 -287 -233 -32 -65 -33 -73 -33 -188
0 -114 1 -123 32 -188 39 -83 119 -164 197 -201 202 -96 441 -33 557 147 56
87 72 149 67 267 -3 85 -8 105 -37 164 -90 184 -298 281 -496 232z"/>
<path d="M1949 754 c-43 -18 -63 -51 -62 -100 1 -49 33 -79 110 -105 63 -21
78 -41 35 -47 -13 -2 -32 7 -47 22 -19 19 -36 26 -65 26 l-40 0 0 -65 0 -65
45 0 c34 0 45 4 45 16 0 14 2 14 22 0 14 -10 44 -16 79 -16 47 0 63 5 87 25
59 50 45 127 -29 162 -24 11 -55 24 -69 28 -48 14 -64 38 -34 49 21 8 64 -19
64 -39 0 -11 13 -15 50 -15 l50 0 0 65 0 65 -45 0 c-32 0 -45 -4 -45 -14 0
-11 -8 -10 -37 5 -44 23 -66 23 -114 3z"/>
<path d="M2210 725 c0 -19 5 -35 10 -35 6 0 10 -40 10 -100 0 -60 -4 -100 -10
-100 -5 0 -10 -16 -10 -35 l0 -35 80 0 80 0 0 35 c0 24 -5 35 -15 35 -11 0
-15 11 -15 35 0 33 2 35 20 25 15 -8 20 -21 20 -49 0 -51 32 -81 86 -81 48 0
60 7 73 43 16 41 13 57 -9 57 -11 0 -20 -4 -20 -10 0 -5 -4 -10 -10 -10 -5 0
-10 11 -10 25 0 14 -9 34 -19 44 -19 19 -19 20 5 42 44 41 24 115 -36 136 -19
7 -79 12 -132 12 l-98 1 0 -35z"/>
<path d="M2560 726 c0 -25 4 -36 15 -36 12 0 15 -18 15 -100 0 -82 -3 -100
-15 -100 -11 0 -15 -11 -15 -36 l0 -36 108 3 c122 5 162 21 196 79 26 44 27
132 3 177 -31 58 -78 77 -199 82 l-108 3 0 -36z"/>
</g>
</svg>
