<?xml version="1.0" standalone="no"?>
<!DOCTYPE svg PUBLIC "-//W3C//DTD SVG 20010904//EN"
 "http://www.w3.org/TR/2001/REC-SVG-20010904/DTD/svg10.dtd">
<svg version="1.0" xmlns="http://www.w3.org/2000/svg"
 width="650.000000pt" height="650.000000pt" viewBox="0 0 650.000000 650.000000"
 preserveAspectRatio="xMidYMid meet">
<metadata>
Created by potrace 1.15, written by Peter Selinger 2001-2017
</metadata>
<g transform="translate(0.000000,650.000000) scale(0.100000,-0.100000)"
fill="#000000" stroke="none">
<path d="M1789 4760 c-48 -12 -139 -60 -193 -101 -48 -37 -126 -143 -126 -172
0 -9 -4 -17 -10 -17 -5 0 -10 -10 -10 -23 0 -13 -5 -28 -11 -34 -14 -14 -15
-243 -1 -269 5 -11 15 -32 22 -49 40 -99 103 -173 195 -232 62 -40 200 -83
264 -83 67 0 222 48 279 87 69 46 145 125 157 162 3 11 10 21 14 21 18 0 55
146 55 220 1 76 -22 200 -36 200 -4 0 -8 9 -8 20 0 11 -4 20 -9 20 -5 0 -12
11 -15 25 -4 14 -11 25 -16 25 -6 0 -10 6 -10 12 0 25 -110 115 -186 153 -77
38 -82 39 -199 42 -66 1 -136 -2 -156 -7z"/>
<path d="M2710 4311 c-25 -4 -55 -13 -68 -20 -41 -22 -94 -90 -160 -204 -35
-62 -88 -152 -117 -202 -29 -49 -62 -106 -73 -125 -11 -19 -37 -64 -57 -100
-21 -36 -46 -78 -54 -95 -45 -83 -87 -145 -98 -145 -7 0 -13 5 -13 10 0 6 -11
10 -24 10 -14 0 -27 4 -31 9 -3 6 -26 13 -50 17 -25 3 -45 10 -45 15 0 5 -11
9 -24 9 -13 0 -26 3 -28 8 -4 9 -98 42 -120 42 -10 0 -18 3 -18 8 0 9 -43 28
-85 38 -16 4 -32 10 -35 13 -8 10 -114 61 -127 61 -6 0 -13 4 -15 8 -1 4 -29
21 -60 36 -32 16 -58 33 -58 37 0 4 -11 10 -25 13 -14 4 -25 11 -25 16 0 6 -7
10 -15 10 -8 0 -15 5 -15 10 0 6 -13 10 -29 10 -30 0 -71 -38 -71 -66 0 -23
22 -62 39 -68 16 -5 28 -13 84 -49 34 -23 279 -147 290 -147 7 0 87 -34 118
-50 9 -5 33 -12 53 -15 20 -4 36 -11 36 -16 0 -5 11 -9 25 -9 14 0 25 -4 25
-9 0 -5 23 -12 50 -16 28 -4 50 -11 50 -16 0 -5 10 -9 23 -9 19 0 18 -3 -13
-22 -19 -13 -36 -26 -38 -30 -2 -5 -10 -8 -18 -8 -8 0 -14 -4 -14 -8 0 -5 -16
-17 -35 -28 -19 -10 -35 -21 -35 -25 0 -3 -16 -14 -35 -25 -19 -10 -35 -22
-35 -26 0 -5 -5 -8 -11 -8 -6 0 -17 -6 -24 -12 -32 -29 -45 -38 -52 -38 -5 0
-15 -9 -23 -20 -8 -11 -19 -20 -26 -20 -6 0 -21 -8 -33 -19 -12 -10 -37 -29
-56 -42 -19 -13 -35 -27 -35 -31 0 -4 -7 -13 -14 -21 -39 -39 -56 -88 -56
-162 0 -40 5 -77 10 -80 6 -3 10 -15 10 -26 0 -10 5 -19 10 -19 6 0 10 -4 10
-10 0 -20 45 -61 94 -85 73 -37 176 -36 245 3 27 15 62 38 78 50 15 13 38 29
51 34 12 6 22 15 22 20 0 4 7 8 15 8 8 0 15 3 15 8 0 4 16 16 35 26 19 11 35
22 35 25 0 4 16 15 35 25 19 11 35 23 35 28 0 4 7 8 15 8 8 0 15 3 15 8 0 4
16 16 35 26 19 11 35 23 35 27 0 4 8 10 18 13 9 3 33 19 52 36 19 17 43 33 53
36 9 3 17 10 17 15 0 5 7 9 15 9 8 0 15 4 15 9 0 5 9 12 20 16 25 8 100 84
100 102 0 7 4 13 10 13 5 0 12 11 16 25 5 19 13 25 35 25 16 0 29 -4 29 -10 0
-5 15 -10 34 -10 19 0 37 -4 41 -9 3 -5 34 -13 70 -16 36 -4 65 -11 65 -16 0
-5 15 -9 34 -9 19 0 37 -4 40 -9 3 -5 23 -11 43 -14 64 -10 177 -33 193 -40 8
-3 29 -7 45 -9 l30 -3 -30 -16 c-43 -22 -79 -43 -85 -49 -3 -3 -24 -14 -47
-25 -24 -11 -43 -23 -43 -27 0 -5 -6 -8 -12 -8 -13 0 -28 -7 -113 -55 -92 -52
-135 -125 -135 -230 0 -84 14 -112 127 -247 48 -59 124 -150 168 -204 44 -54
98 -119 120 -144 22 -26 87 -105 145 -176 154 -188 196 -228 270 -248 50 -14
70 -15 111 -7 81 18 116 42 170 119 28 40 31 49 31 130 0 102 -18 142 -106
240 -17 18 -37 42 -46 54 -8 11 -33 41 -55 67 -22 26 -53 64 -70 85 -16 20
-50 60 -75 88 -25 28 -52 62 -61 77 -9 14 -28 37 -43 50 -28 27 -34 51 -12 51
8 0 16 3 18 8 2 4 28 20 58 36 30 15 87 44 125 64 39 20 72 39 75 42 3 3 23
14 45 25 22 11 42 22 45 25 3 3 32 18 65 35 33 16 62 32 65 35 29 30 170 55
170 31 0 -5 41 -12 90 -16 50 -4 93 -11 96 -16 3 -5 27 -9 55 -9 27 0 49 -4
49 -10 0 -5 22 -10 49 -10 28 0 52 -4 55 -9 3 -5 46 -12 96 -16 50 -4 93 -11
96 -16 3 -5 25 -9 49 -9 24 0 46 -4 49 -9 4 -5 49 -12 101 -16 52 -4 98 -11
101 -16 3 -5 27 -9 55 -9 27 0 49 -4 49 -9 0 -5 24 -12 53 -15 137 -14 256
-32 263 -38 4 -5 28 -8 54 -8 25 0 51 -5 57 -11 5 -5 38 -9 74 -7 57 3 65 6
79 31 13 24 13 30 0 55 -17 29 -55 41 -200 62 -36 5 -110 16 -165 25 -55 9
-122 18 -150 21 -27 3 -59 9 -70 14 -11 5 -42 11 -70 15 -123 16 -221 32 -235
37 -17 7 -48 12 -192 30 -54 6 -98 15 -98 20 0 4 -22 8 -49 8 -28 0 -52 4 -55
9 -3 5 -47 12 -96 16 -101 8 -105 16 -24 56 55 26 105 73 127 118 18 37 25
205 8 215 -5 3 -12 18 -16 33 -7 30 -53 74 -105 100 -19 10 -42 25 -50 33 -8
8 -31 24 -50 34 -19 11 -44 24 -55 30 -10 6 -25 17 -33 24 -7 6 -20 12 -28 12
-8 0 -14 5 -14 10 0 6 -7 10 -15 10 -8 0 -15 3 -15 8 0 4 -17 16 -37 27 -44
23 -146 86 -153 94 -3 3 -23 15 -45 26 -22 11 -49 28 -60 38 -11 10 -30 20
-42 23 -13 4 -23 10 -23 14 0 5 -20 18 -44 30 -24 11 -50 28 -56 36 -7 7 -19
14 -26 14 -8 0 -14 4 -14 9 0 5 -11 12 -25 15 -14 4 -25 11 -25 16 0 6 -5 10
-10 10 -9 0 -157 89 -246 148 -10 7 -27 15 -36 18 -10 4 -18 10 -18 14 0 4 -8
10 -17 14 -10 3 -31 14 -48 24 -153 96 -202 122 -229 122 -17 0 -40 2 -51 4
-11 2 -40 1 -65 -3z m96 -808 c11 -10 36 -27 57 -37 20 -11 37 -23 37 -28 0
-4 5 -8 10 -8 6 0 39 -18 74 -40 35 -22 68 -40 75 -40 6 0 11 -4 11 -10 0 -5
7 -10 15 -10 8 0 15 -3 15 -8 0 -4 9 -12 19 -17 11 -6 35 -18 55 -29 20 -10
36 -22 36 -27 0 -5 5 -9 12 -9 6 0 46 -22 89 -50 43 -27 84 -50 91 -50 7 -1 1
-7 -13 -15 -20 -11 -41 -12 -100 -4 -41 6 -82 14 -91 20 -10 5 -31 9 -47 9
-17 0 -32 4 -35 9 -3 5 -37 12 -76 16 -39 4 -73 11 -76 16 -3 5 -20 9 -39 9
-19 0 -36 4 -39 9 -3 5 -20 11 -38 15 -65 11 -163 33 -178 39 -8 3 -25 7 -37
9 -22 3 -22 5 -9 30 25 47 51 93 56 98 9 9 51 85 57 103 3 9 15 17 27 17 12 0
31 -8 42 -17z"/>
</g>
</svg>
