<?xml version="1.0" standalone="no"?>
<!DOCTYPE svg PUBLIC "-//W3C//DTD SVG 20010904//EN"
 "http://www.w3.org/TR/2001/REC-SVG-20010904/DTD/svg10.dtd">
<svg version="1.0" xmlns="http://www.w3.org/2000/svg"
 width="650.000000pt" height="650.000000pt" viewBox="0 0 650.000000 650.000000"
 preserveAspectRatio="xMidYMid meet">
<metadata>
Created by potrace 1.15, written by Peter Selinger 2001-2017
</metadata>
<g transform="translate(0.000000,650.000000) scale(0.100000,-0.100000)"
fill="#000000" stroke="none">
<path d="M2140 6041 c0 -4 -23 -11 -52 -14 -28 -4 -56 -11 -62 -17 -5 -5 -18
-10 -28 -10 -10 0 -18 -4 -18 -10 0 -5 -7 -10 -15 -10 -8 0 -15 -4 -15 -10 0
-5 -6 -10 -13 -10 -30 0 -138 -103 -184 -176 -13 -20 -39 -74 -53 -109 -42
-108 -41 -287 2 -395 19 -46 58 -119 75 -142 47 -59 139 -138 160 -138 7 0 13
-3 13 -8 0 -9 74 -42 94 -42 8 0 18 -4 21 -10 3 -5 19 -10 35 -10 16 0 32 -4
35 -10 4 -6 53 -10 116 -10 66 0 109 4 109 10 0 6 16 10 35 10 19 0 35 5 35
10 0 6 9 10 20 10 25 0 100 32 100 42 0 5 6 8 14 8 16 0 176 155 176 171 0 6
9 24 20 39 11 16 27 52 36 82 9 29 20 63 25 76 12 30 12 194 0 224 -5 13 -15
43 -22 68 -13 46 -30 82 -63 135 -24 38 -157 165 -172 165 -7 0 -14 4 -16 8
-6 15 -103 55 -146 60 -23 2 -45 9 -48 13 -7 12 -214 12 -214 0z"/>
<path d="M4305 4948 c-54 -31 -65 -63 -65 -191 l0 -102 -1283 0 -1283 0 -65
-34 c-35 -18 -89 -48 -119 -66 -30 -18 -138 -81 -240 -140 -204 -118 -227
-135 -261 -202 -20 -38 -24 -60 -23 -127 1 -49 6 -82 13 -84 6 -2 11 -10 11
-18 0 -17 23 -46 79 -98 24 -23 74 -70 111 -106 37 -36 107 -101 156 -145 48
-44 99 -91 114 -105 14 -14 61 -56 105 -95 44 -38 90 -80 102 -92 13 -12 31
-26 40 -32 16 -9 18 -37 23 -323 l5 -313 -33 -57 c-17 -31 -32 -61 -32 -67 0
-6 -3 -11 -7 -11 -5 0 -17 -19 -28 -43 -11 -23 -22 -44 -25 -47 -3 -3 -19 -32
-35 -65 -17 -33 -35 -66 -42 -73 -6 -7 -17 -28 -24 -47 -7 -19 -16 -35 -19
-35 -3 0 -14 -20 -25 -45 -11 -25 -23 -45 -27 -45 -5 0 -8 -7 -8 -15 0 -8 -3
-15 -8 -15 -8 0 -42 -73 -42 -90 0 -6 -4 -10 -8 -10 -5 0 -22 -26 -37 -57 -16
-32 -32 -60 -35 -63 -3 -3 -14 -23 -25 -45 -11 -22 -22 -42 -25 -45 -3 -3 -18
-32 -35 -65 -16 -33 -32 -62 -35 -65 -4 -3 -27 -43 -51 -90 -24 -47 -47 -86
-51 -88 -5 -2 -8 -10 -8 -17 0 -7 -3 -15 -7 -17 -5 -1 -21 -28 -37 -58 -16
-30 -40 -74 -52 -98 -13 -23 -35 -61 -48 -85 -12 -23 -36 -67 -52 -97 -16 -30
-31 -57 -34 -60 -3 -3 -14 -23 -25 -45 -11 -22 -22 -42 -25 -45 -3 -3 -19 -32
-35 -65 -17 -33 -33 -62 -36 -65 -6 -5 -13 -33 -25 -106 -4 -18 -1 -35 5 -38
6 -4 11 -17 11 -30 0 -65 94 -161 168 -172 61 -9 195 1 200 15 2 6 8 11 13 11
13 0 69 51 69 63 0 6 7 18 15 27 8 9 28 41 44 71 41 80 65 123 71 129 3 3 17
28 31 55 54 105 84 160 89 165 3 3 14 23 25 45 11 22 23 42 26 45 3 3 12 20
20 37 8 18 17 33 21 33 5 0 8 6 8 13 0 7 11 28 24 47 13 19 27 46 31 60 4 14
10 27 14 30 6 5 25 36 50 85 9 16 18 32 21 35 3 3 17 28 31 55 15 28 39 75 55
105 16 30 31 57 34 60 6 6 14 21 71 126 23 44 49 90 58 104 9 14 25 43 36 65
11 22 22 42 25 45 5 5 13 20 75 135 50 92 79 145 114 205 17 30 42 75 54 100
12 25 24 47 27 50 3 3 12 18 20 34 14 27 15 27 28 10 15 -20 254 -360 337
-479 27 -38 62 -88 77 -110 16 -22 40 -58 55 -79 14 -22 29 -44 34 -50 27 -33
78 -106 88 -124 6 -11 17 -26 23 -34 7 -7 37 -49 67 -93 30 -44 57 -82 60 -85
3 -3 30 -41 60 -85 30 -44 57 -82 61 -85 3 -3 14 -18 24 -35 11 -16 23 -34 28
-40 4 -5 43 -59 85 -120 42 -60 81 -114 85 -120 5 -5 22 -30 38 -55 91 -135
124 -180 131 -180 5 0 9 -9 9 -20 0 -11 4 -20 9 -20 8 0 26 -24 66 -90 18 -30
94 -102 121 -116 14 -8 37 -14 50 -14 12 0 26 -4 29 -10 8 -13 72 -13 80 0 3
5 19 10 35 10 15 0 30 3 32 8 2 4 19 15 39 25 20 11 42 30 49 43 8 13 17 24
22 24 4 0 8 8 8 18 0 10 5 23 11 29 20 20 23 118 4 177 -10 31 -22 56 -26 56
-5 0 -9 5 -9 11 0 6 -6 17 -12 24 -27 30 -38 44 -38 50 0 8 -79 117 -107 150
-7 7 -13 16 -13 20 0 6 -84 123 -110 152 -5 7 -10 15 -10 19 0 3 -19 31 -42
63 -24 31 -65 89 -93 128 -59 86 -91 131 -111 158 -8 11 -55 79 -104 150 -49
72 -109 157 -133 190 -24 33 -56 78 -70 100 -15 22 -54 78 -88 125 -33 47 -86
123 -119 170 -58 85 -208 299 -294 419 l-46 64 0 624 0 623 781 0 781 0 52 26
c28 14 60 33 71 43 11 10 36 24 55 31 91 34 100 60 100 275 l0 175 280 0 c154
0 280 4 280 8 0 4 13 12 28 18 31 12 62 66 62 108 0 44 -27 94 -62 116 -32 19
-49 20 -398 20 -257 -1 -371 -4 -385 -12z"/>
</g>
</svg>
