<?xml version="1.0" standalone="no"?>
<!DOCTYPE svg PUBLIC "-//W3C//DTD SVG 20010904//EN"
 "http://www.w3.org/TR/2001/REC-SVG-20010904/DTD/svg10.dtd">
<svg version="1.0" xmlns="http://www.w3.org/2000/svg"
 width="650.000000pt" height="650.000000pt" viewBox="0 0 650.000000 650.000000"
 preserveAspectRatio="xMidYMid meet">
<metadata>
Created by potrace 1.15, written by Peter Selinger 2001-2017
</metadata>
<g transform="translate(0.000000,650.000000) scale(0.100000,-0.100000)"
fill="#000000" stroke="none">
<path d="M3445 4886 c-74 -24 -85 -28 -85 -36 0 -5 -9 -11 -20 -15 -34 -11
-88 -74 -122 -143 -30 -60 -33 -75 -33 -157 0 -79 3 -97 29 -149 34 -69 84
-128 129 -152 113 -59 109 -58 214 -59 69 0 106 4 115 13 6 6 20 12 30 12 10
0 18 3 18 8 0 4 14 13 31 21 66 29 135 125 168 232 14 44 14 126 1 134 -5 3
-10 16 -10 29 0 67 -96 191 -181 233 -88 44 -199 55 -284 29z"/>
<path d="M4210 4732 c0 -4 -13 -12 -28 -18 -31 -12 -57 -49 -209 -294 -138
-223 -133 -207 -133 -389 l0 -156 -43 -23 c-23 -13 -80 -44 -127 -69 -47 -25
-114 -62 -150 -83 -36 -20 -105 -59 -155 -85 -142 -76 -229 -127 -245 -144
-30 -32 -43 -72 -43 -129 1 -80 34 -132 105 -161 54 -23 88 -26 116 -12 9 4
37 18 62 29 52 25 163 84 170 92 3 3 16 10 30 17 14 6 80 41 145 78 66 37 152
84 190 105 39 20 88 47 110 60 22 12 63 35 90 50 28 15 62 44 77 66 l27 39 1
198 c0 109 4 197 9 195 9 -3 143 -122 205 -183 23 -22 80 -75 126 -117 47 -42
114 -104 150 -137 l65 -61 -30 -27 c-16 -16 -59 -53 -95 -83 -35 -30 -78 -67
-95 -83 -16 -15 -71 -62 -122 -105 -50 -42 -100 -93 -110 -112 -10 -19 -21
-37 -25 -40 -4 -3 -10 -156 -13 -340 -2 -184 -7 -465 -10 -625 -6 -286 -6
-290 17 -333 26 -51 61 -82 94 -82 12 0 26 -5 29 -10 8 -12 59 -13 83 -1 9 4
33 16 53 25 65 31 73 58 81 261 3 99 10 356 13 570 l7 390 27 24 c40 37 127
115 143 127 15 12 88 74 178 154 134 117 128 113 165 107 57 -9 65 -25 65
-120 0 -46 3 -87 8 -91 6 -7 13 -89 38 -438 3 -43 10 -78 15 -78 5 0 9 -8 9
-18 0 -25 39 -66 145 -153 50 -41 95 -79 100 -85 6 -5 26 -22 45 -36 19 -15
47 -37 62 -50 15 -13 55 -45 90 -73 35 -27 72 -58 82 -67 11 -10 23 -18 27
-18 5 0 19 -11 33 -25 14 -14 30 -25 35 -25 6 0 21 -11 35 -25 14 -14 30 -25
36 -25 5 0 10 -3 10 -8 0 -4 16 -16 35 -26 19 -11 35 -22 35 -26 0 -5 11 -11
25 -14 14 -4 25 -11 25 -16 0 -6 6 -10 14 -10 8 0 16 -3 18 -7 6 -14 65 -43
87 -43 12 0 21 -4 21 -10 0 -5 11 -10 25 -10 14 0 34 -6 45 -12 16 -10 24 -10
40 0 11 6 31 12 45 12 14 0 25 4 25 9 0 5 8 12 18 15 9 3 27 21 40 39 18 27
22 47 22 110 0 75 -1 77 -38 117 -22 22 -46 40 -56 40 -15 0 -54 18 -66 30 -3
3 -22 14 -43 25 -21 11 -49 30 -64 42 -14 13 -29 23 -32 23 -3 0 -19 11 -35
25 -16 14 -32 25 -36 25 -3 0 -15 8 -26 18 -10 10 -37 31 -59 47 -22 17 -49
37 -60 47 -23 19 -101 82 -130 105 -11 9 -34 28 -50 42 -17 14 -51 42 -75 61
-118 93 -117 91 -130 225 -19 185 -30 322 -36 415 -3 47 -10 89 -15 95 -5 5
-9 40 -9 77 0 96 -19 134 -97 189 -35 25 -103 84 -151 130 -48 46 -116 109
-150 139 -60 52 -71 63 -98 93 -6 7 -39 37 -74 67 -34 30 -93 84 -130 120 -37
36 -98 92 -135 125 -37 33 -96 87 -130 120 -125 121 -185 174 -216 189 -33 16
-149 23 -149 8z"/>
<path d="M3655 3000 c-3 -5 -17 -10 -31 -10 -13 0 -24 -4 -24 -9 0 -5 -11 -12
-25 -15 -35 -9 -126 -103 -149 -154 l-19 -42 -13 26 c-8 15 -14 33 -14 40 0 8
-20 35 -45 59 l-45 45 -607 -4 c-335 -3 -680 -9 -768 -13 -179 -9 -208 -18
-245 -78 -19 -31 -22 -47 -18 -116 2 -44 8 -83 14 -87 6 -4 24 -27 39 -52 15
-25 31 -47 34 -50 4 -3 47 -66 96 -140 50 -74 94 -138 100 -142 5 -4 -188 -8
-430 -10 -339 -2 -439 -6 -443 -15 -2 -7 -9 -13 -15 -13 -13 0 -54 -48 -74
-87 -36 -69 6 -184 81 -223 25 -13 120 -15 669 -15 503 0 641 3 645 13 2 6 9
12 16 12 13 0 42 31 64 68 6 12 12 49 12 82 0 49 -5 68 -27 103 -16 23 -31 44
-35 45 -5 2 -8 10 -8 18 0 8 -3 14 -8 14 -4 0 -16 16 -26 35 -11 19 -23 35
-28 35 -4 0 -8 4 -8 10 0 5 -11 26 -25 46 -14 20 -25 40 -25 43 0 7 303 4 457
-5 l102 -6 3 -263 3 -263 44 -41 43 -41 429 0 c242 0 429 4 429 9 0 5 9 11 20
14 31 8 80 94 80 143 0 72 -44 147 -94 160 -14 3 -29 10 -32 15 -3 5 -133 9
-290 9 l-284 0 0 141 c0 140 0 142 28 173 15 17 41 49 57 70 17 22 44 56 60
76 17 21 35 46 42 56 10 17 12 15 12 -18 1 -54 44 -169 81 -219 67 -88 151
-131 273 -137 107 -5 162 8 239 60 99 66 147 150 155 269 11 157 -69 293 -212
357 -16 8 -38 18 -47 23 -24 12 -205 12 -213 -1z"/>
</g>
</svg>
