<?xml version="1.0" standalone="no"?>
<!DOCTYPE svg PUBLIC "-//W3C//DTD SVG 20010904//EN"
 "http://www.w3.org/TR/2001/REC-SVG-20010904/DTD/svg10.dtd">
<svg version="1.0" xmlns="http://www.w3.org/2000/svg"
 width="650.000000pt" height="650.000000pt" viewBox="0 0 650.000000 650.000000"
 preserveAspectRatio="xMidYMid meet">
<metadata>
Created by potrace 1.15, written by Peter Selinger 2001-2017
</metadata>
<g transform="translate(0.000000,650.000000) scale(0.100000,-0.100000)"
fill="#000000" stroke="none">
<path d="M3605 6051 c-43 -19 -100 -78 -117 -120 -6 -14 -15 -37 -20 -51 -6
-14 -14 -32 -18 -40 -4 -9 -11 -31 -15 -50 -4 -19 -11 -41 -15 -50 -14 -27
-28 -64 -45 -115 -18 -53 -33 -90 -45 -115 -4 -9 -11 -31 -15 -50 -4 -19 -11
-41 -15 -50 -12 -25 -27 -62 -45 -115 -9 -27 -20 -59 -25 -70 -25 -60 -40
-108 -40 -125 0 -11 -4 -20 -10 -20 -5 0 -10 -9 -10 -19 0 -11 -4 -22 -9 -26
-6 -3 -13 -26 -17 -50 -3 -25 -10 -45 -15 -45 -5 0 -9 -11 -9 -25 0 -14 -4
-25 -10 -25 -5 0 -10 -11 -10 -24 0 -14 -4 -27 -9 -31 -5 -3 -13 -20 -17 -37
-3 -18 -10 -39 -14 -48 -10 -20 -22 -51 -49 -130 -13 -36 -39 -108 -58 -160
-20 -52 -40 -114 -47 -137 -6 -24 -14 -43 -18 -43 -5 0 -8 -9 -8 -20 0 -11 -4
-28 -9 -38 -21 -42 -41 -94 -41 -107 0 -15 -4 -24 -27 -70 -6 -12 -14 -36 -18
-55 -4 -19 -11 -41 -15 -50 -12 -25 -27 -62 -45 -115 -9 -27 -20 -59 -25 -70
-5 -11 -16 -42 -25 -70 -18 -53 -33 -90 -45 -115 -4 -9 -11 -31 -15 -50 -4
-19 -12 -43 -18 -55 -23 -46 -27 -55 -27 -69 0 -7 -7 -27 -15 -42 -8 -16 -15
-36 -15 -45 0 -9 -3 -19 -7 -23 -4 -4 -15 -31 -24 -59 -10 -29 -22 -51 -28
-50 -5 2 -79 51 -163 111 -350 247 -689 483 -703 488 -19 8 -19 24 0 60 8 16
15 37 15 47 0 9 5 17 10 17 6 0 10 6 10 14 0 7 7 27 15 42 8 16 15 37 15 46 0
9 5 20 10 23 5 3 10 15 10 26 0 10 4 19 8 19 4 0 14 17 21 38 14 38 27 71 55
134 9 20 16 43 16 52 0 9 5 16 10 16 6 0 10 6 10 13 0 7 9 32 20 55 11 23 23
56 27 72 3 17 9 30 13 30 4 0 16 27 26 60 11 33 22 60 25 60 4 0 15 27 25 60
11 33 22 60 27 60 4 0 7 6 7 13 0 8 11 36 25 63 14 27 25 59 25 72 0 12 3 22
8 22 9 0 30 46 38 88 4 17 10 32 15 32 5 0 9 4 9 10 0 5 11 34 25 64 14 30 25
59 25 64 0 5 11 31 25 58 14 27 25 54 25 61 0 6 9 28 19 50 11 21 29 63 41 93
12 30 31 74 41 97 11 23 19 46 19 51 0 4 9 27 20 50 21 43 27 138 11 170 -5 9
-17 34 -27 55 -42 87 -111 120 -239 115 -90 -3 -93 -4 -139 -41 -52 -43 -64
-63 -131 -227 -26 -63 -55 -133 -65 -155 -10 -22 -37 -87 -60 -145 -23 -58
-50 -122 -60 -143 -11 -20 -22 -53 -26 -72 -3 -19 -9 -35 -13 -35 -6 0 -15
-19 -48 -105 -9 -22 -26 -63 -39 -91 -13 -28 -24 -61 -24 -72 0 -12 -3 -22 -8
-22 -9 0 -30 -46 -38 -88 -4 -17 -9 -32 -13 -32 -3 0 -12 -15 -20 -32 -7 -18
-19 -47 -27 -65 -8 -17 -14 -35 -14 -40 0 -5 -11 -32 -25 -59 -14 -27 -25 -59
-25 -71 0 -13 -3 -23 -8 -23 -4 0 -13 -15 -21 -32 -7 -18 -20 -49 -27 -68 -8
-19 -19 -43 -24 -52 -6 -10 -10 -25 -10 -33 0 -8 -4 -15 -9 -15 -5 0 -12 -16
-16 -36 -6 -33 -22 -71 -35 -84 -3 -3 -14 -30 -24 -60 -10 -30 -23 -59 -27
-64 -5 -6 -9 -18 -9 -28 0 -10 -4 -18 -10 -18 -5 0 -10 -8 -10 -17 0 -10 -7
-31 -15 -47 -8 -15 -15 -35 -15 -42 0 -8 -3 -14 -8 -14 -4 0 -16 -27 -26 -60
-11 -33 -23 -60 -28 -60 -4 0 -8 -9 -8 -19 0 -11 -4 -23 -10 -26 -5 -3 -10
-14 -10 -23 0 -9 -7 -30 -15 -46 -8 -15 -15 -35 -15 -42 0 -8 -3 -14 -8 -14
-7 0 -27 -51 -39 -97 -3 -13 -9 -23 -14 -23 -5 0 -9 -9 -9 -19 0 -11 -4 -22
-9 -25 -5 -3 -12 -22 -15 -41 -4 -19 -11 -35 -16 -35 -6 0 -10 -9 -10 -19 0
-11 -5 -23 -10 -26 -6 -3 -10 -14 -10 -23 0 -9 -7 -30 -15 -46 -8 -15 -15 -37
-15 -47 0 -10 -4 -21 -10 -24 -13 -8 -13 -92 0 -100 6 -3 10 -22 10 -41 0 -19
4 -34 9 -34 4 0 12 -31 15 -70 4 -38 11 -72 17 -75 5 -4 9 -22 9 -41 0 -19 4
-34 9 -34 5 0 12 -32 16 -70 4 -39 11 -73 16 -76 5 -3 9 -21 9 -40 0 -19 4
-34 9 -34 4 0 11 -19 14 -43 9 -68 29 -161 38 -179 5 -10 9 -28 9 -41 0 -13 3
-27 8 -31 4 -4 12 -38 19 -74 15 -85 23 -123 31 -142 7 -18 31 -131 39 -183 3
-20 9 -40 14 -43 5 -3 9 -21 9 -40 0 -19 4 -34 9 -34 5 0 12 -32 16 -70 4 -39
11 -73 16 -76 5 -3 9 -18 9 -33 0 -15 3 -31 8 -35 6 -7 14 -45 38 -184 4 -18
10 -35 15 -38 5 -3 9 -21 9 -40 0 -19 4 -34 9 -34 4 0 12 -31 15 -70 4 -38 11
-72 17 -75 5 -4 9 -22 9 -41 0 -19 4 -34 9 -34 4 0 12 -31 15 -70 4 -38 11
-72 17 -75 5 -4 9 -22 9 -41 0 -19 5 -34 10 -34 6 0 10 -7 10 -17 0 -17 43
-78 70 -101 33 -27 122 -62 158 -62 142 1 262 124 262 270 0 32 -4 62 -10 65
-5 3 -10 19 -10 34 0 15 -3 31 -7 35 -7 7 -15 45 -39 184 -4 18 -10 35 -15 38
-5 3 -9 20 -9 39 0 19 -4 36 -9 39 -5 3 -12 35 -16 71 -3 36 -11 67 -16 70 -5
4 -9 19 -9 36 0 16 -4 37 -10 47 -9 16 -25 95 -37 175 -3 20 -9 37 -14 37 -5
0 -9 15 -9 34 0 19 -4 37 -9 40 -5 3 -12 35 -16 71 -3 36 -11 67 -16 70 -5 4
-9 21 -9 40 0 19 -4 36 -9 39 -5 3 -12 35 -16 71 -3 36 -11 67 -16 70 -5 4 -9
21 -9 40 0 19 -4 37 -10 40 -5 3 -10 21 -10 40 0 19 -4 36 -9 40 -5 3 -13 34
-16 70 -4 36 -11 65 -16 65 -5 0 -9 18 -9 40 0 22 -4 40 -9 40 -5 0 -12 32
-16 70 -4 39 -11 73 -16 76 -5 3 -9 18 -9 34 0 16 -4 32 -10 35 -5 3 -10 18
-10 32 0 15 -7 53 -16 85 -9 32 -14 61 -11 64 3 4 38 -16 77 -42 40 -27 96
-65 125 -84 30 -19 80 -53 112 -74 32 -22 87 -59 123 -82 36 -24 105 -70 153
-103 49 -33 91 -61 95 -63 4 -2 47 -30 96 -63 48 -33 118 -79 154 -103 37 -23
74 -48 82 -55 9 -7 22 -16 30 -20 8 -4 29 -16 45 -26 17 -11 40 -20 53 -20 12
-1 22 -5 22 -11 0 -14 2876 -14 2885 0 3 6 17 10 31 10 13 0 24 5 24 10 0 6 7
10 16 10 20 0 77 59 101 102 24 46 24 180 -1 228 -22 43 -75 100 -93 100 -7 0
-13 5 -13 10 0 6 -9 10 -20 10 -11 0 -20 5 -20 10 0 7 -430 10 -1271 10
l-1270 0 6 23 c6 21 11 34 33 87 5 14 17 48 27 75 9 28 20 59 25 70 5 11 28
74 51 140 23 66 47 134 55 150 7 17 22 59 34 95 11 36 25 74 30 85 5 11 16 40
24 65 8 25 51 146 96 270 45 124 86 236 90 250 4 14 27 77 50 140 23 63 51
142 62 175 19 60 33 96 48 125 4 9 11 31 15 50 7 32 11 41 35 90 6 11 10 26
10 35 0 8 7 31 16 52 9 21 21 49 27 63 5 14 13 33 18 42 5 9 12 35 15 58 4 22
10 40 15 40 5 0 9 9 9 19 0 11 4 22 9 26 6 3 13 26 17 50 3 25 10 45 15 45 5
0 9 11 9 24 0 13 3 26 8 28 9 4 42 98 42 121 0 9 5 17 10 17 6 0 10 11 10 25
0 14 4 25 9 25 6 0 13 20 17 45 3 25 10 45 15 45 5 0 9 11 9 25 0 14 5 25 10
25 6 0 10 11 10 24 0 14 4 27 9 30 5 4 12 24 16 46 4 22 11 40 16 40 5 0 9 11
9 25 0 14 4 25 9 25 5 0 11 18 15 40 3 22 14 54 24 72 10 18 23 52 30 74 15
50 16 170 2 179 -5 3 -10 15 -10 26 0 10 -4 19 -10 19 -5 0 -10 5 -10 11 0 17
-52 66 -95 88 -53 28 -172 29 -230 2z"/>
<path d="M380 4423 c-14 -2 -29 -9 -34 -14 -6 -5 -16 -9 -23 -9 -25 0 -127
-71 -174 -121 -26 -27 -64 -83 -85 -126 l-39 -78 0 -130 0 -130 39 -79 c40
-82 124 -177 181 -206 17 -8 32 -18 35 -21 9 -12 100 -39 130 -39 16 0 32 -4
35 -10 8 -12 152 -13 159 -1 3 4 29 11 57 15 45 6 85 21 99 37 3 3 12 9 20 13
41 19 65 37 98 73 56 60 72 81 89 121 8 20 19 45 24 54 5 10 9 27 9 37 0 11 5
23 10 26 6 3 10 52 10 110 0 58 -4 107 -10 110 -5 3 -10 19 -10 36 0 16 -4 29
-9 29 -5 0 -12 16 -15 35 -4 19 -11 35 -16 35 -6 0 -10 6 -10 13 0 19 -136
157 -155 157 -8 0 -15 5 -15 10 0 6 -9 10 -20 10 -11 0 -20 5 -20 10 0 6 -8
10 -18 10 -10 0 -24 6 -30 12 -13 13 -261 22 -312 11z"/>
</g>
</svg>
