<?xml version="1.0" standalone="no"?>
<!DOCTYPE svg PUBLIC "-//W3C//DTD SVG 20010904//EN"
 "http://www.w3.org/TR/2001/REC-SVG-20010904/DTD/svg10.dtd">
<svg version="1.0" xmlns="http://www.w3.org/2000/svg"
 width="650.000000pt" height="650.000000pt" viewBox="0 0 650.000000 650.000000"
 preserveAspectRatio="xMidYMid meet">
<metadata>
Created by potrace 1.15, written by Peter Selinger 2001-2017
</metadata>
<g transform="translate(0.000000,650.000000) scale(0.100000,-0.100000)"
fill="#000000" stroke="none">
<path d="M4558 5866 c-10 -7 -24 -28 -32 -46 -12 -31 -11 -40 24 -139 44 -125
49 -139 60 -166 5 -11 16 -45 24 -75 9 -30 20 -64 25 -75 5 -11 16 -47 26 -80
9 -33 21 -68 26 -77 5 -10 9 -27 9 -37 0 -11 4 -22 9 -25 5 -4 12 -29 16 -56
4 -27 11 -52 16 -56 5 -3 9 -18 9 -33 0 -15 3 -31 7 -35 8 -8 31 -100 40 -159
3 -20 9 -40 14 -43 5 -3 9 -21 9 -40 0 -19 4 -34 9 -34 5 0 12 -36 16 -80 4
-44 11 -83 16 -86 5 -3 9 -24 9 -48 0 -23 3 -46 8 -50 14 -14 54 -482 53 -616
-2 -168 -35 -545 -51 -572 -6 -10 -10 -33 -10 -52 0 -19 -4 -37 -9 -40 -4 -3
-11 -33 -15 -67 -4 -34 -11 -69 -16 -78 -4 -9 -13 -34 -19 -56 -26 -95 -43
-151 -52 -167 -5 -10 -9 -27 -9 -38 0 -11 -4 -20 -10 -20 -5 0 -10 -9 -10 -21
0 -12 -6 -35 -14 -52 -7 -18 -23 -53 -35 -79 -11 -26 -21 -51 -21 -55 0 -23
-234 -470 -261 -498 -5 -5 -9 -30 -9 -55 0 -60 37 -100 93 -100 20 0 37 5 37
10 0 6 6 10 13 10 28 0 259 425 318 586 12 32 25 64 29 69 16 24 122 353 140
440 6 28 15 68 21 90 5 22 19 96 30 165 11 69 25 154 32 190 16 88 16 711 0
800 -7 36 -19 121 -28 190 -9 69 -20 141 -25 160 -5 19 -13 60 -19 90 -19 104
-57 257 -116 475 -16 59 -42 144 -112 355 -33 103 -46 137 -64 172 -5 10 -9
26 -9 35 -1 29 -58 154 -77 169 -23 17 -93 17 -115 0z"/>
<path d="M2775 5390 c-3 -5 -22 -10 -40 -10 -32 0 -114 -26 -125 -40 -3 -3
-21 -13 -40 -22 -43 -20 -168 -151 -176 -184 -3 -13 -10 -24 -15 -24 -5 0 -9
-8 -9 -18 0 -10 -3 -22 -7 -26 -29 -29 -43 -227 -22 -295 42 -130 62 -164 145
-246 63 -62 69 -66 119 -88 22 -10 48 -22 57 -27 10 -6 26 -10 36 -10 10 0 23
-5 29 -11 6 -6 53 -9 129 -6 123 5 184 14 184 27 0 4 16 11 35 14 19 4 35 11
35 16 0 6 5 10 11 10 34 0 150 112 176 170 4 8 9 17 13 20 13 11 40 79 40 103
0 14 5 29 10 32 6 4 10 53 10 116 0 66 -4 109 -10 109 -5 0 -10 11 -10 25 0
34 -30 107 -52 126 -10 9 -18 21 -18 28 0 17 -118 131 -135 131 -8 0 -15 5
-15 10 0 6 -7 10 -15 10 -8 0 -15 5 -15 10 0 6 -9 10 -19 10 -11 0 -22 4 -26
9 -3 6 -27 13 -53 16 -26 3 -55 10 -64 16 -23 12 -155 12 -163 -1z"/>
<path d="M1828 4574 c-94 -34 -160 -100 -179 -181 -5 -21 -14 -74 -20 -118 -6
-51 -17 -87 -28 -100 -48 -53 -51 -74 -51 -342 0 -251 0 -254 25 -303 29 -58
84 -101 157 -126 157 -52 328 81 328 254 0 19 5 52 12 73 l11 39 144 0 143 0
0 -554 0 -554 -27 -54 c-15 -29 -30 -55 -33 -58 -9 -7 -40 -77 -40 -88 0 -6
-3 -12 -7 -14 -5 -1 -20 -25 -34 -53 -64 -124 -85 -160 -91 -163 -5 -2 -8 -12
-8 -23 0 -10 -4 -19 -9 -19 -5 0 -12 -13 -16 -30 -4 -17 -10 -30 -13 -30 -4 0
-12 -10 -18 -23 -23 -49 -119 -232 -124 -237 -3 -3 -18 -30 -33 -60 -66 -129
-180 -346 -187 -355 -4 -5 -40 -73 -80 -150 -41 -77 -111 -209 -157 -294 -46
-85 -89 -176 -94 -203 -12 -54 -5 -125 16 -173 19 -44 93 -115 119 -115 8 0
18 -5 21 -10 8 -13 185 -13 185 0 0 6 7 10 15 10 25 0 96 66 119 110 7 14 26
50 43 80 17 30 54 100 83 155 29 55 69 129 88 165 19 36 56 106 82 155 26 50
89 169 140 265 291 548 359 675 389 735 14 28 29 52 34 53 4 2 7 8 7 13 0 16
35 89 42 89 5 0 8 6 8 14 0 37 24 21 67 -46 26 -40 50 -74 55 -76 4 -2 8 -7 8
-12 0 -10 82 -134 92 -138 4 -2 8 -10 8 -17 0 -7 3 -15 8 -17 4 -1 27 -34 52
-73 24 -38 47 -72 51 -75 3 -3 26 -36 50 -75 23 -38 46 -72 50 -75 3 -3 23
-30 42 -60 20 -30 63 -95 97 -144 33 -49 60 -93 60 -98 0 -4 4 -8 9 -8 5 0 13
-10 17 -22 4 -13 10 -25 13 -28 7 -5 48 -62 66 -91 47 -75 94 -146 113 -169
12 -15 22 -32 22 -38 0 -6 3 -12 8 -14 4 -2 25 -30 46 -63 21 -33 45 -69 52
-80 23 -33 88 -129 99 -146 102 -156 146 -199 205 -199 11 0 20 -4 20 -10 0
-13 94 -13 118 -1 9 6 29 12 45 16 38 8 106 72 128 120 24 52 26 173 3 218 -9
18 -60 96 -113 175 -53 79 -119 180 -148 224 -29 45 -59 90 -68 102 -9 12 -60
89 -115 171 -55 83 -103 155 -108 161 -5 6 -22 30 -37 55 -16 24 -34 50 -42
57 -7 7 -13 20 -13 28 0 8 -3 14 -7 14 -5 0 -21 21 -38 48 -16 26 -35 54 -42
62 -26 33 -123 184 -123 192 0 4 -4 8 -9 8 -5 0 -13 10 -17 23 -4 12 -9 24
-13 27 -12 9 -61 79 -61 86 0 4 -8 14 -19 23 -10 9 -21 26 -25 39 -4 12 -12
22 -17 22 -5 0 -9 7 -9 15 0 8 -4 15 -8 15 -5 0 -16 16 -25 35 -9 19 -21 35
-27 35 -5 0 -10 9 -10 20 0 11 -3 20 -8 20 -4 0 -16 16 -26 35 -11 19 -23 35
-28 35 -4 0 -8 6 -8 14 0 7 -7 19 -16 26 -13 11 -14 32 -10 129 3 64 11 292
18 508 8 234 17 396 23 402 6 6 107 12 245 15 1285 24 1246 21 1319 89 68 65
85 104 86 192 0 70 -4 86 -28 128 -30 51 -94 104 -136 113 -14 3 -35 10 -47
15 -12 7 -116 8 -275 5 -140 -3 -705 -8 -1256 -12 l-1003 -6 0 55 c0 117 -71
204 -201 246 -44 14 -73 13 -121 -5z"/>
</g>
</svg>
