<?xml version="1.0" standalone="no"?>
<!DOCTYPE svg PUBLIC "-//W3C//DTD SVG 20010904//EN"
 "http://www.w3.org/TR/2001/REC-SVG-20010904/DTD/svg10.dtd">
<svg version="1.0" xmlns="http://www.w3.org/2000/svg"
 width="650.000000pt" height="650.000000pt" viewBox="0 0 650.000000 650.000000"
 preserveAspectRatio="xMidYMid meet">
<metadata>
Created by potrace 1.15, written by Peter Selinger 2001-2017
</metadata>
<g transform="translate(0.000000,650.000000) scale(0.100000,-0.100000)"
fill="#000000" stroke="none">
<path d="M3175 5654 c-139 -22 -288 -107 -370 -212 -157 -199 -164 -462 -18
-669 270 -385 871 -296 1019 151 18 56 24 93 24 174 0 56 -4 110 -9 120 -4 9
-16 42 -26 72 -31 97 -123 211 -221 275 -102 66 -284 106 -399 89z"/>
<path d="M2755 4527 c-45 -25 -77 -54 -120 -112 -16 -22 -35 -47 -42 -55 -6
-8 -34 -42 -60 -75 -26 -33 -56 -69 -65 -79 -10 -11 -18 -23 -18 -27 0 -5 -11
-19 -25 -33 -14 -14 -25 -29 -25 -35 0 -5 -3 -11 -8 -13 -4 -1 -23 -23 -42
-48 -19 -25 -37 -47 -40 -50 -3 -3 -19 -23 -35 -45 -16 -22 -35 -47 -42 -55
-6 -8 -28 -35 -47 -60 -20 -25 -44 -54 -54 -66 -11 -11 -28 -34 -38 -50 -10
-16 -29 -39 -41 -52 -13 -13 -23 -28 -23 -34 0 -5 -11 -18 -24 -29 -13 -10
-29 -33 -37 -51 -7 -18 -17 -36 -22 -39 -5 -4 -9 -45 -9 -92 -1 -121 17 -154
137 -250 33 -26 80 -64 104 -85 24 -20 54 -44 66 -52 12 -8 34 -27 50 -42 23
-22 27 -30 17 -40 -7 -7 -12 -22 -12 -35 0 -13 -4 -23 -9 -23 -5 0 -11 -12
-14 -27 -12 -61 -32 -132 -40 -139 -4 -4 -7 -18 -7 -30 0 -13 -4 -26 -10 -29
-5 -3 -12 -28 -16 -55 -4 -28 -10 -50 -15 -50 -5 0 -9 -10 -9 -23 0 -13 -3
-27 -7 -31 -13 -12 -43 -100 -43 -123 0 -13 -4 -23 -10 -23 -5 0 -10 -11 -10
-24 0 -14 -4 -27 -9 -30 -5 -4 -12 -29 -16 -56 -4 -27 -11 -52 -16 -56 -5 -3
-9 -16 -9 -30 0 -13 -4 -24 -9 -24 -5 0 -12 -25 -16 -55 -3 -30 -11 -55 -16
-55 -5 0 -9 -11 -9 -24 0 -14 -4 -28 -10 -31 -5 -3 -10 -17 -10 -30 0 -13 -4
-26 -9 -29 -5 -3 -12 -27 -16 -52 -4 -26 -11 -56 -17 -68 -24 -47 -27 -56 -34
-105 -4 -28 -10 -51 -15 -51 -5 0 -9 -9 -9 -20 0 -11 -4 -28 -9 -38 -13 -25
-41 -121 -41 -143 0 -10 -4 -21 -10 -24 -5 -3 -10 -17 -10 -30 0 -13 -4 -26
-9 -30 -6 -3 -13 -26 -17 -50 -3 -25 -10 -48 -15 -51 -5 -3 -9 -14 -9 -25 0
-10 -4 -27 -9 -37 -9 -18 -30 -84 -51 -162 -6 -25 -16 -53 -21 -62 -5 -9 -12
-35 -15 -58 -4 -22 -11 -43 -15 -46 -5 -3 -9 -16 -9 -29 0 -13 -4 -26 -9 -29
-5 -3 -12 -26 -15 -51 -4 -24 -11 -47 -17 -50 -5 -4 -9 -15 -9 -26 0 -10 -4
-27 -9 -37 -13 -25 -41 -121 -41 -143 0 -10 -4 -21 -10 -24 -5 -3 -10 -16 -10
-29 0 -12 -6 -28 -12 -34 -16 -16 -18 -249 -3 -260 6 -4 22 -23 36 -42 61 -82
204 -114 300 -69 66 32 129 103 129 146 0 13 5 23 10 23 6 0 10 11 10 24 0 14
4 27 9 30 5 4 12 29 16 56 4 28 11 50 16 50 5 0 9 11 9 24 0 14 5 28 10 31 6
3 10 19 10 35 0 16 4 31 9 35 6 3 13 26 17 50 3 25 10 45 15 45 5 0 9 11 9 24
0 14 4 27 9 31 5 3 13 30 16 60 4 30 11 55 16 55 5 0 9 11 9 24 0 14 4 28 10
31 6 3 10 17 10 30 0 13 4 26 9 29 5 4 12 29 16 56 4 28 11 50 16 50 5 0 9 11
9 24 0 14 4 27 9 30 5 4 12 29 16 56 4 28 11 50 16 50 5 0 9 14 9 30 0 17 4
30 9 30 5 0 11 12 14 27 12 60 31 128 37 133 7 5 14 28 32 117 6 29 15 53 20
53 4 0 8 9 8 20 0 11 4 28 9 38 14 26 41 122 41 143 0 11 5 19 10 19 6 0 10
11 10 24 0 14 4 27 9 30 5 4 12 29 16 56 4 27 11 52 16 56 5 3 9 16 9 30 0 13
5 24 10 24 6 0 10 7 10 15 0 9 8 43 18 76 l17 60 145 -5 c80 -3 584 -10 1120
-15 536 -5 1082 -13 1212 -17 243 -7 246 -7 334 32 40 18 114 98 114 124 0 11
5 20 10 20 6 0 10 33 10 79 0 44 -4 83 -10 86 -5 3 -10 14 -10 24 0 30 -68 99
-125 126 l-55 25 -1096 7 -1096 6 6 30 c3 16 6 127 6 246 l0 217 83 89 c45 49
127 136 183 193 l101 105 83 -59 c45 -32 92 -66 104 -74 11 -8 30 -23 40 -32
11 -10 28 -20 38 -24 10 -3 18 -9 18 -14 0 -5 24 -20 54 -34 43 -20 70 -26
125 -26 111 0 140 19 286 185 33 38 86 96 117 129 32 34 58 64 58 68 0 3 30
37 68 76 37 38 76 81 87 97 19 26 30 37 57 61 7 6 40 41 73 79 33 37 86 94
119 127 45 47 59 69 63 99 3 22 10 39 14 39 12 0 12 107 0 114 -4 3 -11 21
-14 40 -7 46 -60 103 -122 132 -64 30 -152 32 -213 4 -44 -20 -175 -145 -307
-294 -38 -43 -86 -95 -105 -115 -19 -20 -58 -63 -87 -96 -118 -138 -129 -148
-154 -134 -13 6 -32 20 -43 30 -11 11 -23 19 -27 19 -4 0 -14 6 -21 13 -7 7
-38 30 -68 52 -30 22 -59 43 -65 47 -30 24 -92 69 -161 118 -42 30 -101 73
-130 95 -29 22 -70 51 -89 65 -20 14 -42 30 -48 35 -35 30 -158 115 -167 115
-5 0 -10 4 -10 10 0 9 -45 40 -116 81 -50 27 -164 25 -219 -4z"/>
</g>
</svg>
