<?xml version="1.0" standalone="no"?>
<!DOCTYPE svg PUBLIC "-//W3C//DTD SVG 20010904//EN"
 "http://www.w3.org/TR/2001/REC-SVG-20010904/DTD/svg10.dtd">
<svg version="1.0" xmlns="http://www.w3.org/2000/svg"
 width="650.000000pt" height="650.000000pt" viewBox="0 0 650.000000 650.000000"
 preserveAspectRatio="xMidYMid meet">
<metadata>
Created by potrace 1.15, written by Peter Selinger 2001-2017
</metadata>
<g transform="translate(0.000000,650.000000) scale(0.100000,-0.100000)"
fill="#000000" stroke="none">
<path d="M2833 5910 c-34 -22 -67 -40 -73 -40 -5 0 -10 -4 -10 -9 0 -5 -8 -11
-17 -15 -10 -3 -27 -11 -37 -18 -63 -42 -126 -78 -136 -78 -5 0 -10 -4 -10
-10 0 -5 -7 -10 -15 -10 -8 0 -15 -4 -15 -8 0 -4 -15 -15 -32 -23 -56 -26
-103 -54 -106 -61 -2 -5 -9 -8 -16 -8 -7 0 -21 -8 -32 -17 -11 -10 -36 -26
-55 -37 -81 -44 -124 -69 -129 -75 -4 -5 -34 -22 -95 -55 -11 -6 -22 -14 -25
-17 -3 -4 -14 -9 -26 -13 -11 -3 -29 -14 -40 -24 -10 -9 -38 -26 -61 -37 -24
-11 -43 -23 -43 -27 0 -5 -7 -8 -15 -8 -8 0 -15 -4 -15 -10 0 -5 -6 -10 -14
-10 -8 0 -21 -6 -28 -13 -7 -7 -29 -21 -48 -30 -72 -36 -130 -86 -130 -113 0
-8 -4 -14 -10 -14 -5 0 -10 -11 -10 -25 0 -14 -4 -25 -10 -25 -6 0 -10 -30
-10 -70 0 -40 4 -70 10 -70 6 0 10 -9 10 -21 0 -33 65 -119 90 -119 5 0 10 -4
10 -10 0 -5 8 -10 18 -10 10 0 23 -5 29 -11 13 -13 163 -13 176 0 6 6 19 11
29 11 10 0 18 5 18 10 0 6 7 10 15 10 8 0 15 4 15 8 0 4 12 13 28 19 15 7 45
23 67 37 22 14 47 29 55 33 8 3 17 9 20 12 4 5 35 23 95 55 11 6 22 13 25 16
7 7 43 29 60 37 8 4 38 22 67 40 29 18 57 33 63 33 5 0 10 5 10 10 0 6 5 10
11 10 7 0 40 18 75 40 35 22 68 40 74 40 5 0 10 5 10 10 0 6 7 10 15 10 8 0
15 3 15 8 0 4 20 16 45 27 25 11 45 22 45 25 0 3 17 14 38 25 20 11 39 22 42
25 11 11 50 30 62 30 7 0 46 -25 86 -55 40 -30 75 -55 78 -55 3 0 41 -27 85
-60 44 -33 82 -60 85 -60 3 0 29 -18 59 -40 30 -22 59 -40 65 -40 5 0 10 -3
10 -7 0 -5 20 -21 44 -37 l44 -30 -23 -18 c-13 -10 -26 -18 -29 -18 -3 0 -40
-22 -83 -48 -109 -67 -231 -141 -273 -164 -19 -11 -73 -43 -120 -72 -95 -59
-196 -120 -574 -347 -143 -85 -263 -162 -268 -170 -13 -24 -89 -201 -123 -289
-8 -19 -67 -162 -132 -318 -95 -227 -123 -286 -143 -297 -42 -22 -74 -34 -110
-41 -19 -3 -41 -10 -50 -14 -28 -14 -64 -27 -125 -45 -63 -18 -84 -26 -125
-43 -14 -6 -41 -14 -60 -18 -19 -3 -41 -10 -50 -14 -27 -13 -64 -27 -125 -45
-33 -10 -64 -22 -70 -27 -5 -4 -19 -8 -31 -8 -13 0 -25 -4 -28 -9 -4 -5 -25
-12 -48 -16 -23 -4 -51 -12 -63 -18 -41 -21 -51 -25 -85 -31 -34 -7 -65 -18
-102 -37 -10 -5 -27 -9 -38 -9 -11 0 -20 -4 -20 -9 0 -5 -21 -12 -46 -16 -26
-4 -55 -11 -65 -16 -11 -5 -27 -13 -37 -18 -10 -5 -33 -12 -52 -15 -19 -4 -46
-12 -60 -18 -14 -6 -35 -15 -47 -19 -13 -5 -33 -13 -45 -18 -13 -6 -37 -13
-55 -16 -36 -7 -126 -96 -137 -136 -4 -13 -12 -41 -18 -62 -9 -28 -8 -47 2
-80 23 -79 31 -93 71 -135 42 -45 74 -62 115 -62 13 0 24 -4 24 -10 0 -12 77
-13 84 -1 3 4 28 11 55 15 28 4 53 11 56 16 3 6 17 10 31 10 13 0 24 3 24 8 0
7 58 25 122 39 16 3 28 9 28 14 0 5 11 9 24 9 14 0 27 4 30 9 3 5 26 12 51 15
24 4 47 11 50 17 4 5 17 9 31 9 13 0 24 3 24 8 0 7 58 25 122 39 16 3 28 9 28
14 0 5 11 9 25 9 14 0 25 4 25 9 0 5 22 12 50 16 27 4 52 11 56 16 3 5 16 9
30 9 13 0 24 4 24 9 0 5 20 12 45 15 24 4 47 11 50 17 4 5 17 9 31 9 13 0 24
5 24 10 0 6 11 10 25 10 14 0 25 4 25 9 0 5 21 12 46 16 26 4 55 11 65 16 11
5 27 13 37 18 10 5 37 12 60 16 23 4 44 11 48 16 3 5 16 9 30 9 13 0 24 5 24
10 0 6 11 10 25 10 14 0 25 4 25 9 0 5 23 12 50 16 28 4 50 11 50 16 0 5 11 9
24 9 14 0 27 4 30 9 3 5 26 12 51 15 24 4 47 11 50 17 4 5 17 9 31 9 13 0 24
5 24 10 0 6 10 10 23 10 18 0 27 13 50 73 16 39 40 95 53 123 13 28 24 61 24
72 0 12 3 22 8 22 7 0 32 47 32 62 0 4 12 33 26 65 42 92 54 121 54 127 0 3
11 30 25 60 14 30 25 57 25 60 0 3 14 35 30 71 17 36 30 68 30 71 0 3 7 22 16
42 9 21 20 46 25 57 5 11 14 34 20 50 10 26 13 27 16 10 2 -11 7 -27 10 -35 8
-20 33 -117 40 -158 3 -18 9 -35 14 -38 5 -3 9 -18 9 -35 0 -16 4 -29 9 -29 4
0 11 -21 15 -47 6 -44 19 -92 37 -138 4 -11 10 -38 14 -60 6 -39 20 -90 36
-130 4 -11 10 -33 13 -50 3 -16 8 -39 11 -50 5 -16 -4 -28 -42 -55 -26 -19
-59 -45 -73 -57 -14 -13 -29 -23 -35 -23 -6 0 -17 -9 -25 -20 -8 -11 -18 -20
-23 -20 -5 0 -24 -12 -42 -27 -18 -16 -59 -47 -92 -71 -33 -23 -71 -51 -83
-62 -13 -11 -26 -20 -29 -20 -3 0 -22 -14 -41 -30 -19 -16 -38 -30 -42 -30 -4
0 -18 -11 -32 -25 -14 -14 -30 -25 -36 -25 -5 0 -20 -11 -32 -25 -12 -14 -27
-25 -33 -25 -6 0 -22 -11 -35 -25 -13 -14 -27 -25 -31 -25 -4 0 -20 -11 -35
-25 -15 -14 -31 -25 -35 -25 -5 0 -17 -8 -27 -18 -28 -26 -57 -49 -89 -69 -15
-10 -37 -26 -47 -35 -11 -10 -23 -18 -26 -18 -4 0 -18 -9 -31 -21 -66 -56 -91
-84 -96 -111 -3 -15 -10 -31 -14 -34 -15 -9 -10 -126 8 -174 56 -153 258 -209
394 -107 83 62 182 134 232 170 33 23 70 52 83 65 13 12 27 22 31 22 5 0 20
11 35 25 15 14 31 25 35 25 4 0 22 13 39 28 18 15 75 59 129 97 53 39 102 75
108 80 7 6 46 35 87 64 41 30 77 58 78 63 2 4 8 8 14 8 5 0 15 6 23 12 15 14
44 37 125 97 30 22 60 44 65 48 6 4 28 21 50 37 104 75 132 118 141 216 5 51
-11 133 -57 290 -6 19 -16 60 -24 90 -8 30 -18 71 -24 90 -5 19 -21 78 -35
130 -14 52 -37 138 -51 190 -14 52 -30 109 -34 125 -5 17 -12 37 -16 46 -5 13
19 32 117 90 68 40 125 75 128 78 3 3 21 14 40 24 46 23 124 68 130 76 8 9 83
52 103 58 9 3 17 9 17 14 0 5 6 9 14 9 8 0 21 6 28 13 14 13 43 30 93 56 16 9
32 18 35 21 8 8 42 28 80 47 19 9 42 24 50 32 18 18 18 27 28 -532 6 -328 9
-389 22 -397 9 -6 316 -10 782 -10 731 0 768 1 810 19 52 23 109 78 134 129
27 53 25 164 -4 217 -28 54 -73 99 -113 114 -19 7 -42 17 -51 22 -10 5 -244 9
-543 9 l-525 0 0 64 c0 36 -4 67 -8 70 -5 3 -12 209 -16 457 l-6 452 -28 24
c-15 13 -35 26 -44 29 -10 3 -18 10 -18 15 0 5 -7 9 -15 9 -8 0 -15 4 -15 9 0
5 -8 12 -17 15 -10 3 -34 19 -53 36 -19 17 -43 33 -52 36 -10 3 -18 10 -18 15
0 5 -5 9 -10 9 -9 0 -145 93 -160 110 -3 3 -13 10 -22 15 -10 6 -63 42 -118
80 -55 39 -108 75 -117 80 -9 6 -23 16 -32 23 -37 32 -142 102 -151 102 -5 0
-10 4 -10 9 0 5 -8 12 -18 15 -10 4 -27 14 -38 24 -36 33 -93 72 -103 72 -6 0
-11 4 -11 9 0 5 -8 12 -17 15 -10 3 -34 19 -53 36 -19 17 -43 33 -52 36 -10 3
-18 10 -18 15 0 5 -7 9 -15 9 -8 0 -15 3 -15 8 0 4 -16 16 -35 26 -19 11 -35
22 -35 25 0 4 -16 15 -35 25 -19 11 -35 23 -35 28 0 4 -5 8 -11 8 -6 0 -17 7
-25 15 -28 27 -84 18 -151 -25z"/>
<path d="M4975 5413 c-16 -2 -34 -9 -39 -14 -6 -5 -18 -9 -28 -9 -10 0 -18 -4
-18 -10 0 -5 -8 -10 -19 -10 -10 0 -24 -7 -31 -15 -7 -8 -17 -15 -22 -15 -6 0
-36 -25 -68 -56 -70 -67 -123 -163 -141 -252 -13 -70 -7 -196 12 -252 20 -56
78 -149 119 -190 46 -46 124 -100 144 -100 9 0 16 -4 16 -10 0 -5 23 -12 50
-16 28 -4 53 -11 56 -15 7 -13 194 -11 194 1 0 6 13 10 30 10 36 0 108 28 134
52 11 10 25 18 32 18 6 0 40 30 74 67 188 200 186 488 -5 678 -33 33 -78 69
-100 80 -22 11 -41 23 -43 28 -2 4 -14 7 -27 7 -13 0 -25 5 -27 12 -4 12 -234
21 -293 11z"/>
</g>
</svg>
