<?xml version="1.0" standalone="no"?>
<!DOCTYPE svg PUBLIC "-//W3C//DTD SVG 20010904//EN"
 "http://www.w3.org/TR/2001/REC-SVG-20010904/DTD/svg10.dtd">
<svg version="1.0" xmlns="http://www.w3.org/2000/svg"
 width="650.000000pt" height="650.000000pt" viewBox="0 0 650.000000 650.000000"
 preserveAspectRatio="xMidYMid meet">
<metadata>
Created by potrace 1.15, written by Peter Selinger 2001-2017
</metadata>
<g transform="translate(0.000000,650.000000) scale(0.100000,-0.100000)"
fill="#000000" stroke="none">
<path d="M2746 5951 c-3 -4 -31 -11 -63 -14 -32 -3 -59 -11 -61 -17 -2 -5 -10
-10 -18 -10 -39 0 -204 -143 -204 -177 0 -7 -3 -13 -8 -13 -9 0 -42 -74 -42
-94 0 -8 -4 -18 -10 -21 -5 -3 -10 -26 -10 -50 0 -24 -4 -47 -10 -50 -5 -3
-10 -21 -10 -40 0 -19 5 -37 10 -40 6 -3 10 -28 10 -56 0 -27 5 -49 10 -49 6
0 10 -9 10 -20 0 -27 47 -113 89 -162 35 -41 160 -128 184 -128 7 0 19 -6 25
-12 9 -9 57 -13 166 -13 150 0 164 2 231 38 11 6 32 17 46 24 105 53 219 222
219 325 0 17 5 46 12 64 9 25 9 39 1 56 -6 13 -14 50 -17 82 -3 32 -10 64 -15
69 -6 6 -11 19 -11 29 0 10 -3 18 -8 18 -4 0 -13 14 -21 31 -27 61 -173 189
-215 189 -8 0 -16 5 -18 10 -2 6 -29 14 -61 17 -32 3 -60 10 -63 14 -3 5 -36
9 -74 9 -38 0 -71 -4 -74 -9z"/>
<path d="M3600 5088 c-140 -62 -179 -80 -305 -138 -33 -15 -82 -38 -110 -50
-27 -12 -92 -42 -142 -66 -51 -24 -95 -44 -98 -44 -3 0 -55 -24 -117 -54 -62
-29 -135 -64 -163 -76 -119 -54 -165 -75 -240 -110 -44 -21 -102 -48 -130 -60
-27 -12 -86 -39 -130 -60 -44 -21 -102 -48 -130 -60 -51 -23 -167 -76 -240
-110 -22 -10 -69 -32 -105 -48 -36 -17 -100 -46 -142 -66 -158 -73 -224 -103
-255 -117 -18 -8 -33 -17 -33 -20 0 -4 -12 -10 -27 -13 -24 -6 -84 -31 -161
-69 -58 -28 -116 -114 -126 -187 -16 -114 38 -219 135 -263 92 -42 173 -36
294 22 72 35 197 92 285 131 47 21 104 47 125 59 22 12 43 21 46 21 4 0 54 22
111 49 56 27 179 83 272 126 93 42 185 85 205 96 19 10 39 19 43 19 4 0 58 24
120 54 231 109 299 137 312 127 7 -6 25 -34 41 -63 16 -29 31 -55 34 -58 4 -3
15 -23 26 -45 11 -22 27 -51 36 -65 20 -31 80 -137 146 -260 14 -24 33 -56 42
-70 10 -14 25 -38 33 -55 8 -16 45 -83 83 -148 40 -69 65 -124 62 -135 -3 -9
-44 -129 -92 -267 -170 -489 -216 -621 -245 -710 -17 -49 -35 -98 -40 -107 -6
-10 -10 -26 -10 -35 0 -10 -7 -31 -15 -47 -8 -15 -15 -48 -15 -72 0 -24 -4
-44 -9 -44 -6 0 -12 -46 -15 -103 -12 -256 -28 -463 -37 -479 -5 -10 -9 -58
-9 -107 0 -50 -4 -92 -9 -95 -5 -3 -12 -96 -16 -206 -4 -110 -11 -203 -16
-206 -13 -8 -12 -354 1 -354 6 0 10 -7 10 -15 0 -19 72 -90 112 -110 21 -10
60 -15 115 -15 95 0 118 9 184 74 53 52 61 80 66 229 3 76 10 140 14 143 5 3
9 49 9 103 0 53 4 101 9 106 5 6 12 55 15 110 10 198 32 470 39 485 3 8 8 56
11 105 10 177 23 300 34 323 28 53 32 63 32 81 0 11 4 22 9 25 5 3 12 22 16
42 3 20 11 45 16 55 5 11 13 27 18 38 5 10 13 35 16 55 4 20 11 39 16 42 5 3
9 15 9 28 0 12 3 26 7 29 10 11 43 109 43 129 0 10 5 18 10 18 6 0 10 11 10
24 0 14 4 27 9 30 5 3 12 22 16 42 3 20 10 44 15 53 15 30 28 66 46 121 18 58
31 95 44 120 4 9 11 31 15 50 4 19 11 40 15 45 3 6 15 37 24 70 10 33 21 69
26 80 5 11 14 34 21 52 10 24 16 29 26 21 7 -6 13 -14 13 -18 0 -11 143 -244
152 -248 4 -2 8 -8 8 -14 0 -6 21 -44 48 -86 56 -90 69 -112 79 -132 4 -8 38
-64 75 -123 37 -59 68 -112 68 -117 0 -6 4 -10 9 -10 5 0 11 -10 15 -23 3 -12
14 -32 26 -44 11 -12 20 -25 20 -29 0 -4 29 -53 65 -109 101 -158 129 -171
385 -186 102 -5 237 -14 300 -19 63 -5 228 -15 365 -23 138 -7 257 -16 265
-20 8 -3 67 -9 130 -11 63 -3 155 -8 204 -12 51 -3 98 -1 110 4 12 6 37 17 57
26 40 17 89 67 116 119 23 44 23 170 0 213 -44 84 -119 136 -212 148 -27 4
-131 11 -230 17 -99 6 -229 15 -290 19 -60 4 -202 12 -315 19 -113 6 -248 16
-300 21 -52 6 -114 10 -137 10 -43 0 -42 -1 -91 75 -7 11 -15 28 -18 38 -4 9
-10 17 -15 17 -5 0 -9 6 -9 14 0 8 -6 21 -12 28 -7 8 -19 25 -27 38 -17 29
-176 291 -202 335 -11 17 -22 37 -26 45 -3 8 -17 29 -30 46 -13 17 -23 34 -23
38 0 4 -11 22 -25 40 -14 18 -25 35 -25 39 0 3 -61 106 -136 229 -75 123 -170
279 -212 348 -41 69 -84 141 -97 160 -12 19 -34 55 -49 80 -15 25 -59 96 -97
158 -38 61 -69 117 -69 122 0 6 -3 10 -7 10 -9 0 -43 57 -43 71 0 12 57 12 64
0 3 -5 33 -12 66 -16 33 -4 63 -11 66 -16 3 -5 16 -9 30 -9 13 0 32 -4 42 -9
21 -11 152 -41 180 -41 12 0 23 -4 26 -9 3 -5 20 -11 38 -14 90 -15 155 -29
173 -37 19 -8 39 -13 108 -27 28 -5 38 -24 124 -213 13 -30 31 -68 39 -83 8
-16 14 -35 14 -43 0 -8 4 -14 9 -14 5 0 12 -13 16 -30 4 -16 11 -32 16 -35 5
-4 9 -15 9 -26 0 -10 5 -19 10 -19 6 0 10 -9 10 -20 0 -11 4 -20 10 -20 5 0
12 -16 16 -35 3 -19 9 -35 13 -35 6 0 12 -13 47 -102 11 -27 22 -48 27 -48 4
0 7 -9 7 -20 0 -11 4 -20 9 -20 5 0 12 -12 15 -27 4 -16 17 -50 30 -78 13 -27
30 -65 37 -82 8 -18 17 -33 21 -33 5 0 8 -7 8 -15 0 -39 90 -134 128 -135 12
0 22 -4 22 -10 0 -6 35 -10 85 -10 47 0 85 4 85 9 0 5 13 11 29 14 34 7 90 59
110 103 7 16 17 37 22 46 12 23 12 133 0 156 -9 16 -36 78 -72 160 -8 17 -17
32 -21 32 -5 0 -8 7 -8 16 0 14 -44 118 -71 166 -5 10 -9 25 -9 33 0 8 -3 15
-8 15 -4 0 -13 15 -21 33 -24 57 -62 141 -77 170 -8 16 -14 35 -14 43 0 8 -3
14 -8 14 -4 0 -13 15 -21 33 -7 17 -20 45 -27 61 -8 16 -14 35 -14 43 0 7 -4
13 -9 13 -5 0 -13 15 -16 33 -4 17 -10 34 -14 37 -12 9 -31 50 -31 65 0 8 -4
15 -9 15 -5 0 -12 16 -15 35 -4 19 -11 35 -16 35 -6 0 -10 9 -10 20 0 11 -4
20 -10 20 -5 0 -10 5 -10 11 0 15 -32 80 -50 103 -21 26 -89 68 -125 77 -16 4
-86 21 -155 38 -125 31 -179 45 -235 61 -16 5 -48 12 -70 15 -22 4 -53 11 -70
15 -74 21 -121 33 -280 70 -93 23 -205 50 -248 60 -86 22 -139 24 -177 8z"/>
<path d="M3876 1371 c-3 -4 -27 -11 -53 -14 -107 -13 -232 -103 -300 -215 -91
-153 -95 -357 -9 -504 30 -52 128 -148 176 -174 19 -11 37 -22 40 -25 3 -3 31
-13 63 -23 88 -27 292 -19 362 14 28 13 52 28 53 32 2 4 11 8 19 8 26 0 148
133 177 191 98 202 64 411 -94 569 -76 76 -154 120 -228 127 -29 3 -55 10 -58
14 -7 12 -141 12 -148 0z"/>
</g>
</svg>
