<?xml version="1.0" standalone="no"?>
<!DOCTYPE svg PUBLIC "-//W3C//DTD SVG 20010904//EN"
 "http://www.w3.org/TR/2001/REC-SVG-20010904/DTD/svg10.dtd">
<svg version="1.0" xmlns="http://www.w3.org/2000/svg"
 width="650.000000pt" height="650.000000pt" viewBox="0 0 650.000000 650.000000"
 preserveAspectRatio="xMidYMid meet">
<metadata>
Created by potrace 1.15, written by Peter Selinger 2001-2017
</metadata>
<g transform="translate(0.000000,650.000000) scale(0.100000,-0.100000)"
fill="#000000" stroke="none">
<path d="M2950 3700 c0 -5 -9 -10 -20 -10 -11 0 -20 -4 -20 -10 0 -5 -6 -10
-13 -10 -17 0 -61 -48 -87 -96 -15 -26 -20 -54 -20 -114 0 -44 4 -88 9 -98 17
-32 30 -67 46 -122 16 -54 29 -89 45 -121 5 -9 12 -33 15 -53 4 -20 11 -39 16
-42 5 -3 9 -16 9 -30 0 -13 4 -24 9 -24 5 0 12 -20 15 -45 4 -24 11 -47 17
-50 5 -4 9 -15 9 -26 0 -10 5 -28 10 -39 24 -49 28 -58 35 -90 4 -19 11 -41
15 -50 26 -53 33 -71 27 -76 -3 -4 -105 -1 -225 5 -120 6 -331 11 -468 11
-218 0 -259 3 -329 21 -44 11 -114 27 -155 35 -41 8 -100 19 -130 25 -198 40
-450 55 -638 41 -172 -14 -211 -20 -382 -58 -136 -30 -351 -104 -501 -172 -72
-32 -88 -57 -69 -106 8 -23 15 -26 56 -26 25 0 62 7 82 16 55 24 90 39 157 63
33 13 68 27 77 32 9 5 35 12 58 15 22 4 43 11 46 15 3 5 14 9 25 9 10 0 27 4
37 10 18 10 109 28 182 37 25 3 50 9 55 13 32 24 419 32 580 12 168 -21 362
-55 371 -64 4 -5 22 -8 41 -8 18 0 33 -3 33 -7 0 -5 -11 -30 -25 -58 -13 -27
-25 -59 -25 -70 0 -23 -5 -22 -220 16 -147 26 -241 33 -420 33 -198 0 -329 -9
-365 -24 -11 -5 -38 -11 -60 -14 -52 -6 -143 -24 -175 -35 -14 -5 -52 -17 -85
-26 -86 -24 -129 -39 -198 -69 -21 -9 -42 -16 -47 -16 -9 0 -97 -37 -149 -63
-42 -21 -50 -77 -15 -112 17 -16 69 -20 78 -6 3 5 17 12 31 15 14 4 49 17 78
30 28 12 68 29 87 35 19 7 44 17 55 22 20 8 99 32 170 51 22 6 49 14 60 19 11
4 52 13 90 19 39 7 95 16 125 22 144 25 485 25 655 -1 39 -6 107 -17 152 -24
45 -6 85 -15 89 -20 4 -4 18 -7 30 -7 34 0 75 -21 113 -57 30 -30 58 -46 116
-68 11 -5 61 -14 110 -21 50 -7 113 -18 140 -23 80 -16 153 -29 255 -46 52 -9
118 -20 145 -25 28 -5 91 -16 140 -23 50 -7 97 -16 105 -19 8 -4 31 -9 50 -11
87 -12 178 -28 205 -36 28 -9 27 -9 -17 -10 -26 -1 -49 -5 -52 -10 -3 -4 -27
-11 -53 -15 -109 -14 -202 -31 -209 -38 -11 -12 -112 -10 -119 2 -3 6 -27 10
-53 11 -26 0 -69 4 -97 10 -27 5 -68 12 -90 15 -22 3 -49 9 -60 14 -11 5 -33
11 -50 14 -114 21 -164 32 -171 39 -4 4 -20 7 -35 7 -15 0 -30 4 -33 9 -3 5
-33 12 -66 16 -33 4 -63 11 -66 16 -3 5 -18 9 -34 9 -16 0 -31 4 -34 9 -3 5
-23 11 -43 14 -62 10 -177 33 -193 39 -24 10 -85 18 -215 29 -66 6 -136 15
-155 20 -62 18 -543 -7 -595 -31 -11 -5 -33 -11 -50 -14 -16 -2 -61 -12 -100
-21 -38 -9 -82 -19 -98 -22 -15 -3 -30 -9 -33 -14 -3 -5 -16 -9 -29 -9 -13 0
-26 -4 -29 -9 -3 -5 -22 -12 -42 -16 -20 -3 -44 -10 -53 -15 -26 -14 -89 -40
-95 -40 -13 0 -122 -53 -138 -68 -24 -20 -23 -74 0 -95 26 -23 52 -21 119 9
128 57 304 118 428 148 39 10 86 22 106 27 20 5 47 9 61 9 13 0 29 5 35 11 8
8 95 13 265 16 238 5 345 -1 473 -26 28 -5 77 -14 110 -20 56 -9 155 -31 235
-51 19 -5 64 -16 100 -24 36 -8 83 -20 105 -26 22 -6 69 -18 105 -26 36 -8 85
-20 110 -25 25 -6 63 -15 85 -20 172 -40 393 -63 465 -49 61 12 307 57 385 71
60 10 249 37 360 50 375 45 830 25 1140 -49 110 -27 212 -55 230 -62 11 -5 47
-18 80 -29 55 -18 124 -47 273 -112 49 -22 55 -22 80 -8 45 25 42 103 -3 115
-14 3 -25 10 -25 15 0 5 -9 9 -20 9 -11 0 -20 4 -20 9 0 5 -12 12 -26 15 -25
7 -99 37 -135 56 -9 5 -33 12 -53 15 -20 4 -36 11 -36 16 0 5 -11 9 -23 9 -13
0 -27 3 -31 7 -8 9 -90 31 -143 40 -18 3 -33 9 -33 14 0 5 -14 9 -31 9 -17 0
-39 4 -49 10 -10 5 -44 12 -76 16 -33 3 -68 9 -79 14 -21 9 -42 12 -204 29
-102 11 -118 16 -76 27 59 15 192 93 225 133 17 19 55 17 160 -9 25 -6 68 -16
95 -21 46 -10 243 -70 290 -88 48 -19 75 -31 163 -70 51 -22 108 -41 127 -41
70 0 90 70 32 114 -19 15 -37 26 -41 26 -4 0 -32 11 -63 26 -31 14 -69 28 -84
31 -16 3 -29 9 -29 14 0 5 -8 9 -18 9 -10 0 -22 4 -28 8 -5 5 -36 17 -69 26
-33 10 -68 22 -77 27 -10 5 -26 9 -36 9 -10 0 -22 4 -28 9 -5 5 -34 13 -64 19
-30 6 -73 16 -95 22 -22 7 -59 14 -83 17 -35 4 -42 8 -37 22 4 9 9 28 12 44 3
15 9 27 14 27 5 0 9 13 9 28 0 38 4 41 53 30 23 -5 67 -14 97 -20 30 -5 59
-14 64 -19 6 -5 18 -9 28 -9 10 0 26 -4 36 -9 9 -5 40 -17 67 -26 28 -9 59
-20 70 -25 11 -4 38 -15 60 -23 47 -17 152 -63 177 -77 25 -14 50 -12 76 6 27
19 30 74 5 96 -21 18 -141 75 -228 108 -33 12 -69 26 -80 30 -44 19 -153 53
-205 66 -30 7 -73 18 -95 24 -22 7 -55 14 -72 17 -31 5 -33 7 -33 49 0 23 -4
46 -10 49 -5 3 -10 19 -10 36 0 16 -4 29 -10 29 -5 0 -10 9 -10 21 0 19 -36
92 -63 126 -20 26 -111 117 -137 137 -81 61 -202 96 -336 96 -173 0 -295 -50
-414 -170 -66 -66 -130 -173 -130 -217 0 -12 -4 -25 -10 -28 -5 -3 -10 -24
-10 -45 0 -34 -4 -41 -24 -46 -41 -10 -61 -1 -64 29 -2 15 -8 27 -13 27 -5 0
-9 11 -9 25 0 14 -3 25 -8 25 -7 0 -25 58 -39 123 -3 15 -9 27 -14 27 -5 0 -9
9 -9 19 0 11 -4 22 -9 25 -5 4 -12 25 -16 49 -4 23 -10 47 -13 52 -4 6 -23 58
-43 117 l-36 108 581 3 c552 3 646 8 646 28 0 5 6 9 14 9 21 0 94 76 111 116
17 41 21 194 5 194 -5 0 -10 9 -10 20 0 11 -4 20 -10 20 -5 0 -10 6 -10 13 0
16 -52 67 -68 67 -7 0 -12 5 -12 10 0 6 -9 10 -20 10 -11 0 -20 5 -20 10 0 7
-283 10 -830 10 -547 0 -830 -3 -830 -10z m915 -1586 c57 -52 113 -87 191
-119 l54 -22 -222 -7 c-123 -4 -227 -11 -232 -16 -6 -6 -28 -10 -49 -10 l-39
0 26 31 c14 17 26 37 26 45 0 8 5 14 10 14 6 0 10 14 10 30 0 17 5 30 10 30 6
0 10 11 10 24 0 20 7 25 53 33 91 18 99 16 152 -33z"/>
</g>
</svg>
