<?xml version="1.0" standalone="no"?>
<!DOCTYPE svg PUBLIC "-//W3C//DTD SVG 20010904//EN"
 "http://www.w3.org/TR/2001/REC-SVG-20010904/DTD/svg10.dtd">
<svg version="1.0" xmlns="http://www.w3.org/2000/svg"
 width="650.000000pt" height="650.000000pt" viewBox="0 0 650.000000 650.000000"
 preserveAspectRatio="xMidYMid meet">
<metadata>
Created by potrace 1.15, written by Peter Selinger 2001-2017
</metadata>
<g transform="translate(0.000000,650.000000) scale(0.100000,-0.100000)"
fill="#000000" stroke="none">
<path d="M4030 5260 c0 -5 -9 -10 -21 -10 -57 0 -129 -92 -129 -165 0 -18 29
-91 71 -175 39 -80 106 -217 149 -305 43 -88 192 -391 332 -672 l255 -513
-247 0 c-136 0 -261 -3 -277 -6 -28 -6 -30 -3 -75 88 -25 51 -52 108 -59 126
-8 17 -17 32 -21 32 -5 0 -8 4 -8 10 0 15 -53 125 -62 128 -4 2 -8 8 -8 13 0
16 -35 89 -42 89 -5 0 -8 7 -8 15 0 17 -51 118 -62 123 -5 2 -8 8 -8 13 0 16
-35 89 -42 89 -5 0 -8 7 -8 14 0 8 -18 50 -40 92 -22 43 -40 83 -40 91 0 7 -3
13 -8 13 -8 0 -42 73 -42 90 0 6 -4 10 -10 10 -5 0 -10 7 -10 15 0 8 -3 15 -8
15 -4 0 -12 10 -17 22 -15 33 -82 66 -137 67 -26 1 -50 -3 -53 -9 -3 -5 -14
-10 -23 -10 -27 0 -78 -52 -92 -94 -7 -21 -10 -59 -8 -85 5 -48 37 -131 50
-131 5 0 8 -7 8 -14 0 -8 18 -50 40 -92 22 -43 40 -83 40 -91 0 -7 5 -13 10
-13 6 0 10 -7 10 -15 0 -8 4 -15 9 -15 5 0 12 -15 15 -34 4 -19 10 -36 14 -38
10 -4 62 -110 62 -126 0 -6 5 -12 10 -12 6 0 10 -7 10 -15 0 -8 4 -15 9 -15 5
0 12 -16 15 -35 4 -19 10 -35 14 -35 4 0 13 -15 21 -32 13 -33 180 -377 252
-521 l39 -78 0 -207 c0 -197 1 -210 24 -258 24 -52 22 -50 205 -170 24 -16 51
-34 60 -39 9 -6 48 -31 86 -56 39 -25 108 -70 155 -99 47 -30 87 -57 90 -60 3
-3 22 -14 43 -25 21 -11 50 -30 65 -43 15 -13 36 -28 47 -33 11 -5 34 -18 50
-29 17 -11 37 -23 45 -27 8 -3 17 -10 20 -14 3 -3 50 -35 105 -69 55 -35 102
-66 105 -69 6 -8 40 -29 60 -38 8 -4 17 -10 20 -13 13 -18 122 -80 157 -89 40
-12 143 3 143 21 0 4 5 8 11 8 14 0 39 25 39 39 0 6 4 11 9 11 17 0 28 96 16
144 -14 56 -33 78 -105 124 -30 19 -57 38 -60 42 -3 4 -15 10 -27 14 -13 4
-23 12 -23 17 0 5 -6 9 -14 9 -8 0 -16 3 -18 8 -4 10 -86 62 -98 62 -5 0 -10
4 -10 10 0 5 -11 12 -25 16 -14 3 -25 9 -25 13 0 3 -21 19 -48 36 -26 16 -49
32 -52 35 -7 7 -42 29 -60 37 -8 3 -36 21 -63 40 -26 18 -52 33 -57 33 -6 0
-10 5 -10 10 0 6 -7 10 -15 10 -8 0 -15 4 -15 9 0 5 -10 13 -22 17 -13 4 -25
10 -28 14 -3 4 -50 35 -105 70 -55 35 -102 66 -105 70 -3 4 -15 10 -27 14 -13
4 -23 12 -23 17 0 5 -4 9 -10 9 -10 0 -70 38 -110 70 -14 11 -28 20 -32 20 -5
0 -8 11 -8 24 l0 24 178 6 c97 4 232 11 300 16 67 6 164 10 215 10 69 0 103 5
129 17 20 10 248 227 515 492 263 260 515 508 561 549 46 42 112 103 147 136
75 72 140 126 153 126 5 0 16 8 26 19 14 15 16 38 14 147 -3 123 -4 129 -25
139 -13 5 -23 13 -23 17 0 5 -32 8 -72 8 -75 0 -154 -27 -165 -56 -3 -8 -11
-14 -18 -14 -6 0 -40 -27 -74 -60 -34 -32 -71 -66 -84 -74 -26 -19 -345 -327
-681 -658 -132 -131 -243 -238 -246 -238 -5 0 -183 353 -211 418 -8 17 -17 32
-21 32 -5 0 -8 4 -8 10 0 17 -34 90 -42 90 -5 0 -8 5 -8 11 0 22 -591 1214
-620 1251 -12 16 -35 30 -56 34 -19 3 -37 10 -40 15 -7 12 -74 11 -74 -1z"/>
<path d="M2510 4610 c0 -5 -9 -10 -21 -10 -83 0 -239 -152 -239 -233 0 -9 -4
-19 -10 -22 -5 -3 -10 -42 -10 -85 0 -43 5 -82 10 -85 6 -3 10 -17 10 -31 0
-13 5 -24 10 -24 6 0 10 -9 10 -21 0 -50 175 -190 237 -189 12 0 25 -4 28 -10
3 -5 35 -10 70 -10 35 0 67 5 70 10 3 6 19 10 36 10 16 0 29 5 29 10 0 6 7 10
15 10 22 0 92 46 125 83 73 80 115 227 90 311 -31 102 -46 130 -99 185 -56 58
-111 91 -150 91 -12 0 -21 5 -21 10 0 6 -38 10 -95 10 -57 0 -95 -4 -95 -10z"/>
<path d="M1903 4196 c-12 -7 -52 -41 -90 -75 -37 -35 -86 -79 -108 -99 -22
-19 -67 -60 -100 -91 -33 -31 -102 -94 -154 -141 -52 -47 -131 -120 -176 -162
-44 -42 -94 -87 -111 -100 -16 -12 -41 -34 -55 -48 -135 -128 -179 -176 -179
-191 0 -11 -4 -19 -10 -19 -6 0 -10 -43 -10 -110 0 -67 -4 -110 -10 -110 -6 0
-10 -56 -10 -149 0 -89 -4 -152 -10 -156 -6 -3 -10 -31 -10 -61 0 -53 -2 -57
-47 -100 -27 -24 -51 -44 -55 -44 -4 0 -18 -10 -30 -22 -21 -20 -94 -82 -152
-128 -10 -8 -38 -31 -61 -50 -90 -74 -141 -116 -208 -170 -11 -8 -35 -30 -56
-47 -20 -18 -50 -43 -67 -54 -53 -38 -74 -81 -74 -154 0 -36 6 -75 12 -88 19
-33 69 -77 89 -77 10 0 21 -4 24 -10 8 -13 92 -13 100 0 3 6 15 10 26 10 10 0
19 5 19 10 0 6 6 10 13 10 6 0 30 18 52 40 22 21 44 39 49 40 5 0 16 8 25 18
9 9 38 35 65 56 26 22 59 50 72 63 13 12 27 23 31 23 4 0 24 15 44 33 61 53
106 91 135 112 15 11 46 37 68 57 21 21 43 38 48 38 4 0 20 12 35 28 16 15 44
39 64 54 60 45 119 103 119 119 0 8 4 19 10 25 5 5 13 113 17 239 l8 230 45 5
c46 6 82 21 112 47 16 14 27 6 132 -97 63 -62 125 -119 137 -127 20 -15 21
-20 15 -152 -4 -75 -10 -199 -15 -276 -30 -467 -32 -544 -16 -578 21 -45 59
-87 79 -87 9 0 16 -4 16 -10 0 -14 126 -12 153 3 42 23 85 77 92 115 7 35 14
134 33 472 5 85 15 251 22 369 10 164 10 222 1 252 -13 42 -33 64 -227 249
l-121 116 45 39 c25 22 67 58 93 80 26 22 72 61 102 88 31 26 60 47 64 47 5 0
20 -26 32 -57 32 -80 37 -93 55 -135 9 -20 16 -40 16 -45 0 -4 12 -32 27 -62
39 -75 93 -111 167 -111 31 0 64 4 74 10 18 10 162 76 220 101 17 8 32 17 32
21 0 5 7 8 15 8 8 0 62 23 120 50 58 28 110 50 115 50 6 0 10 5 10 10 0 6 5
10 11 10 5 0 35 11 66 25 55 26 97 61 121 103 14 26 16 152 2 152 -5 0 -10 6
-10 13 0 17 -47 60 -87 81 -62 31 -96 24 -268 -58 -227 -109 -315 -147 -325
-141 -5 3 -10 14 -10 24 0 9 -4 21 -9 27 -5 5 -18 36 -31 69 -12 33 -28 75
-36 93 -8 17 -21 47 -29 66 -8 19 -15 39 -15 44 0 6 -9 27 -19 49 -10 21 -27
61 -37 88 -65 187 -103 226 -221 224 -38 -1 -78 -6 -90 -13z"/>
<path d="M3335 3270 c-11 -5 -32 -9 -46 -9 -76 -2 -229 -123 -244 -192 -4 -16
-11 -31 -16 -34 -5 -4 -9 -19 -9 -35 0 -16 -4 -32 -10 -35 -5 -3 -10 -30 -10
-60 0 -30 5 -57 10 -60 6 -3 10 -19 10 -36 0 -16 4 -29 9 -29 5 0 11 -14 15
-31 9 -48 106 -142 179 -174 143 -65 300 -36 420 77 38 36 87 118 87 146 0 10
5 23 11 29 17 17 -1 223 -20 223 -3 0 -12 15 -20 33 -16 37 -99 127 -118 127
-7 0 -13 4 -13 9 0 16 -71 37 -180 55 -19 3 -44 1 -55 -4z"/>
</g>
</svg>
