<?xml version="1.0" standalone="no"?>
<!DOCTYPE svg PUBLIC "-//W3C//DTD SVG 20010904//EN"
 "http://www.w3.org/TR/2001/REC-SVG-20010904/DTD/svg10.dtd">
<svg version="1.0" xmlns="http://www.w3.org/2000/svg"
 width="650.000000pt" height="650.000000pt" viewBox="0 0 650.000000 650.000000"
 preserveAspectRatio="xMidYMid meet">
<metadata>
Created by potrace 1.15, written by Peter Selinger 2001-2017
</metadata>
<g transform="translate(0.000000,650.000000) scale(0.100000,-0.100000)"
fill="#000000" stroke="none">
<path d="M3412 5605 c-149 -36 -297 -155 -365 -294 -98 -197 -64 -458 81 -621
123 -139 344 -222 510 -191 138 26 235 74 323 161 74 73 104 117 140 205 22
54 24 74 24 205 l0 145 -38 76 c-84 166 -209 269 -380 315 -64 17 -224 16
-295 -1z"/>
<path d="M3448 4312 c-21 -2 -38 -7 -38 -13 0 -5 -9 -9 -19 -9 -11 0 -22 -4
-25 -9 -3 -4 -19 -11 -35 -14 -27 -6 -99 -35 -142 -57 -9 -5 -33 -12 -53 -15
-20 -4 -36 -11 -36 -16 0 -5 -9 -9 -19 -9 -11 0 -22 -4 -25 -9 -3 -4 -19 -11
-36 -14 -16 -4 -47 -15 -67 -24 -21 -10 -66 -27 -100 -38 -35 -11 -63 -23 -63
-27 0 -5 -9 -8 -19 -8 -11 0 -23 -4 -26 -10 -3 -5 -14 -10 -23 -10 -9 0 -30
-7 -46 -15 -15 -8 -37 -15 -47 -15 -10 0 -20 -4 -23 -9 -3 -5 -18 -12 -32 -15
-25 -7 -99 -37 -135 -56 -9 -5 -33 -12 -53 -15 -20 -4 -36 -11 -36 -16 0 -5
-11 -9 -25 -9 -14 0 -25 -4 -25 -9 0 -5 -16 -12 -36 -16 -20 -3 -44 -10 -53
-15 -41 -20 -108 -49 -128 -55 -13 -4 -23 -11 -23 -16 0 -5 -7 -9 -15 -9 -8 0
-25 -16 -37 -35 -21 -31 -48 -47 -48 -27 0 4 -17 15 -37 25 -43 20 -71 36 -91
55 -7 6 -18 12 -23 12 -6 0 -17 7 -26 16 -13 12 -14 29 -10 82 8 78 -4 166
-30 219 -23 49 -112 136 -155 152 -18 7 -41 17 -50 22 -10 5 -29 9 -42 9 -14
0 -28 5 -31 10 -3 6 -35 10 -70 10 -35 0 -67 -4 -70 -10 -3 -5 -17 -10 -30
-10 -36 0 -90 -36 -119 -80 -23 -34 -26 -50 -26 -120 0 -68 5 -91 30 -148 34
-74 105 -154 160 -180 19 -9 38 -21 42 -26 11 -16 283 -15 299 1 9 9 24 4 64
-21 28 -19 61 -36 72 -40 11 -3 28 -14 39 -24 10 -9 36 -26 57 -37 36 -19 37
-21 37 -75 0 -54 17 -110 33 -110 4 0 7 -6 7 -12 1 -18 29 -49 70 -78 32 -23
44 -25 141 -25 59 0 117 5 130 11 61 29 98 44 112 44 9 0 19 5 22 10 3 6 15
10 26 10 10 0 28 5 39 10 11 6 28 14 39 19 10 5 35 13 55 16 20 4 39 11 42 16
3 5 14 9 25 9 10 0 19 5 19 10 0 6 9 10 20 10 10 0 41 7 67 16 49 15 59 19
125 48 20 9 45 16 57 16 12 0 21 5 21 10 0 6 11 10 24 10 14 0 27 4 30 9 3 5
22 12 42 16 36 6 46 10 91 33 13 7 30 12 38 12 8 0 15 4 15 9 0 5 23 12 50 16
28 4 50 11 50 16 0 5 8 9 19 9 21 0 27 -49 36 -300 3 -69 12 -296 21 -505 l17
-379 -165 -161 c-91 -88 -251 -243 -357 -345 -179 -173 -195 -190 -231 -266
-22 -45 -40 -86 -40 -93 0 -6 -4 -11 -10 -11 -5 0 -10 -9 -10 -19 0 -11 -4
-22 -9 -26 -5 -3 -12 -19 -16 -35 -4 -17 -11 -30 -16 -30 -5 0 -9 -9 -9 -20 0
-11 -4 -20 -10 -20 -5 0 -10 -4 -10 -10 0 -5 -18 -47 -40 -94 -22 -46 -40 -91
-40 -99 0 -9 -3 -17 -7 -19 -12 -5 -113 -217 -113 -236 0 -7 -4 -12 -10 -12
-5 0 -10 -9 -10 -20 0 -11 -4 -20 -10 -20 -5 0 -10 -5 -10 -12 0 -6 -11 -34
-24 -62 -43 -92 -56 -124 -56 -135 0 -6 -3 -11 -8 -11 -36 0 -51 -195 -20
-260 58 -121 216 -174 342 -115 29 14 64 38 78 54 28 31 108 192 108 216 0 8
3 15 8 15 8 0 42 73 42 90 0 6 5 10 10 10 6 0 10 6 10 14 0 8 7 27 15 43 8 15
20 43 27 60 7 18 16 33 20 33 5 0 8 8 8 18 0 9 7 26 15 36 8 11 15 28 15 38 0
10 3 18 8 18 4 0 13 15 21 33 7 17 20 45 27 61 8 16 14 35 14 43 0 7 3 13 8
13 4 0 13 15 21 33 106 251 127 283 257 412 379 375 578 560 601 559 12 0 65
-1 117 -2 l94 -2 68 -53 c38 -28 79 -59 91 -67 11 -8 74 -55 138 -105 65 -49
130 -99 145 -110 26 -18 171 -128 195 -147 6 -5 50 -39 98 -76 49 -37 95 -78
102 -92 25 -46 45 -98 45 -114 0 -9 5 -25 10 -36 6 -11 14 -28 19 -39 5 -10
13 -35 16 -55 4 -20 11 -36 16 -36 5 0 9 -11 9 -25 0 -14 5 -25 10 -25 6 0 10
-11 10 -24 0 -14 4 -27 9 -30 5 -4 12 -24 16 -46 4 -22 11 -42 16 -46 5 -3 9
-14 9 -25 0 -10 4 -19 9 -19 5 0 11 -18 15 -40 3 -23 10 -49 15 -58 14 -28 28
-64 46 -117 19 -54 33 -91 45 -116 5 -9 12 -33 15 -53 4 -20 11 -39 16 -42 5
-3 9 -16 9 -30 0 -13 3 -24 8 -24 4 0 16 -28 26 -63 18 -58 23 -71 45 -115 5
-10 12 -33 16 -52 4 -19 11 -41 15 -50 11 -22 26 -59 45 -113 15 -42 50 -87
98 -124 20 -16 267 -18 267 -3 0 6 6 10 13 10 20 0 74 60 91 102 21 49 21 165
0 220 -19 52 -34 88 -44 108 -4 9 -11 31 -15 50 -4 19 -12 43 -18 55 -22 44
-26 54 -32 89 -4 20 -11 39 -16 42 -5 3 -9 16 -9 30 0 13 -4 24 -10 24 -5 0
-10 11 -10 25 0 14 -4 25 -9 25 -6 0 -13 20 -17 45 -3 25 -10 45 -15 45 -5 0
-9 11 -9 25 0 14 -4 25 -10 25 -5 0 -10 8 -10 18 0 22 -33 116 -42 120 -5 2
-8 11 -8 20 -1 20 -34 119 -44 129 -3 3 -6 15 -6 25 0 10 -4 18 -9 18 -5 0
-11 18 -15 40 -3 23 -11 51 -18 63 -21 41 -25 53 -32 85 -4 17 -12 34 -17 37
-5 4 -9 15 -9 26 0 18 -3 27 -27 74 -6 12 -14 35 -17 53 -4 17 -12 34 -17 37
-5 4 -9 17 -9 31 0 13 -4 24 -10 24 -5 0 -10 9 -10 20 0 25 -32 100 -42 100
-5 0 -8 6 -8 13 0 7 -12 21 -26 32 -15 11 -41 32 -58 47 -17 15 -37 28 -43 28
-7 0 -13 4 -13 9 0 4 -33 32 -72 62 -40 30 -80 59 -88 66 -8 7 -49 37 -90 67
-41 30 -79 59 -85 63 -5 5 -73 56 -150 113 -77 58 -142 107 -145 110 -9 10
-162 125 -185 139 -19 13 -24 26 -30 95 -10 117 -22 335 -39 711 -8 182 -18
340 -21 353 -7 20 -4 22 37 22 39 0 67 -12 105 -45 21 -17 36 -29 78 -60 22
-17 49 -38 59 -47 11 -10 23 -18 27 -18 3 0 22 -13 40 -30 19 -16 38 -30 43
-30 5 0 16 -8 25 -18 9 -10 30 -26 46 -36 17 -11 36 -28 43 -38 7 -10 18 -18
24 -18 6 0 27 -14 47 -30 20 -17 41 -34 46 -38 42 -30 92 -68 103 -79 8 -7 23
-18 34 -24 20 -11 35 -22 91 -71 18 -15 35 -28 40 -28 4 0 15 -8 25 -17 27
-26 93 -77 105 -82 6 -2 21 -15 34 -27 13 -13 27 -24 31 -24 4 0 23 -14 42
-30 19 -16 38 -30 41 -30 3 0 20 -12 37 -27 46 -42 123 -97 157 -112 17 -7 38
-17 47 -22 24 -12 115 -11 123 1 3 6 15 10 26 10 34 0 107 58 136 108 25 42
28 56 28 141 0 67 -4 96 -12 99 -7 2 -13 9 -13 16 0 17 -72 90 -111 113 -16 9
-29 20 -29 24 0 3 -22 21 -50 40 -27 19 -50 37 -50 42 0 4 -7 7 -15 7 -8 0
-15 3 -15 8 0 4 -16 18 -36 31 -19 13 -49 37 -67 53 -18 15 -38 28 -44 28 -7
0 -13 4 -13 8 0 7 -60 55 -109 87 -8 6 -25 20 -38 33 -13 12 -27 22 -31 22 -4
0 -25 16 -47 35 -22 19 -44 35 -48 35 -4 0 -19 11 -33 25 -14 14 -29 25 -34
25 -5 0 -21 12 -37 28 -35 33 -102 86 -117 91 -6 2 -18 12 -26 21 -8 9 -28 25
-45 36 -33 21 -59 41 -84 64 -9 8 -35 28 -56 45 -22 16 -46 35 -53 42 -8 7
-23 18 -34 24 -20 11 -37 24 -93 72 -18 15 -36 27 -40 27 -3 0 -13 7 -21 15
-9 8 -26 15 -40 15 -13 0 -24 5 -24 10 0 6 -60 10 -161 10 -88 0 -168 4 -177
9 -17 8 -671 20 -744 13z"/>
<path d="M2627 3105 c-48 -49 -46 -129 7 -179 28 -26 35 -28 89 -24 78 6 99
27 105 105 4 54 2 61 -26 91 -27 29 -35 32 -90 32 -50 0 -63 -4 -85 -25z"/>
</g>
</svg>
