<?xml version="1.0" standalone="no"?>
<!DOCTYPE svg PUBLIC "-//W3C//DTD SVG 20010904//EN"
 "http://www.w3.org/TR/2001/REC-SVG-20010904/DTD/svg10.dtd">
<svg version="1.0" xmlns="http://www.w3.org/2000/svg"
 width="650.000000pt" height="650.000000pt" viewBox="0 0 650.000000 650.000000"
 preserveAspectRatio="xMidYMid meet">
<metadata>
Created by potrace 1.15, written by Peter Selinger 2001-2017
</metadata>
<g transform="translate(0.000000,650.000000) scale(0.100000,-0.100000)"
fill="#000000" stroke="none">
<path d="M3365 6338 c-162 -55 -271 -160 -336 -323 -31 -79 -31 -233 1 -310
33 -81 53 -116 84 -150 19 -22 36 -43 36 -47 0 -5 5 -8 10 -8 6 0 21 -11 34
-25 13 -14 28 -25 35 -25 6 0 11 -3 11 -8 0 -10 75 -42 99 -42 11 0 23 -4 26
-10 3 -5 28 -10 55 -10 27 0 52 -4 55 -10 3 -5 19 -10 35 -10 16 0 32 5 35 10
3 6 26 10 51 10 24 0 52 4 62 9 9 5 38 16 63 25 25 9 55 25 67 36 12 11 25 20
30 20 19 0 132 135 132 157 0 7 5 13 10 13 6 0 10 8 10 18 0 10 3 22 7 26 29
29 43 214 22 290 -26 92 -71 170 -136 234 -62 60 -165 122 -204 122 -10 0 -21
5 -24 10 -8 13 -230 11 -270 -2z"/>
<path d="M4025 5380 c-3 -5 -19 -10 -35 -10 -26 0 -96 -26 -110 -40 -3 -3 -54
-30 -115 -60 -60 -30 -112 -57 -115 -60 -8 -9 -76 -40 -89 -40 -6 0 -11 -4
-11 -10 0 -5 -7 -10 -15 -10 -8 0 -15 -4 -15 -9 0 -5 -16 -12 -35 -15 -19 -4
-35 -10 -35 -15 0 -4 -16 -13 -35 -21 -19 -8 -35 -17 -35 -21 0 -5 -16 -11
-35 -15 -19 -3 -35 -10 -35 -15 0 -5 -7 -9 -15 -9 -8 0 -15 -4 -15 -10 0 -5
-7 -10 -16 -10 -18 0 -77 -31 -82 -42 -2 -5 -9 -8 -15 -8 -12 0 -118 -50 -127
-60 -3 -3 -25 -14 -50 -25 -25 -11 -47 -22 -50 -25 -3 -3 -126 -66 -275 -141
-148 -75 -339 -171 -424 -214 -162 -82 -227 -133 -238 -187 -3 -16 -10 -31
-14 -34 -12 -7 -12 -131 0 -138 5 -3 12 -21 15 -39 6 -33 55 -87 106 -119 14
-8 48 -21 77 -28 43 -11 60 -11 95 -1 50 16 191 83 196 94 2 4 8 7 14 7 10 0
73 31 428 211 124 63 227 117 228 122 2 4 10 7 18 7 8 0 14 4 14 9 0 5 15 12
34 15 19 4 36 10 38 14 2 4 39 25 83 47 44 22 82 43 83 47 2 5 9 8 15 8 15 -1
320 152 328 164 9 11 29 -2 29 -19 0 -7 4 -15 9 -17 5 -1 34 -39 63 -83 29
-44 123 -180 208 -303 85 -122 193 -278 239 -345 46 -67 108 -157 137 -200 30
-42 54 -79 54 -82 0 -3 -84 -5 -187 -5 l-188 1 -75 72 c-180 172 -331 307
-362 324 -49 26 -171 25 -229 -4 -179 -87 -531 -252 -606 -284 -18 -8 -33 -17
-33 -21 0 -5 -7 -8 -15 -8 -8 0 -52 -18 -99 -40 l-84 -40 -1101 0 -1101 0 -5
-22 c-3 -13 -4 -126 -3 -253 l3 -229 25 -7 c14 -4 663 -7 1444 -8 1340 -1
1420 -2 1435 -19 9 -9 32 -31 52 -47 60 -50 140 -119 169 -145 15 -14 51 -45
80 -70 29 -25 67 -58 85 -75 18 -16 55 -49 81 -71 27 -23 60 -52 74 -64 14
-11 47 -40 73 -63 27 -23 63 -55 80 -70 52 -45 68 -60 152 -133 44 -38 85 -73
91 -79 7 -5 43 -37 80 -70 l69 -59 -3 -136 c-1 -74 -7 -148 -12 -164 -23 -68
-5 -124 51 -166 19 -14 54 -43 79 -65 53 -48 146 -127 203 -172 72 -59 92 -49
256 132 57 64 241 263 278 302 56 59 58 105 6 154 -21 20 -47 42 -59 50 -23
15 -94 73 -128 104 -12 11 -40 33 -62 49 -21 17 -42 34 -46 39 -6 10 -125 6
-350 -9 l-97 -7 -43 36 c-24 19 -62 53 -85 74 -23 21 -54 48 -70 60 -15 13
-44 36 -63 53 -19 17 -57 50 -84 73 -27 23 -72 63 -100 88 -28 26 -67 59 -86
75 -19 16 -46 40 -61 54 -14 14 -48 44 -75 66 -62 53 -83 71 -168 147 -38 34
-81 70 -95 81 -14 12 -32 26 -39 33 -11 10 223 13 1183 15 1050 3 1197 5 1205
18 13 21 13 456 0 481 -10 18 -24 19 -301 19 l-289 0 -47 73 c-26 39 -49 74
-52 77 -8 6 -29 41 -38 60 -4 8 -12 20 -18 26 -6 7 -30 43 -54 80 -23 38 -50
80 -61 94 -10 14 -66 97 -124 185 -59 88 -112 169 -120 180 -25 37 -131 200
-141 217 -13 22 -224 340 -265 398 -17 25 -60 89 -95 143 -96 148 -148 197
-208 197 -14 0 -29 5 -32 10 -3 6 -19 10 -35 10 -16 0 -32 -4 -35 -10z"/>
</g>
</svg>
