<?xml version="1.0" standalone="no"?>
<!DOCTYPE svg PUBLIC "-//W3C//DTD SVG 20010904//EN"
 "http://www.w3.org/TR/2001/REC-SVG-20010904/DTD/svg10.dtd">
<svg version="1.0" xmlns="http://www.w3.org/2000/svg"
 width="106.000000pt" height="106.000000pt" viewBox="0 0 106.000000 106.000000"
 preserveAspectRatio="xMidYMid meet">

<g transform="translate(0.000000,106.000000) scale(0.100000,-0.100000)"
fill="#000000" stroke="none">
<path d="M0 530 l0 -530 238 1 c130 1 226 4 212 6 -14 2 -52 13 -85 25 -148
52 -265 167 -325 323 -34 87 -34 253 0 340 60 154 171 265 325 325 50 20 78
24 170 24 92 0 120 -4 170 -24 156 -60 271 -177 323 -325 12 -33 23 -71 25
-85 2 -14 5 82 6 213 l1 237 -530 0 -530 0 0 -530z"/>
<path d="M85 664 c-26 -26 -14 -57 30 -81 47 -25 62 -28 46 -9 -9 10 -8 16 4
26 8 7 15 20 15 30 0 15 -7 17 -46 12 -37 -4 -46 -2 -42 9 3 9 19 14 43 13 24
-1 32 2 24 7 -22 14 -56 10 -74 -7z"/>
<path d="M380 640 c-11 -11 -20 -27 -20 -35 0 -19 36 -54 78 -77 25 -13 32
-24 32 -46 0 -59 -63 -82 -99 -36 -13 17 -21 21 -21 12 0 -17 26 -42 53 -51
22 -8 72 16 81 38 18 47 -16 101 -73 120 -11 3 -23 15 -26 26 -12 38 35 65 63
37 9 -9 12 -9 12 0 0 12 -31 32 -49 32 -6 0 -20 -9 -31 -20z"/>
<path d="M518 654 c-12 -11 -10 -244 2 -244 6 0 10 18 10 40 0 36 3 40 25 40
18 0 30 -10 47 -40 13 -22 29 -40 36 -40 8 0 3 15 -13 39 l-26 39 25 25 c34
34 35 85 2 116 -24 23 -95 39 -108 25z m97 -39 c28 -27 30 -37 14 -68 -16 -30
-28 -37 -66 -37 l-33 0 0 65 0 65 30 0 c19 0 40 -9 55 -25z"/>
<path d="M687 646 c-7 -19 -8 -184 -1 -212 5 -20 13 -24 43 -24 75 0 111 91
57 145 -15 15 -20 27 -14 33 16 16 -1 52 -29 63 -34 13 -50 11 -56 -5z m61
-15 c23 -14 10 -46 -21 -49 -24 -3 -27 0 -27 27 0 32 19 41 48 22z m31 -97
c12 -15 21 -35 21 -46 0 -27 -45 -68 -75 -68 -24 0 -25 2 -25 70 l0 70 29 0
c20 0 36 -9 50 -26z"/>
<path d="M206 627 c-26 -19 -17 -51 17 -55 31 -4 47 20 30 46 -13 22 -26 24
-47 9z"/>
<path d="M860 545 c-46 -49 -24 -126 40 -140 29 -6 107 24 83 32 -7 2 -21 0
-32 -6 -26 -14 -58 -14 -67 0 -3 6 17 34 45 63 57 58 55 76 -9 76 -26 0 -43
-7 -60 -25z m80 5 c12 -8 7 -17 -30 -55 -42 -43 -45 -44 -54 -25 -12 27 7 68
36 80 30 11 30 11 48 0z"/>
<path d="M167 522 c-33 -35 -34 -46 -3 -38 23 6 23 5 13 -39 -6 -25 -8 -47 -5
-50 10 -10 36 7 43 28 7 22 7 22 14 -3 4 -14 13 -25 21 -25 11 0 15 12 13 46
-1 41 1 46 18 42 24 -7 24 5 0 36 l-18 24 -29 -20 c-16 -11 -34 -18 -41 -16
-6 2 -14 -1 -18 -6 -3 -6 -11 -11 -17 -11 -7 0 1 14 17 30 16 17 26 30 24 30
-3 0 -17 -13 -32 -28z"/>
<path d="M1050 435 c0 -36 -38 -133 -75 -190 -38 -58 -113 -132 -170 -167 -42
-26 -142 -64 -185 -71 -14 -2 80 -5 208 -6 l232 -1 0 230 c0 127 -2 230 -5
230 -3 0 -5 -11 -5 -25z"/>
</g>
</svg>
