<?xml version="1.0" encoding="UTF-8" standalone="no"?>
<!-- Created with Inkscape (http://www.inkscape.org/) -->

<svg
   xmlns:dc="http://purl.org/dc/elements/1.1/"
   xmlns:cc="http://creativecommons.org/ns#"
   xmlns:rdf="http://www.w3.org/1999/02/22-rdf-syntax-ns#"
   xmlns:svg="http://www.w3.org/2000/svg"
   xmlns="http://www.w3.org/2000/svg"
   xmlns:xlink="http://www.w3.org/1999/xlink"
   xmlns:sodipodi="http://sodipodi.sourceforge.net/DTD/sodipodi-0.dtd"
   xmlns:inkscape="http://www.inkscape.org/namespaces/inkscape"
   width="500"
   height="500"
   viewBox="0 0 132.29166 132.29167"
   version="1.1"
   id="svg8"
   sodipodi:docname="avatar.svg"
   inkscape:version="0.92.1 r">
  <defs
     id="defs2">
    <linearGradient
       inkscape:collect="always"
       id="linearGradient4542">
      <stop
         style="stop-color:#b5759e;stop-opacity:1"
         offset="0"
         id="stop4538" />
      <stop
         style="stop-color:#f6eded;stop-opacity:1"
         offset="1"
         id="stop4540" />
    </linearGradient>
    <linearGradient
       inkscape:collect="always"
       xlink:href="#linearGradient4542"
       id="linearGradient4544"
       x1="66.817383"
       y1="298.60361"
       x2="67.084793"
       y2="166.03795"
       gradientUnits="userSpaceOnUse" />
  </defs>
  <sodipodi:namedview
     id="base"
     pagecolor="#ffffff"
     bordercolor="#666666"
     borderopacity="1.0"
     inkscape:pageopacity="0.0"
     inkscape:pageshadow="2"
     inkscape:zoom="1"
     inkscape:cx="128.01311"
     inkscape:cy="309.75385"
     inkscape:document-units="mm"
     inkscape:current-layer="layer1"
     showgrid="false"
     units="px"
     inkscape:window-width="1600"
     inkscape:window-height="842"
     inkscape:window-x="0"
     inkscape:window-y="30"
     inkscape:window-maximized="1" />
  <metadata
     id="metadata5">
    <rdf:RDF>
      <cc:Work
         rdf:about="">
        <dc:format>image/svg+xml</dc:format>
        <dc:type
           rdf:resource="http://purl.org/dc/dcmitype/StillImage" />
        <dc:title></dc:title>
      </cc:Work>
    </rdf:RDF>
  </metadata>
  <g
     inkscape:label="Layer 1"
     inkscape:groupmode="layer"
     id="layer1"
     transform="translate(0,-164.70832)"
     style="display:inline">
    <path
       id="path10-7"
       style="display:inline;fill:#800040;fill-opacity:1;stroke:#ffffff;stroke-width:2.64583325;stroke-miterlimit:4;stroke-dasharray:2.64583333, 5.29166667;stroke-dashoffset:0;stroke-opacity:0.54901961"
       sodipodi:type="arc"
       sodipodi:cx="67.619194"
       sodipodi:cy="201.31749"
       sodipodi:rx="0"
       sodipodi:ry="0"
       sodipodi:start="0"
       sodipodi:end="1.5882496" />
    <g
       id="g4643"
       transform="matrix(0.9802759,0,0,0.9802759,0.26484904,4.0426073)">
      <circle
         r="66.015572"
         cy="231.51895"
         cx="67.351921"
         id="path4534"
         style="display:inline;fill:url(#linearGradient4544);fill-opacity:1;stroke:none;stroke-width:2.64583325;stroke-miterlimit:4;stroke-dasharray:2.6458333, 5.2916666;stroke-dashoffset:0;stroke-opacity:0.57368421" />
      <path
         inkscape:connector-curvature="0"
         transform="matrix(0.26458333,0,0,0.26458333,0,164.70832)"
         id="path10"
         d="m 253.54883,5.0253906 a 248.49754,248.49754 0 0 1 21.18164,1.0605469 248.49754,248.49754 0 0 0 -21.18164,-1.0605469 z m 0,0 A 248.49754,248.49754 0 0 0 232.36328,6.0859375 248.49754,248.49754 0 0 1 253.54883,5.0253906 Z M 232.36328,6.0859375 A 248.49754,248.49754 0 0 0 220.05859,7.5800781 248.49754,248.49754 0 0 1 232.36328,6.0859375 Z M 220.05859,7.5800781 A 248.49754,248.49754 0 0 0 207.76562,9.4375 248.49754,248.49754 0 0 1 220.05859,7.5800781 Z M 207.76562,9.4375 A 248.49754,248.49754 0 0 0 195.66406,12.152344 248.49754,248.49754 0 0 1 207.76562,9.4375 Z m -12.10156,2.714844 a 248.49754,248.49754 0 0 0 -12.03125,3.072265 248.49754,248.49754 0 0 1 12.03125,-3.072265 z m -12.03125,3.072265 a 248.49754,248.49754 0 0 0 -11.8125,3.925782 248.49754,248.49754 0 0 1 11.8125,-3.925782 z m -11.8125,3.925782 a 248.49754,248.49754 0 0 0 -11.61328,4.238281 248.49754,248.49754 0 0 1 11.61328,-4.238281 z m -11.61328,4.238281 a 248.49754,248.49754 0 0 0 -11.37695,5.091797 248.49754,248.49754 0 0 1 11.37695,-5.091797 z m -11.37695,5.091797 a 248.49754,248.49754 0 0 0 -11.14063,5.380859 248.49754,248.49754 0 0 1 11.14063,-5.380859 z m -11.14063,5.380859 a 248.49754,248.49754 0 0 0 -10.79297,6.191406 248.49754,248.49754 0 0 1 10.79297,-6.191406 z m -10.79297,6.191406 a 248.49754,248.49754 0 0 0 -10.56445,6.478516 248.49754,248.49754 0 0 1 10.56445,-6.478516 z M 116.33203,46.53125 A 248.49754,248.49754 0 0 0 106.25,53.740234 248.49754,248.49754 0 0 1 116.33203,46.53125 Z M 106.25,53.740234 a 248.49754,248.49754 0 0 0 -9.90625,7.53125 248.49754,248.49754 0 0 1 9.90625,-7.53125 z m -9.90625,7.53125 a 248.49754,248.49754 0 0 0 -9.306641,8.175782 248.49754,248.49754 0 0 1 9.306641,-8.175782 z m -9.306641,8.175782 a 248.49754,248.49754 0 0 0 -9.095703,8.472656 248.49754,248.49754 0 0 1 9.095703,-8.472656 z m -9.095703,8.472656 a 248.49754,248.49754 0 0 0 -8.4375,9.05664 248.49754,248.49754 0 0 1 8.4375,-9.05664 z m -8.4375,9.05664 a 248.49754,248.49754 0 0 0 -8.228515,9.367188 248.49754,248.49754 0 0 1 8.228515,-9.367188 z m -8.228515,9.367188 a 248.49754,248.49754 0 0 0 -7.488282,9.85352 248.49754,248.49754 0 0 1 7.488282,-9.85352 z m -7.488282,9.85352 A 248.49754,248.49754 0 0 0 46.5625,116.29688 248.49754,248.49754 0 0 1 53.787109,106.19727 Z M 46.5625,116.29688 a 248.49754,248.49754 0 0 0 -6.496094,10.59374 248.49754,248.49754 0 0 1 6.496094,-10.59374 z m -6.496094,10.59374 a 248.49754,248.49754 0 0 0 -6.177734,10.77149 248.49754,248.49754 0 0 1 6.177734,-10.77149 z m -6.177734,10.77149 a 248.49754,248.49754 0 0 0 -5.386719,11.15234 248.49754,248.49754 0 0 1 5.386719,-11.15234 z m -5.386719,11.15234 a 248.49754,248.49754 0 0 0 -5.082031,11.35547 248.49754,248.49754 0 0 1 5.082031,-11.35547 z m -5.082031,11.35547 a 248.49754,248.49754 0 0 0 -4.251953,11.64844 248.49754,248.49754 0 0 1 4.251953,-11.64844 z m -4.251953,11.64844 a 248.49754,248.49754 0 0 0 -3.916016,11.78516 248.49754,248.49754 0 0 1 3.916016,-11.78516 z m -3.916016,11.78516 a 248.49754,248.49754 0 0 0 -3.070312,12.02539 248.49754,248.49754 0 0 1 3.070312,-12.02539 z m -3.070312,12.02539 a 248.49754,248.49754 0 0 0 -2.7187504,12.10937 248.49754,248.49754 0 0 1 2.7187504,-12.10937 z m -2.7187504,12.10937 a 248.49754,248.49754 0 0 0 -1.859375,12.30078 248.49754,248.49754 0 0 1 1.859375,-12.30078 z m -1.859375,12.30078 A 248.49754,248.49754 0 0 0 6.1113281,232.33789 248.49754,248.49754 0 0 1 7.6035156,220.03906 Z M 6.1113281,232.33789 A 248.49754,248.49754 0 0 0 5.0507812,253.52344 248.49754,248.49754 0 0 1 6.1113281,232.33789 Z M 5.0507812,253.52344 A 248.49754,248.49754 0 0 0 6.203125,275.46289 248.49754,248.49754 0 0 1 5.0507812,253.52344 Z m 1.1523438,21.93945 a 248.49754,248.49754 0 0 0 1.0878906,8.96094 248.49754,248.49754 0 0 1 -1.0878906,-8.96094 z m 1.0878906,8.96094 a 248.49754,248.49754 0 0 0 2.5390625,16.52148 248.49754,248.49754 0 0 1 -2.5390625,-16.52148 z m 2.5390625,16.52148 a 248.49754,248.49754 0 0 0 1.3496099,6.01367 248.49754,248.49754 0 0 1 -1.3496099,-6.01367 z m 1.3496099,6.01367 a 248.49754,248.49754 0 0 0 4.880859,18.91797 248.49754,248.49754 0 0 1 -4.880859,-18.91797 z m 4.880859,18.91797 a 248.49754,248.49754 0 0 0 1.082031,3.25977 248.49754,248.49754 0 0 1 -1.082031,-3.25977 z m 1.082031,3.25977 a 248.49754,248.49754 0 0 0 7.677734,20.86914 248.49754,248.49754 0 0 1 -7.677734,-20.86914 z m 7.677734,20.86914 a 248.49754,248.49754 0 0 0 0.326172,0.72852 248.49754,248.49754 0 0 1 -0.326172,-0.72852 z m 0.326172,0.72852 A 248.49754,248.49754 0 0 0 37.359375,375.43164 248.49754,248.49754 0 0 1 25.146484,350.73438 Z M 274.73047,6.0859375 a 248.49754,248.49754 0 0 1 12.31055,1.4941406 248.49754,248.49754 0 0 0 -12.31055,-1.4941406 z m 12.31055,1.4941406 a 248.49754,248.49754 0 0 1 12.2871,1.8554688 248.49754,248.49754 0 0 0 -12.2871,-1.8554688 z m 12.2871,1.8554688 a 248.49754,248.49754 0 0 1 12.12305,2.7226561 248.49754,248.49754 0 0 0 -12.12305,-2.7226561 z m 12.12305,2.7226561 a 248.49754,248.49754 0 0 1 12.01367,3.068359 248.49754,248.49754 0 0 0 -12.01367,-3.068359 z m 12.01367,3.068359 a 248.49754,248.49754 0 0 1 11.79493,3.917969 248.49754,248.49754 0 0 0 -11.79493,-3.917969 z m 11.79493,3.917969 a 248.49754,248.49754 0 0 1 11.63281,4.246094 248.49754,248.49754 0 0 0 -11.63281,-4.246094 z m 11.63281,4.246094 a 248.49754,248.49754 0 0 1 11.38086,5.09375 248.49754,248.49754 0 0 0 -11.38086,-5.09375 z m 11.38086,5.09375 a 248.49754,248.49754 0 0 1 11.13281,5.376953 248.49754,248.49754 0 0 0 -11.13281,-5.376953 z m 11.13281,5.376953 a 248.49754,248.49754 0 0 1 10.78516,6.1875 248.49754,248.49754 0 0 0 -10.78516,-6.1875 z m 10.78516,6.1875 a 248.49754,248.49754 0 0 1 10.57031,6.480469 248.49754,248.49754 0 0 0 -10.57031,-6.480469 z m 10.57031,6.480469 a 248.49754,248.49754 0 0 1 10.13281,7.246094 248.49754,248.49754 0 0 0 -10.13281,-7.246094 z m 10.13281,7.246094 a 248.49754,248.49754 0 0 1 9.83008,7.472656 248.49754,248.49754 0 0 0 -9.83008,-7.472656 z m 9.83008,7.472656 a 248.49754,248.49754 0 0 1 9.36914,8.230469 248.49754,248.49754 0 0 0 -9.36914,-8.230469 z m 9.36914,8.230469 a 248.49754,248.49754 0 0 1 9.05664,8.4375 248.49754,248.49754 0 0 0 -9.05664,-8.4375 z m 9.05664,8.4375 a 248.49754,248.49754 0 0 1 8.47266,9.095703 248.49754,248.49754 0 0 0 -8.47266,-9.095703 z m 8.47266,9.095703 a 248.49754,248.49754 0 0 1 8.17578,9.30664 248.49754,248.49754 0 0 0 -8.17578,-9.30664 z m 8.17578,9.30664 a 248.49754,248.49754 0 0 1 7.54297,9.921871 248.49754,248.49754 0 0 0 -7.54297,-9.921871 z m 7.54297,9.921871 a 248.49754,248.49754 0 0 1 7.1875,10.05079 248.49754,248.49754 0 0 0 -7.1875,-10.05079 z m 7.1875,10.05079 a 248.49754,248.49754 0 0 1 6.51758,10.63086 248.49754,248.49754 0 0 0 -6.51758,-10.63086 z m 6.51758,10.63086 a 248.49754,248.49754 0 0 1 6.15039,10.7207 248.49754,248.49754 0 0 0 -6.15039,-10.7207 z m 6.15039,10.7207 a 248.49754,248.49754 0 0 1 5.41992,11.2168 248.49754,248.49754 0 0 0 -5.41992,-11.2168 z m 5.41992,11.2168 a 248.49754,248.49754 0 0 1 5.05469,11.29882 248.49754,248.49754 0 0 0 -5.05469,-11.29882 z m 5.05469,11.29882 a 248.49754,248.49754 0 0 1 4.26171,11.67578 248.49754,248.49754 0 0 0 -4.26171,-11.67578 z m 4.26171,11.67578 a 248.49754,248.49754 0 0 1 3.91211,11.76954 248.49754,248.49754 0 0 0 -3.91211,-11.76954 z m 3.91211,11.76954 a 248.49754,248.49754 0 0 1 3.07227,12.03515 248.49754,248.49754 0 0 0 -3.07227,-12.03515 z m 3.07227,12.03515 a 248.49754,248.49754 0 0 1 2.71484,12.10156 248.49754,248.49754 0 0 0 -2.71484,-12.10156 z m 2.71484,12.10156 a 248.49754,248.49754 0 0 1 1.86133,12.31641 248.49754,248.49754 0 0 0 -1.86133,-12.31641 z m 1.86133,12.31641 a 248.49754,248.49754 0 0 1 1.48828,12.25781 248.49754,248.49754 0 0 0 -1.48828,-12.25781 z m 1.48828,12.25781 a 248.49754,248.49754 0 0 1 1.0625,21.20899 248.49754,248.49754 0 0 0 -1.0625,-21.20899 z m 1.0625,21.20899 a 248.49754,248.49754 0 0 1 -0.75195,15.04297 248.49754,248.49754 0 0 0 0.75195,-15.04297 z m -0.75195,15.04297 a 248.49754,248.49754 0 0 1 -1.17774,14.32812 248.49754,248.49754 0 0 0 1.17774,-14.32812 z m -1.17774,14.32812 a 248.49754,248.49754 0 0 1 -1.32226,8.75 248.49754,248.49754 0 0 0 1.32226,-8.75 z m -1.32226,8.75 a 248.49754,248.49754 0 0 1 -3.02539,16.43555 248.49754,248.49754 0 0 0 3.02539,-16.43555 z m -3.02539,16.43555 a 248.49754,248.49754 0 0 1 -1.61914,6.34375 248.49754,248.49754 0 0 0 1.61914,-6.34375 z m -1.61914,6.34375 a 248.49754,248.49754 0 0 1 -5.29883,18.2832 248.49754,248.49754 0 0 0 5.29883,-18.2832 z m -5.29883,18.2832 a 248.49754,248.49754 0 0 1 -1.44531,3.95899 248.49754,248.49754 0 0 0 1.44531,-3.95899 z m -1.44531,3.95899 a 248.49754,248.49754 0 0 1 -7.94532,19.77734 248.49754,248.49754 0 0 0 7.94532,-19.77734 z m -7.94532,19.77734 a 248.49754,248.49754 0 0 1 -0.89648,1.85352 248.49754,248.49754 0 0 0 0.89648,-1.85352 z m -0.89648,1.85352 a 248.49754,248.49754 0 0 1 -10.86523,20.76757 248.49754,248.49754 0 0 0 10.86523,-20.76757 z m -10.86523,20.76757 A 248.49754,248.49754 0 0 0 251.52734,252.51172 248.49754,248.49754 0 0 0 37.378906,375.46875 248.49754,248.49754 0 0 0 253.54883,502.01953 248.49754,248.49754 0 0 0 467.69727,379.06445 Z"
         style="display:inline;fill:#800040;fill-opacity:1;stroke:#ffffff;stroke-width:10;stroke-miterlimit:4;stroke-dasharray:10.00000013, 20.00000025;stroke-dashoffset:0;stroke-opacity:0.57368421" />
      <circle
         r="25.896093"
         cy="198.70728"
         cx="68.65937"
         id="path4607"
         style="fill:#800040;fill-opacity:1;stroke:#ffffff;stroke-width:2.9765625;stroke-miterlimit:4;stroke-dasharray:2.97656247, 5.95312494;stroke-dashoffset:0;stroke-opacity:0.54901961" />
    </g>
  </g>
</svg>
