<?xml version="1.0" standalone="no"?>
<!DOCTYPE svg PUBLIC "-//W3C//DTD SVG 20010904//EN"
 "http://www.w3.org/TR/2001/REC-SVG-20010904/DTD/svg10.dtd">
<svg version="1.0" xmlns="http://www.w3.org/2000/svg"
 width="457.000000pt" height="438.000000pt" viewBox="0 0 457.000000 438.000000"
 preserveAspectRatio="xMidYMid meet">
<metadata>
Created by potrace 1.15, written by Peter Selinger 2001-2017
</metadata>
<g transform="translate(0.000000,438.000000) scale(0.100000,-0.100000)"
fill="#000000" stroke="none">
<path d="M2827 4119 c-36 -30 -39 -31 -120 -26 -45 3 -107 11 -137 17 -38 8
-135 10 -310 7 -248 -4 -258 -5 -365 -35 -173 -49 -367 -118 -457 -163 -123
-61 -311 -180 -413 -259 -49 -39 -127 -95 -172 -126 -65 -43 -101 -78 -169
-162 -48 -59 -93 -123 -101 -142 -25 -62 -75 -154 -111 -205 -35 -49 -36 -52
-39 -162 -4 -93 -2 -113 10 -113 15 0 67 105 67 134 0 9 18 52 40 96 33 66 47
83 80 100 21 11 41 20 44 20 3 0 -10 -33 -28 -72 -69 -151 -105 -244 -111
-288 -4 -25 -20 -79 -35 -120 -23 -62 -29 -96 -33 -200 -3 -69 -13 -152 -21
-185 -20 -73 -20 -171 -2 -250 8 -33 19 -109 25 -170 24 -233 53 -407 81 -478
28 -74 26 -87 -12 -87 -21 0 -35 32 -88 195 -86 264 -119 400 -120 486 0 42
-4 50 -36 74 l-37 28 6 -99 c8 -146 59 -365 102 -437 22 -37 35 -71 35 -93 0
-27 8 -41 35 -65 27 -24 35 -39 35 -66 0 -50 64 -166 118 -213 24 -22 70 -77
101 -122 69 -101 209 -278 220 -278 4 0 46 -27 92 -60 46 -33 87 -60 91 -60 5
0 8 24 8 53 l0 52 -49 23 c-87 40 -164 107 -249 217 l-82 105 0 63 c0 58 -3
68 -43 125 -89 125 -137 273 -137 417 0 34 -9 98 -20 141 -22 89 -24 114 -10
114 13 0 17 -10 85 -225 65 -202 161 -406 244 -516 27 -36 109 -132 181 -215
83 -95 135 -162 142 -186 9 -31 23 -44 92 -86 109 -66 299 -160 361 -179 28
-8 67 -24 87 -34 20 -10 84 -35 142 -54 85 -29 133 -38 246 -48 81 -7 172 -10
213 -5 40 4 106 7 148 7 114 1 272 53 397 129 53 33 165 94 248 136 83 42 178
94 211 116 34 22 67 40 74 40 61 1 251 86 310 139 38 34 42 44 85 206 35 132
60 202 114 315 79 166 95 207 105 270 4 25 18 81 31 125 30 101 44 196 44 305
0 47 5 103 11 125 6 22 14 59 18 83 l6 42 75 -70 c107 -101 105 -100 135 -41
23 45 25 62 25 168 0 96 -5 140 -29 238 -16 66 -32 140 -36 164 -4 25 -28 94
-52 155 -31 75 -47 132 -51 174 -4 58 -9 68 -52 115 -26 29 -69 86 -97 127
-56 84 -122 149 -177 175 -20 10 -79 54 -130 99 -283 245 -352 297 -466 356
-57 28 -362 150 -377 150 -4 -1 -25 -14 -46 -31z m398 -296 c82 -41 178 -95
211 -119 61 -43 159 -142 150 -152 -6 -6 -78 36 -191 112 -49 33 -153 92 -230
132 -77 39 -156 81 -175 93 l-35 23 60 -7 c45 -5 94 -24 210 -82z m-678 -104
c15 -6 69 -14 119 -19 142 -12 233 -37 274 -75 19 -18 64 -49 100 -70 129 -76
248 -176 426 -357 198 -201 223 -233 279 -358 l38 -85 -17 -125 c-28 -211 -21
-293 29 -320 18 -10 28 -9 55 5 17 9 34 14 38 11 3 -3 8 -25 12 -48 33 -191
32 -185 14 -220 -12 -23 -18 -64 -21 -133 -6 -154 -55 -322 -150 -515 l-76
-155 -236 -235 c-230 -229 -239 -237 -367 -312 -145 -85 -202 -103 -368 -118
-54 -5 -115 -15 -135 -22 -25 -9 -100 -13 -246 -13 l-210 1 -125 38 c-69 21
-163 49 -210 61 -47 13 -128 42 -180 64 -52 22 -108 41 -124 41 -78 1 -338
211 -422 342 -95 148 -187 375 -289 718 l-38 125 -1 215 c-1 282 12 344 137
648 62 149 75 171 185 309 100 124 212 230 309 294 91 59 337 179 368 179 37
0 308 58 345 73 19 9 102 25 185 37 82 11 151 23 154 26 9 9 121 4 148 -7z"/>
<path d="M988 2402 l-68 -3 0 -163 c0 -110 -4 -178 -14 -209 l-14 -46 50 -17
c41 -13 54 -14 79 -4 18 8 50 10 82 7 39 -5 62 -2 92 12 65 29 76 49 82 141
l6 81 -37 -6 c-41 -8 -41 -7 -21 42 22 53 19 107 -7 136 -19 21 -34 26 -93 29
-38 2 -100 2 -137 0z m147 -102 l0 -65 -52 -3 -53 -3 0 71 0 71 53 -3 52 -3 0
-65z m-17 -116 c37 -15 48 -39 53 -109 l4 -50 -72 -3 -73 -3 0 96 0 95 28 -6
c15 -4 42 -13 60 -20z"/>
<path d="M2475 2373 c4 -21 13 -97 19 -168 11 -125 12 -132 44 -171 33 -41 36
-42 110 -49 l76 -7 43 45 43 46 0 119 c0 75 5 137 15 167 8 27 13 50 12 52 -7
6 -107 -10 -107 -18 0 -4 9 -24 21 -43 19 -32 20 -48 17 -162 -3 -118 -4 -127
-27 -145 -35 -28 -77 -24 -112 10 -29 29 -29 31 -29 144 0 72 5 132 15 163 8
27 15 50 15 52 0 1 -37 2 -81 2 l-81 0 7 -37z"/>
<path d="M2873 2283 c-27 -5 -27 0 -8 -88 19 -91 19 -189 -1 -276 -9 -39 -14
-72 -12 -74 1 -2 33 -1 70 2 l67 6 -19 27 c-26 37 -25 44 8 66 15 10 56 40 90
68 l64 51 -7 69 c-10 108 -12 110 -102 135 -77 20 -104 23 -150 14z"/>
<path d="M1390 2261 c-74 -15 -80 -23 -80 -109 0 -58 5 -89 20 -120 l20 -42
65 0 c51 0 65 3 65 15 0 10 -10 15 -29 15 -24 0 -29 5 -32 28 -2 15 -3 39 -1
55 3 25 6 27 53 27 l49 0 0 70 0 70 -47 -1 c-27 -1 -64 -4 -83 -8z"/>
<path d="M1630 2251 l-35 -18 -3 -122 -3 -121 78 1 78 0 -42 22 -43 21 0 99 0
98 33 -3 c31 -3 32 -5 35 -50 3 -40 6 -48 23 -48 22 0 23 10 9 61 -12 44 -44
79 -73 79 -12 0 -38 -8 -57 -19z"/>
<path d="M1911 2259 c-30 -5 -57 -12 -60 -14 -3 -3 -5 -40 -6 -83 -1 -42 -5
-98 -9 -123 l-8 -47 53 -4 c30 -2 56 -3 59 -1 2 2 -4 25 -14 51 -10 26 -21 57
-23 70 -5 21 -3 23 28 20 l34 -3 3 -66 3 -67 45 -7 c25 -3 48 -5 50 -3 2 3 -1
20 -7 39 -5 19 -13 82 -16 142 l-6 107 -36 -1 c-20 -1 -60 -5 -90 -10z"/>
<path d="M2100 2221 l-24 -52 74 -74 c76 -76 78 -87 13 -60 -50 21 -53 20 -53
-21 l0 -37 60 6 c72 6 106 26 115 66 10 47 0 62 -70 116 -36 27 -65 52 -65 56
0 4 32 -1 72 -12 40 -10 73 -17 75 -15 1 1 -12 16 -30 33 -25 24 -44 33 -87
38 l-56 7 -24 -51z"/>
<path d="M3296 2261 c-3 -5 3 -29 14 -52 23 -52 25 -96 6 -169 -8 -30 -13 -57
-11 -59 2 -2 25 0 50 3 l45 7 0 140 0 139 -49 0 c-28 0 -52 -4 -55 -9z"/>
<path d="M3152 2125 l1 -135 54 0 53 0 0 46 c0 25 -6 69 -14 97 -8 29 -17 69
-21 90 -5 34 -8 37 -40 37 l-34 0 1 -135z"/>
<path d="M3430 2205 c0 -30 3 -55 8 -55 4 1 27 18 52 40 24 22 46 37 48 35 9
-9 -29 -97 -65 -152 -22 -32 -43 -64 -47 -70 -6 -10 22 -13 122 -13 l130 0 4
51 c1 28 1 52 -1 55 -2 2 -26 -15 -53 -38 -27 -22 -51 -38 -54 -35 -6 6 52
139 83 189 13 21 23 40 23 43 0 3 -56 5 -125 5 l-125 0 0 -55z"/>
</g>
</svg>
